<?xml version="1.0" encoding="utf-8"?>
<!-- Generator: Adobe Illustrator 23.0.4, SVG Export Plug-In . SVG Version: 6.00 Build 0)  -->
<svg version="1.1" id="bar-frame" xmlns="http://www.w3.org/2000/svg" xmlns:xlink="http://www.w3.org/1999/xlink" x="0px" y="0px"
	 viewBox="0 0 331.7 369.9" style="enable-background:new 0 0 331.7 369.9;" xml:space="preserve">
<style type="text/css">
	.frame-color{fill:#000000;}
	.background-color{fill:#ffffff;}
	.text-color{fill:#FFFFFF;}
	.shadow-35{opacity:0.35;fill:#FFFFFF;}
</style>
	
<svg xmlns="http://www.w3.org/2000/svg" xmlns:xlink="http://www.w3.org/1999/xlink" version="1.1" width="259.8" height="259.8" viewBox="0 0 2000 2000" x="36.8" y="10.8" shape-rendering="crispEdges"><defs/><rect x="0" y="0" width="2000" height="2000" fill="#ffffff"/><svg viewBox="0 0 4 4" x="889" y="223" width="74" height="74" shape-rendering="auto"><path fill="#000000" d="M3.15,4A0.85,0.85,0,0,0,4,3.15V4Z"/></svg><svg viewBox="0 0 4 4" x="963" y="223" width="74" height="74" shape-rendering="auto"><path fill="#000000" d="M0.85,0A0.85,0.85,0,0,0,0,0.85V4H4V0H0.85Z"/></svg><svg viewBox="0 0 4 4" x="1037" y="223" width="74" height="74" shape-rendering="auto"><rect fill="#000000" width="4" height="4"/></svg><svg viewBox="0 0 4 4" x="1111" y="223" width="74" height="74" shape-rendering="auto"><path fill="#000000" d="M3.15,0A0.85,0.85,0,0,1,4,0.85V4H0V0H3.15Z"/></svg><svg viewBox="0 0 4 4" x="815" y="297" width="74" height="74" shape-rendering="auto"><path fill="#000000" d="M3.15,0H0.85A0.85,0.85,0,0,0,0,0.85v2.3A0.85,0.85,0,0,0,0.85,4H4V0Z"/></svg><svg viewBox="0 0 4 4" x="889" y="297" width="74" height="74" shape-rendering="auto"><rect fill="#000000" width="4" height="4"/></svg><svg viewBox="0 0 4 4" x="963" y="297" width="74" height="74" shape-rendering="auto"><rect fill="#000000" width="4" height="4"/></svg><svg viewBox="0 0 4 4" x="1037" y="297" width="74" height="74" shape-rendering="auto"><path fill="#000000" d="M0.85,0H0V0.85A0.85,0.85,0,0,1,0.85,0Z"/></svg><svg viewBox="0 0 4 4" x="1037" y="297" width="74" height="74" shape-rendering="auto"><path fill="#000000" d="M4,0.85V0H3.15A0.85,0.85,0,0,1,4,0.85Z"/></svg><svg viewBox="0 0 4 4" x="1037" y="297" width="74" height="74" shape-rendering="auto"><path fill="#000000" d="M3.15,4A0.85,0.85,0,0,0,4,3.15V4Z"/></svg><svg viewBox="0 0 4 4" x="1037" y="297" width="74" height="74" shape-rendering="auto"><path fill="#000000" d="M0.85,4A0.85,0.85,0,0,1,0,3.15V4Z"/></svg><svg viewBox="0 0 4 4" x="1111" y="297" width="74" height="74" shape-rendering="auto"><rect fill="#000000" width="4" height="4"/></svg><svg viewBox="0 0 4 4" x="889" y="371" width="74" height="74" shape-rendering="auto"><path fill="#000000" d="M4,0.85V0H3.15A0.85,0.85,0,0,1,4,0.85Z"/></svg><svg viewBox="0 0 4 4" x="963" y="371" width="74" height="74" shape-rendering="auto"><path fill="#000000" d="M0,3.15A0.85,0.85,0,0,0,0.85,4H4V0H0V3.15Z"/></svg><svg viewBox="0 0 4 4" x="1037" y="371" width="74" height="74" shape-rendering="auto"><rect fill="#000000" width="4" height="4"/></svg><svg viewBox="0 0 4 4" x="1111" y="371" width="74" height="74" shape-rendering="auto"><rect fill="#000000" width="4" height="4"/></svg><svg viewBox="0 0 4 4" x="815" y="445" width="74" height="74" shape-rendering="auto"><path fill="#000000" d="M3.15,0H0.85A0.85,0.85,0,0,0,0,0.85v2.3A0.85,0.85,0,0,0,0.85,4H4V0Z"/></svg><svg viewBox="0 0 4 4" x="889" y="445" width="74" height="74" shape-rendering="auto"><path fill="#000000" d="M3.15,0A0.85,0.85,0,0,1,4,0.85V4H0V0H3.15Z"/></svg><svg viewBox="0 0 4 4" x="1037" y="445" width="74" height="74" shape-rendering="auto"><path fill="#000000" d="M4,0.85V0H3.15A0.85,0.85,0,0,1,4,0.85Z"/></svg><svg viewBox="0 0 4 4" x="1111" y="445" width="74" height="74" shape-rendering="auto"><rect fill="#000000" width="4" height="4"/></svg><svg viewBox="0 0 4 4" x="815" y="519" width="74" height="74" shape-rendering="auto"><path fill="#000000" d="M4,0.85V0H3.15A0.85,0.85,0,0,1,4,0.85Z"/></svg><svg viewBox="0 0 4 4" x="889" y="519" width="74" height="74" shape-rendering="auto"><path fill="#000000" d="M0,3.15A0.85,0.85,0,0,0,0.85,4h2.3A0.85,0.85,0,0,0,4,3.15V0H0V3.15Z"/></svg><svg viewBox="0 0 4 4" x="1111" y="519" width="74" height="74" shape-rendering="auto"><path fill="#000000" d="M0,3.15A0.85,0.85,0,0,0,0.85,4h2.3A0.85,0.85,0,0,0,4,3.15V0H0V3.15Z"/></svg><svg viewBox="0 0 4 4" x="815" y="593" width="74" height="74" shape-rendering="auto"><path fill="#000000" d="M4,3.15V0.85A0.85,0.85,0,0,0,3.15,0H0.85A0.85,0.85,0,0,0,0,0.85V4H4Z"/></svg><svg viewBox="0 0 4 4" x="1037" y="593" width="74" height="74" shape-rendering="auto"><rect fill="#000000" width="4" height="4" rx="0.85"/></svg><svg viewBox="0 0 4 4" x="815" y="667" width="74" height="74" shape-rendering="auto"><path fill="#000000" d="M0,3.15A0.85,0.85,0,0,0,0.85,4h2.3A0.85,0.85,0,0,0,4,3.15V0H0V3.15Z"/></svg><svg viewBox="0 0 4 4" x="963" y="667" width="74" height="74" shape-rendering="auto"><rect fill="#000000" width="4" height="4" rx="0.85"/></svg><svg viewBox="0 0 4 4" x="1111" y="667" width="74" height="74" shape-rendering="auto"><rect fill="#000000" width="4" height="4" rx="0.85"/></svg><svg viewBox="0 0 4 4" x="889" y="741" width="74" height="74" shape-rendering="auto"><rect fill="#000000" width="4" height="4" rx="0.85"/></svg><svg viewBox="0 0 4 4" x="223" y="815" width="74" height="74" shape-rendering="auto"><path fill="#000000" d="M3.15,0H0.85A0.85,0.85,0,0,0,0,0.85v2.3A0.85,0.85,0,0,0,0.85,4H4V0Z"/></svg><svg viewBox="0 0 4 4" x="297" y="815" width="74" height="74" shape-rendering="auto"><rect fill="#000000" width="4" height="4"/></svg><svg viewBox="0 0 4 4" x="371" y="815" width="74" height="74" shape-rendering="auto"><rect fill="#000000" width="4" height="4"/></svg><svg viewBox="0 0 4 4" x="445" y="815" width="74" height="74" shape-rendering="auto"><rect fill="#000000" width="4" height="4"/></svg><svg viewBox="0 0 4 4" x="519" y="815" width="74" height="74" shape-rendering="auto"><path fill="#000000" d="M0.85,4h2.3A0.85,0.85,0,0,0,4,3.15V0.85A0.85,0.85,0,0,0,3.15,0H0V4Z"/></svg><svg viewBox="0 0 4 4" x="667" y="815" width="74" height="74" shape-rendering="auto"><path fill="#000000" d="M3.15,0H0.85A0.85,0.85,0,0,0,0,0.85v2.3A0.85,0.85,0,0,0,0.85,4H4V0Z"/></svg><svg viewBox="0 0 4 4" x="741" y="815" width="74" height="74" shape-rendering="auto"><rect fill="#000000" width="4" height="4"/></svg><svg viewBox="0 0 4 4" x="815" y="815" width="74" height="74" shape-rendering="auto"><path fill="#000000" d="M3.15,0A0.85,0.85,0,0,1,4,0.85V4H0V0H3.15Z"/></svg><svg viewBox="0 0 4 4" x="1037" y="815" width="74" height="74" shape-rendering="auto"><rect fill="#000000" width="4" height="4" rx="0.85"/></svg><svg viewBox="0 0 4 4" x="1111" y="815" width="74" height="74" shape-rendering="auto"><path fill="#000000" d="M3.15,4A0.85,0.85,0,0,0,4,3.15V4Z"/></svg><svg viewBox="0 0 4 4" x="1185" y="815" width="74" height="74" shape-rendering="auto"><path fill="#000000" d="M4,3.15V0.85A0.85,0.85,0,0,0,3.15,0H0.85A0.85,0.85,0,0,0,0,0.85V4H4Z"/></svg><svg viewBox="0 0 4 4" x="1333" y="815" width="74" height="74" shape-rendering="auto"><path fill="#000000" d="M4,3.15V0.85A0.85,0.85,0,0,0,3.15,0H0.85A0.85,0.85,0,0,0,0,0.85V4H4Z"/></svg><svg viewBox="0 0 4 4" x="1481" y="815" width="74" height="74" shape-rendering="auto"><path fill="#000000" d="M4,3.15V0.85A0.85,0.85,0,0,0,3.15,0H0.85A0.85,0.85,0,0,0,0,0.85V4H4Z"/></svg><svg viewBox="0 0 4 4" x="1555" y="815" width="74" height="74" shape-rendering="auto"><path fill="#000000" d="M3.15,4A0.85,0.85,0,0,0,4,3.15V4Z"/></svg><svg viewBox="0 0 4 4" x="1555" y="815" width="74" height="74" shape-rendering="auto"><path fill="#000000" d="M0.85,4A0.85,0.85,0,0,1,0,3.15V4Z"/></svg><svg viewBox="0 0 4 4" x="1629" y="815" width="74" height="74" shape-rendering="auto"><path fill="#000000" d="M4,3.15V0.85A0.85,0.85,0,0,0,3.15,0H0.85A0.85,0.85,0,0,0,0,0.85V4H4Z"/></svg><svg viewBox="0 0 4 4" x="1703" y="815" width="74" height="74" shape-rendering="auto"><path fill="#000000" d="M0.85,4A0.85,0.85,0,0,1,0,3.15V4Z"/></svg><svg viewBox="0 0 4 4" x="223" y="889" width="74" height="74" shape-rendering="auto"><path fill="#000000" d="M4,0.85V0H3.15A0.85,0.85,0,0,1,4,0.85Z"/></svg><svg viewBox="0 0 4 4" x="223" y="889" width="74" height="74" shape-rendering="auto"><path fill="#000000" d="M3.15,4A0.85,0.85,0,0,0,4,3.15V4Z"/></svg><svg viewBox="0 0 4 4" x="297" y="889" width="74" height="74" shape-rendering="auto"><rect fill="#000000" width="4" height="4"/></svg><svg viewBox="0 0 4 4" x="371" y="889" width="74" height="74" shape-rendering="auto"><rect fill="#000000" width="4" height="4"/></svg><svg viewBox="0 0 4 4" x="445" y="889" width="74" height="74" shape-rendering="auto"><path fill="#000000" d="M0.85,0H0V0.85A0.85,0.85,0,0,1,0.85,0Z"/></svg><svg viewBox="0 0 4 4" x="445" y="889" width="74" height="74" shape-rendering="auto"><path fill="#000000" d="M0.85,4A0.85,0.85,0,0,1,0,3.15V4Z"/></svg><svg viewBox="0 0 4 4" x="667" y="889" width="74" height="74" shape-rendering="auto"><path fill="#000000" d="M4,0.85V0H3.15A0.85,0.85,0,0,1,4,0.85Z"/></svg><svg viewBox="0 0 4 4" x="667" y="889" width="74" height="74" shape-rendering="auto"><path fill="#000000" d="M3.15,4A0.85,0.85,0,0,0,4,3.15V4Z"/></svg><svg viewBox="0 0 4 4" x="741" y="889" width="74" height="74" shape-rendering="auto"><rect fill="#000000" width="4" height="4"/></svg><svg viewBox="0 0 4 4" x="815" y="889" width="74" height="74" shape-rendering="auto"><path fill="#000000" d="M4,3.15A0.85,0.85,0,0,1,3.15,4H0V0H4V3.15Z"/></svg><svg viewBox="0 0 4 4" x="1111" y="889" width="74" height="74" shape-rendering="auto"><path fill="#000000" d="M0.85,0A0.85,0.85,0,0,0,0,0.85V4H4V0H0.85Z"/></svg><svg viewBox="0 0 4 4" x="1185" y="889" width="74" height="74" shape-rendering="auto"><rect fill="#000000" width="4" height="4"/></svg><svg viewBox="0 0 4 4" x="1259" y="889" width="74" height="74" shape-rendering="auto"><path fill="#000000" d="M3.15,4A0.85,0.85,0,0,0,4,3.15V4Z"/></svg><svg viewBox="0 0 4 4" x="1259" y="889" width="74" height="74" shape-rendering="auto"><path fill="#000000" d="M0.85,4A0.85,0.85,0,0,1,0,3.15V4Z"/></svg><svg viewBox="0 0 4 4" x="1333" y="889" width="74" height="74" shape-rendering="auto"><rect fill="#000000" width="4" height="4"/></svg><svg viewBox="0 0 4 4" x="1481" y="889" width="74" height="74" shape-rendering="auto"><path fill="#000000" d="M0,3.15A0.85,0.85,0,0,0,0.85,4H4V0H0V3.15Z"/></svg><svg viewBox="0 0 4 4" x="1555" y="889" width="74" height="74" shape-rendering="auto"><rect fill="#000000" width="4" height="4"/></svg><svg viewBox="0 0 4 4" x="1629" y="889" width="74" height="74" shape-rendering="auto"><rect fill="#000000" width="4" height="4"/></svg><svg viewBox="0 0 4 4" x="1703" y="889" width="74" height="74" shape-rendering="auto"><path fill="#000000" d="M3.15,0A0.85,0.85,0,0,1,4,0.85V4H0V0H3.15Z"/></svg><svg viewBox="0 0 4 4" x="223" y="963" width="74" height="74" shape-rendering="auto"><path fill="#000000" d="M0.85,0A0.85,0.85,0,0,0,0,0.85V4H4V0H0.85Z"/></svg><svg viewBox="0 0 4 4" x="297" y="963" width="74" height="74" shape-rendering="auto"><rect fill="#000000" width="4" height="4"/></svg><svg viewBox="0 0 4 4" x="371" y="963" width="74" height="74" shape-rendering="auto"><rect fill="#000000" width="4" height="4"/></svg><svg viewBox="0 0 4 4" x="445" y="963" width="74" height="74" shape-rendering="auto"><rect fill="#000000" width="4" height="4"/></svg><svg viewBox="0 0 4 4" x="519" y="963" width="74" height="74" shape-rendering="auto"><rect fill="#000000" width="4" height="4"/></svg><svg viewBox="0 0 4 4" x="593" y="963" width="74" height="74" shape-rendering="auto"><rect fill="#000000" width="4" height="4"/></svg><svg viewBox="0 0 4 4" x="667" y="963" width="74" height="74" shape-rendering="auto"><rect fill="#000000" width="4" height="4"/></svg><svg viewBox="0 0 4 4" x="741" y="963" width="74" height="74" shape-rendering="auto"><rect fill="#000000" width="4" height="4"/></svg><svg viewBox="0 0 4 4" x="815" y="963" width="74" height="74" shape-rendering="auto"><path fill="#000000" d="M0.85,0H0V0.85A0.85,0.85,0,0,1,0.85,0Z"/></svg><svg viewBox="0 0 4 4" x="1111" y="963" width="74" height="74" shape-rendering="auto"><rect fill="#000000" width="4" height="4"/></svg><svg viewBox="0 0 4 4" x="1185" y="963" width="74" height="74" shape-rendering="auto"><rect fill="#000000" width="4" height="4"/></svg><svg viewBox="0 0 4 4" x="1259" y="963" width="74" height="74" shape-rendering="auto"><rect fill="#000000" width="4" height="4"/></svg><svg viewBox="0 0 4 4" x="1333" y="963" width="74" height="74" shape-rendering="auto"><rect fill="#000000" width="4" height="4"/></svg><svg viewBox="0 0 4 4" x="1407" y="963" width="74" height="74" shape-rendering="auto"><path fill="#000000" d="M0.85,4A0.85,0.85,0,0,1,0,3.15V4Z"/></svg><svg viewBox="0 0 4 4" x="1629" y="963" width="74" height="74" shape-rendering="auto"><path fill="#000000" d="M4,0.85V0H3.15A0.85,0.85,0,0,1,4,0.85Z"/></svg><svg viewBox="0 0 4 4" x="1703" y="963" width="74" height="74" shape-rendering="auto"><path fill="#000000" d="M0,3.15A0.85,0.85,0,0,0,0.85,4h2.3A0.85,0.85,0,0,0,4,3.15V0H0V3.15Z"/></svg><svg viewBox="0 0 4 4" x="223" y="1037" width="74" height="74" shape-rendering="auto"><rect fill="#000000" width="4" height="4"/></svg><svg viewBox="0 0 4 4" x="297" y="1037" width="74" height="74" shape-rendering="auto"><path fill="#000000" d="M0.85,0H0V0.85A0.85,0.85,0,0,1,0.85,0Z"/></svg><svg viewBox="0 0 4 4" x="297" y="1037" width="74" height="74" shape-rendering="auto"><path fill="#000000" d="M4,0.85V0H3.15A0.85,0.85,0,0,1,4,0.85Z"/></svg><svg viewBox="0 0 4 4" x="371" y="1037" width="74" height="74" shape-rendering="auto"><rect fill="#000000" width="4" height="4"/></svg><svg viewBox="0 0 4 4" x="445" y="1037" width="74" height="74" shape-rendering="auto"><path fill="#000000" d="M0.85,0H0V0.85A0.85,0.85,0,0,1,0.85,0Z"/></svg><svg viewBox="0 0 4 4" x="445" y="1037" width="74" height="74" shape-rendering="auto"><path fill="#000000" d="M0.85,4A0.85,0.85,0,0,1,0,3.15V4Z"/></svg><svg viewBox="0 0 4 4" x="667" y="1037" width="74" height="74" shape-rendering="auto"><path fill="#000000" d="M4,0.85V0H3.15A0.85,0.85,0,0,1,4,0.85Z"/></svg><svg viewBox="0 0 4 4" x="667" y="1037" width="74" height="74" shape-rendering="auto"><path fill="#000000" d="M3.15,4A0.85,0.85,0,0,0,4,3.15V4Z"/></svg><svg viewBox="0 0 4 4" x="741" y="1037" width="74" height="74" shape-rendering="auto"><rect fill="#000000" width="4" height="4"/></svg><svg viewBox="0 0 4 4" x="889" y="1037" width="74" height="74" shape-rendering="auto"><path fill="#000000" d="M3.15,0H0.85A0.85,0.85,0,0,0,0,0.85v2.3A0.85,0.85,0,0,0,0.85,4H4V0Z"/></svg><svg viewBox="0 0 4 4" x="963" y="1037" width="74" height="74" shape-rendering="auto"><path fill="#000000" d="M3.15,0A0.85,0.85,0,0,1,4,0.85V4H0V0H3.15Z"/></svg><svg viewBox="0 0 4 4" x="1111" y="1037" width="74" height="74" shape-rendering="auto"><rect fill="#000000" width="4" height="4"/></svg><svg viewBox="0 0 4 4" x="1185" y="1037" width="74" height="74" shape-rendering="auto"><rect fill="#000000" width="4" height="4"/></svg><svg viewBox="0 0 4 4" x="1259" y="1037" width="74" height="74" shape-rendering="auto"><path fill="#000000" d="M0.85,0H0V0.85A0.85,0.85,0,0,1,0.85,0Z"/></svg><svg viewBox="0 0 4 4" x="1259" y="1037" width="74" height="74" shape-rendering="auto"><path fill="#000000" d="M4,0.85V0H3.15A0.85,0.85,0,0,1,4,0.85Z"/></svg><svg viewBox="0 0 4 4" x="1259" y="1037" width="74" height="74" shape-rendering="auto"><path fill="#000000" d="M3.15,4A0.85,0.85,0,0,0,4,3.15V4Z"/></svg><svg viewBox="0 0 4 4" x="1259" y="1037" width="74" height="74" shape-rendering="auto"><path fill="#000000" d="M0.85,4A0.85,0.85,0,0,1,0,3.15V4Z"/></svg><svg viewBox="0 0 4 4" x="1333" y="1037" width="74" height="74" shape-rendering="auto"><rect fill="#000000" width="4" height="4"/></svg><svg viewBox="0 0 4 4" x="1407" y="1037" width="74" height="74" shape-rendering="auto"><path fill="#000000" d="M0.85,4h2.3A0.85,0.85,0,0,0,4,3.15V0.85A0.85,0.85,0,0,0,3.15,0H0V4Z"/></svg><svg viewBox="0 0 4 4" x="223" y="1111" width="74" height="74" shape-rendering="auto"><path fill="#000000" d="M0,3.15A0.85,0.85,0,0,0,0.85,4h2.3A0.85,0.85,0,0,0,4,3.15V0H0V3.15Z"/></svg><svg viewBox="0 0 4 4" x="371" y="1111" width="74" height="74" shape-rendering="auto"><path fill="#000000" d="M0,3.15A0.85,0.85,0,0,0,0.85,4H4V0H0V3.15Z"/></svg><svg viewBox="0 0 4 4" x="445" y="1111" width="74" height="74" shape-rendering="auto"><path fill="#000000" d="M0.85,4h2.3A0.85,0.85,0,0,0,4,3.15V0.85A0.85,0.85,0,0,0,3.15,0H0V4Z"/></svg><svg viewBox="0 0 4 4" x="667" y="1111" width="74" height="74" shape-rendering="auto"><path fill="#000000" d="M3.15,0H0.85A0.85,0.85,0,0,0,0,0.85v2.3A0.85,0.85,0,0,0,0.85,4H4V0Z"/></svg><svg viewBox="0 0 4 4" x="741" y="1111" width="74" height="74" shape-rendering="auto"><path fill="#000000" d="M4,3.15A0.85,0.85,0,0,1,3.15,4H0V0H4V3.15Z"/></svg><svg viewBox="0 0 4 4" x="889" y="1111" width="74" height="74" shape-rendering="auto"><path fill="#000000" d="M4,0.85V0H3.15A0.85,0.85,0,0,1,4,0.85Z"/></svg><svg viewBox="0 0 4 4" x="889" y="1111" width="74" height="74" shape-rendering="auto"><path fill="#000000" d="M3.15,4A0.85,0.85,0,0,0,4,3.15V4Z"/></svg><svg viewBox="0 0 4 4" x="963" y="1111" width="74" height="74" shape-rendering="auto"><rect fill="#000000" width="4" height="4"/></svg><svg viewBox="0 0 4 4" x="1111" y="1111" width="74" height="74" shape-rendering="auto"><rect fill="#000000" width="4" height="4"/></svg><svg viewBox="0 0 4 4" x="1185" y="1111" width="74" height="74" shape-rendering="auto"><rect fill="#000000" width="4" height="4"/></svg><svg viewBox="0 0 4 4" x="1259" y="1111" width="74" height="74" shape-rendering="auto"><rect fill="#000000" width="4" height="4"/></svg><svg viewBox="0 0 4 4" x="1333" y="1111" width="74" height="74" shape-rendering="auto"><path fill="#000000" d="M4,3.15A0.85,0.85,0,0,1,3.15,4H0V0H4V3.15Z"/></svg><svg viewBox="0 0 4 4" x="1407" y="1111" width="74" height="74" shape-rendering="auto"><path fill="#000000" d="M0.85,0H0V0.85A0.85,0.85,0,0,1,0.85,0Z"/></svg><svg viewBox="0 0 4 4" x="1481" y="1111" width="74" height="74" shape-rendering="auto"><path fill="#000000" d="M3.15,4A0.85,0.85,0,0,0,4,3.15V4Z"/></svg><svg viewBox="0 0 4 4" x="1555" y="1111" width="74" height="74" shape-rendering="auto"><path fill="#000000" d="M4,3.15V0.85A0.85,0.85,0,0,0,3.15,0H0.85A0.85,0.85,0,0,0,0,0.85V4H4Z"/></svg><svg viewBox="0 0 4 4" x="815" y="1185" width="74" height="74" shape-rendering="auto"><path fill="#000000" d="M0.85,0A0.85,0.85,0,0,0,0,0.85V4H4V0H0.85Z"/></svg><svg viewBox="0 0 4 4" x="889" y="1185" width="74" height="74" shape-rendering="auto"><rect fill="#000000" width="4" height="4"/></svg><svg viewBox="0 0 4 4" x="963" y="1185" width="74" height="74" shape-rendering="auto"><rect fill="#000000" width="4" height="4"/></svg><svg viewBox="0 0 4 4" x="1037" y="1185" width="74" height="74" shape-rendering="auto"><path fill="#000000" d="M3.15,4A0.85,0.85,0,0,0,4,3.15V4Z"/></svg><svg viewBox="0 0 4 4" x="1037" y="1185" width="74" height="74" shape-rendering="auto"><path fill="#000000" d="M0.85,4A0.85,0.85,0,0,1,0,3.15V4Z"/></svg><svg viewBox="0 0 4 4" x="1111" y="1185" width="74" height="74" shape-rendering="auto"><rect fill="#000000" width="4" height="4"/></svg><svg viewBox="0 0 4 4" x="1185" y="1185" width="74" height="74" shape-rendering="auto"><path fill="#000000" d="M4,3.15A0.85,0.85,0,0,1,3.15,4H0V0H4V3.15Z"/></svg><svg viewBox="0 0 4 4" x="1259" y="1185" width="74" height="74" shape-rendering="auto"><path fill="#000000" d="M0.85,0H0V0.85A0.85,0.85,0,0,1,0.85,0Z"/></svg><svg viewBox="0 0 4 4" x="1407" y="1185" width="74" height="74" shape-rendering="auto"><path fill="#000000" d="M0.85,0A0.85,0.85,0,0,0,0,0.85V4H4V0H0.85Z"/></svg><svg viewBox="0 0 4 4" x="1481" y="1185" width="74" height="74" shape-rendering="auto"><rect fill="#000000" width="4" height="4"/></svg><svg viewBox="0 0 4 4" x="1555" y="1185" width="74" height="74" shape-rendering="auto"><path fill="#000000" d="M4,3.15A0.85,0.85,0,0,1,3.15,4H0V0H4V3.15Z"/></svg><svg viewBox="0 0 4 4" x="815" y="1259" width="74" height="74" shape-rendering="auto"><path fill="#000000" d="M0,3.15A0.85,0.85,0,0,0,0.85,4h2.3A0.85,0.85,0,0,0,4,3.15V0H0V3.15Z"/></svg><svg viewBox="0 0 4 4" x="889" y="1259" width="74" height="74" shape-rendering="auto"><path fill="#000000" d="M0.85,0H0V0.85A0.85,0.85,0,0,1,0.85,0Z"/></svg><svg viewBox="0 0 4 4" x="889" y="1259" width="74" height="74" shape-rendering="auto"><path fill="#000000" d="M4,0.85V0H3.15A0.85,0.85,0,0,1,4,0.85Z"/></svg><svg viewBox="0 0 4 4" x="963" y="1259" width="74" height="74" shape-rendering="auto"><path fill="#000000" d="M0,3.15A0.85,0.85,0,0,0,0.85,4H4V0H0V3.15Z"/></svg><svg viewBox="0 0 4 4" x="1037" y="1259" width="74" height="74" shape-rendering="auto"><rect fill="#000000" width="4" height="4"/></svg><svg viewBox="0 0 4 4" x="1111" y="1259" width="74" height="74" shape-rendering="auto"><path fill="#000000" d="M4,3.15A0.85,0.85,0,0,1,3.15,4H0V0H4V3.15Z"/></svg><svg viewBox="0 0 4 4" x="1185" y="1259" width="74" height="74" shape-rendering="auto"><path fill="#000000" d="M0.85,0H0V0.85A0.85,0.85,0,0,1,0.85,0Z"/></svg><svg viewBox="0 0 4 4" x="1185" y="1259" width="74" height="74" shape-rendering="auto"><path fill="#000000" d="M3.15,4A0.85,0.85,0,0,0,4,3.15V4Z"/></svg><svg viewBox="0 0 4 4" x="1259" y="1259" width="74" height="74" shape-rendering="auto"><path fill="#000000" d="M4,3.15V0.85A0.85,0.85,0,0,0,3.15,0H0.85A0.85,0.85,0,0,0,0,0.85V4H4Z"/></svg><svg viewBox="0 0 4 4" x="1333" y="1259" width="74" height="74" shape-rendering="auto"><path fill="#000000" d="M3.15,4A0.85,0.85,0,0,0,4,3.15V4Z"/></svg><svg viewBox="0 0 4 4" x="1333" y="1259" width="74" height="74" shape-rendering="auto"><path fill="#000000" d="M0.85,4A0.85,0.85,0,0,1,0,3.15V4Z"/></svg><svg viewBox="0 0 4 4" x="1407" y="1259" width="74" height="74" shape-rendering="auto"><rect fill="#000000" width="4" height="4"/></svg><svg viewBox="0 0 4 4" x="1481" y="1259" width="74" height="74" shape-rendering="auto"><path fill="#000000" d="M0.85,0H0V0.85A0.85,0.85,0,0,1,0.85,0Z"/></svg><svg viewBox="0 0 4 4" x="1481" y="1259" width="74" height="74" shape-rendering="auto"><path fill="#000000" d="M0.85,4A0.85,0.85,0,0,1,0,3.15V4Z"/></svg><svg viewBox="0 0 4 4" x="1629" y="1259" width="74" height="74" shape-rendering="auto"><rect fill="#000000" width="4" height="4" rx="0.85"/></svg><svg viewBox="0 0 4 4" x="815" y="1333" width="74" height="74" shape-rendering="auto"><path fill="#000000" d="M3.15,4A0.85,0.85,0,0,0,4,3.15V4Z"/></svg><svg viewBox="0 0 4 4" x="889" y="1333" width="74" height="74" shape-rendering="auto"><path fill="#000000" d="M4,3.15V0.85A0.85,0.85,0,0,0,3.15,0H0.85A0.85,0.85,0,0,0,0,0.85V4H4Z"/></svg><svg viewBox="0 0 4 4" x="1111" y="1333" width="74" height="74" shape-rendering="auto"><path fill="#000000" d="M3.15,4A0.85,0.85,0,0,0,4,3.15V4Z"/></svg><svg viewBox="0 0 4 4" x="1185" y="1333" width="74" height="74" shape-rendering="auto"><path fill="#000000" d="M0.85,0A0.85,0.85,0,0,0,0,0.85V4H4V0H0.85Z"/></svg><svg viewBox="0 0 4 4" x="1259" y="1333" width="74" height="74" shape-rendering="auto"><rect fill="#000000" width="4" height="4"/></svg><svg viewBox="0 0 4 4" x="1333" y="1333" width="74" height="74" shape-rendering="auto"><rect fill="#000000" width="4" height="4"/></svg><svg viewBox="0 0 4 4" x="1407" y="1333" width="74" height="74" shape-rendering="auto"><rect fill="#000000" width="4" height="4"/></svg><svg viewBox="0 0 4 4" x="1481" y="1333" width="74" height="74" shape-rendering="auto"><rect fill="#000000" width="4" height="4"/></svg><svg viewBox="0 0 4 4" x="1555" y="1333" width="74" height="74" shape-rendering="auto"><path fill="#000000" d="M3.15,0A0.85,0.85,0,0,1,4,0.85V4H0V0H3.15Z"/></svg><svg viewBox="0 0 4 4" x="1703" y="1333" width="74" height="74" shape-rendering="auto"><path fill="#000000" d="M4,3.15V0.85A0.85,0.85,0,0,0,3.15,0H0.85A0.85,0.85,0,0,0,0,0.85V4H4Z"/></svg><svg viewBox="0 0 4 4" x="815" y="1407" width="74" height="74" shape-rendering="auto"><path fill="#000000" d="M0.85,0A0.85,0.85,0,0,0,0,0.85V4H4V0H0.85Z"/></svg><svg viewBox="0 0 4 4" x="889" y="1407" width="74" height="74" shape-rendering="auto"><path fill="#000000" d="M4,3.15A0.85,0.85,0,0,1,3.15,4H0V0H4V3.15Z"/></svg><svg viewBox="0 0 4 4" x="1037" y="1407" width="74" height="74" shape-rendering="auto"><path fill="#000000" d="M3.15,0H0.85A0.85,0.85,0,0,0,0,0.85v2.3A0.85,0.85,0,0,0,0.85,4H4V0Z"/></svg><svg viewBox="0 0 4 4" x="1111" y="1407" width="74" height="74" shape-rendering="auto"><rect fill="#000000" width="4" height="4"/></svg><svg viewBox="0 0 4 4" x="1185" y="1407" width="74" height="74" shape-rendering="auto"><rect fill="#000000" width="4" height="4"/></svg><svg viewBox="0 0 4 4" x="1259" y="1407" width="74" height="74" shape-rendering="auto"><path fill="#000000" d="M4,3.15A0.85,0.85,0,0,1,3.15,4H0V0H4V3.15Z"/></svg><svg viewBox="0 0 4 4" x="1333" y="1407" width="74" height="74" shape-rendering="auto"><path fill="#000000" d="M0.85,0H0V0.85A0.85,0.85,0,0,1,0.85,0Z"/></svg><svg viewBox="0 0 4 4" x="1407" y="1407" width="74" height="74" shape-rendering="auto"><path fill="#000000" d="M4,0.85V0H3.15A0.85,0.85,0,0,1,4,0.85Z"/></svg><svg viewBox="0 0 4 4" x="1481" y="1407" width="74" height="74" shape-rendering="auto"><rect fill="#000000" width="4" height="4"/></svg><svg viewBox="0 0 4 4" x="1555" y="1407" width="74" height="74" shape-rendering="auto"><rect fill="#000000" width="4" height="4"/></svg><svg viewBox="0 0 4 4" x="1629" y="1407" width="74" height="74" shape-rendering="auto"><path fill="#000000" d="M0.85,4A0.85,0.85,0,0,1,0,3.15V4Z"/></svg><svg viewBox="0 0 4 4" x="1703" y="1407" width="74" height="74" shape-rendering="auto"><path fill="#000000" d="M0,3.15A0.85,0.85,0,0,0,0.85,4h2.3A0.85,0.85,0,0,0,4,3.15V0H0V3.15Z"/></svg><svg viewBox="0 0 4 4" x="815" y="1481" width="74" height="74" shape-rendering="auto"><rect fill="#000000" width="4" height="4"/></svg><svg viewBox="0 0 4 4" x="889" y="1481" width="74" height="74" shape-rendering="auto"><path fill="#000000" d="M0.85,0H0V0.85A0.85,0.85,0,0,1,0.85,0Z"/></svg><svg viewBox="0 0 4 4" x="889" y="1481" width="74" height="74" shape-rendering="auto"><path fill="#000000" d="M3.15,4A0.85,0.85,0,0,0,4,3.15V4Z"/></svg><svg viewBox="0 0 4 4" x="889" y="1481" width="74" height="74" shape-rendering="auto"><path fill="#000000" d="M0.85,4A0.85,0.85,0,0,1,0,3.15V4Z"/></svg><svg viewBox="0 0 4 4" x="963" y="1481" width="74" height="74" shape-rendering="auto"><path fill="#000000" d="M4,3.15V0.85A0.85,0.85,0,0,0,3.15,0H0.85A0.85,0.85,0,0,0,0,0.85V4H4Z"/></svg><svg viewBox="0 0 4 4" x="1037" y="1481" width="74" height="74" shape-rendering="auto"><path fill="#000000" d="M4,0.85V0H3.15A0.85,0.85,0,0,1,4,0.85Z"/></svg><svg viewBox="0 0 4 4" x="1037" y="1481" width="74" height="74" shape-rendering="auto"><path fill="#000000" d="M0.85,4A0.85,0.85,0,0,1,0,3.15V4Z"/></svg><svg viewBox="0 0 4 4" x="1111" y="1481" width="74" height="74" shape-rendering="auto"><path fill="#000000" d="M0,3.15A0.85,0.85,0,0,0,0.85,4H4V0H0V3.15Z"/></svg><svg viewBox="0 0 4 4" x="1185" y="1481" width="74" height="74" shape-rendering="auto"><rect fill="#000000" width="4" height="4"/></svg><svg viewBox="0 0 4 4" x="1259" y="1481" width="74" height="74" shape-rendering="auto"><path fill="#000000" d="M0.85,0H0V0.85A0.85,0.85,0,0,1,0.85,0Z"/></svg><svg viewBox="0 0 4 4" x="1259" y="1481" width="74" height="74" shape-rendering="auto"><path fill="#000000" d="M0.85,4A0.85,0.85,0,0,1,0,3.15V4Z"/></svg><svg viewBox="0 0 4 4" x="1333" y="1481" width="74" height="74" shape-rendering="auto"><rect fill="#000000" width="4" height="4" rx="0.85"/></svg><svg viewBox="0 0 4 4" x="1481" y="1481" width="74" height="74" shape-rendering="auto"><path fill="#000000" d="M0,3.15A0.85,0.85,0,0,0,0.85,4H4V0H0V3.15Z"/></svg><svg viewBox="0 0 4 4" x="1555" y="1481" width="74" height="74" shape-rendering="auto"><rect fill="#000000" width="4" height="4"/></svg><svg viewBox="0 0 4 4" x="1629" y="1481" width="74" height="74" shape-rendering="auto"><path fill="#000000" d="M0.85,4h2.3A0.85,0.85,0,0,0,4,3.15V0.85A0.85,0.85,0,0,0,3.15,0H0V4Z"/></svg><svg viewBox="0 0 4 4" x="815" y="1555" width="74" height="74" shape-rendering="auto"><rect fill="#000000" width="4" height="4"/></svg><svg viewBox="0 0 4 4" x="889" y="1555" width="74" height="74" shape-rendering="auto"><rect fill="#000000" width="4" height="4"/></svg><svg viewBox="0 0 4 4" x="963" y="1555" width="74" height="74" shape-rendering="auto"><rect fill="#000000" width="4" height="4"/></svg><svg viewBox="0 0 4 4" x="1037" y="1555" width="74" height="74" shape-rendering="auto"><path fill="#000000" d="M0.85,4h2.3A0.85,0.85,0,0,0,4,3.15V0.85A0.85,0.85,0,0,0,3.15,0H0V4Z"/></svg><svg viewBox="0 0 4 4" x="1111" y="1555" width="74" height="74" shape-rendering="auto"><path fill="#000000" d="M4,0.85V0H3.15A0.85,0.85,0,0,1,4,0.85Z"/></svg><svg viewBox="0 0 4 4" x="1185" y="1555" width="74" height="74" shape-rendering="auto"><path fill="#000000" d="M0,3.15A0.85,0.85,0,0,0,0.85,4H4V0H0V3.15Z"/></svg><svg viewBox="0 0 4 4" x="1259" y="1555" width="74" height="74" shape-rendering="auto"><path fill="#000000" d="M0.85,4h2.3A0.85,0.85,0,0,0,4,3.15V0.85A0.85,0.85,0,0,0,3.15,0H0V4Z"/></svg><svg viewBox="0 0 4 4" x="1333" y="1555" width="74" height="74" shape-rendering="auto"><path fill="#000000" d="M3.15,4A0.85,0.85,0,0,0,4,3.15V4Z"/></svg><svg viewBox="0 0 4 4" x="1407" y="1555" width="74" height="74" shape-rendering="auto"><path fill="#000000" d="M4,3.15V0.85A0.85,0.85,0,0,0,3.15,0H0.85A0.85,0.85,0,0,0,0,0.85V4H4Z"/></svg><svg viewBox="0 0 4 4" x="1481" y="1555" width="74" height="74" shape-rendering="auto"><path fill="#000000" d="M0.85,4A0.85,0.85,0,0,1,0,3.15V4Z"/></svg><svg viewBox="0 0 4 4" x="815" y="1629" width="74" height="74" shape-rendering="auto"><rect fill="#000000" width="4" height="4"/></svg><svg viewBox="0 0 4 4" x="889" y="1629" width="74" height="74" shape-rendering="auto"><path fill="#000000" d="M0.85,0H0V0.85A0.85,0.85,0,0,1,0.85,0Z"/></svg><svg viewBox="0 0 4 4" x="1333" y="1629" width="74" height="74" shape-rendering="auto"><path fill="#000000" d="M3.15,0H0.85A0.85,0.85,0,0,0,0,0.85v2.3A0.85,0.85,0,0,0,0.85,4H4V0Z"/></svg><svg viewBox="0 0 4 4" x="1407" y="1629" width="74" height="74" shape-rendering="auto"><rect fill="#000000" width="4" height="4"/></svg><svg viewBox="0 0 4 4" x="1481" y="1629" width="74" height="74" shape-rendering="auto"><path fill="#000000" d="M0.85,4h2.3A0.85,0.85,0,0,0,4,3.15V0.85A0.85,0.85,0,0,0,3.15,0H0V4Z"/></svg><svg viewBox="0 0 4 4" x="1555" y="1629" width="74" height="74" shape-rendering="auto"><path fill="#000000" d="M3.15,4A0.85,0.85,0,0,0,4,3.15V4Z"/></svg><svg viewBox="0 0 4 4" x="1629" y="1629" width="74" height="74" shape-rendering="auto"><path fill="#000000" d="M0.85,0A0.85,0.85,0,0,0,0,0.85V4H4V0H0.85Z"/></svg><svg viewBox="0 0 4 4" x="1703" y="1629" width="74" height="74" shape-rendering="auto"><path fill="#000000" d="M0.85,4h2.3A0.85,0.85,0,0,0,4,3.15V0.85A0.85,0.85,0,0,0,3.15,0H0V4Z"/></svg><svg viewBox="0 0 4 4" x="815" y="1703" width="74" height="74" shape-rendering="auto"><path fill="#000000" d="M0,3.15A0.85,0.85,0,0,0,0.85,4h2.3A0.85,0.85,0,0,0,4,3.15V0H0V3.15Z"/></svg><svg viewBox="0 0 4 4" x="1037" y="1703" width="74" height="74" shape-rendering="auto"><path fill="#000000" d="M3.15,0H0.85A0.85,0.85,0,0,0,0,0.85v2.3A0.85,0.85,0,0,0,0.85,4H4V0Z"/></svg><svg viewBox="0 0 4 4" x="1111" y="1703" width="74" height="74" shape-rendering="auto"><path fill="#000000" d="M0.85,4h2.3A0.85,0.85,0,0,0,4,3.15V0.85A0.85,0.85,0,0,0,3.15,0H0V4Z"/></svg><svg viewBox="0 0 4 4" x="1259" y="1703" width="74" height="74" shape-rendering="auto"><rect fill="#000000" width="4" height="4" rx="0.85"/></svg><svg viewBox="0 0 4 4" x="1555" y="1703" width="74" height="74" shape-rendering="auto"><path fill="#000000" d="M3.15,0H0.85A0.85,0.85,0,0,0,0,0.85v2.3A0.85,0.85,0,0,0,0.85,4H4V0Z"/></svg><svg viewBox="0 0 4 4" x="1629" y="1703" width="74" height="74" shape-rendering="auto"><path fill="#000000" d="M4,3.15A0.85,0.85,0,0,1,3.15,4H0V0H4V3.15Z"/></svg><svg viewBox="0 0 4 4" x="1703" y="1703" width="74" height="74" shape-rendering="auto"><path fill="#000000" d="M0.85,0H0V0.85A0.85,0.85,0,0,1,0.85,0Z"/></svg><svg version="1.1" id="Ebene_1" x="223" y="223" viewBox="0 0 700 700" style="enable-background:new 0 0 700 700;" xml:space="preserve" width="518" height="518" shape-rendering="auto">

<path fill="#000000" d="M21.2-0.1C9.5-0.1-0.1,9.5-0.1,21.2v78.8v100v100v100v100v100v78.8c0,11.7,9.5,21.3,21.3,21.3h657.6  c11.7,0,21.3-9.5,21.3-21.3V600V500V400V300V200v-100V21.2c0-11.7-9.5-21.3-21.3-21.3H21.2z M600,200v100v100v100v87.8  c0,6.8-5.5,12.2-12.2,12.2H112.2c-6.8,0-12.2-5.5-12.2-12.2V500V400V300V200v-87.8c0-6.8,5.5-12.2,12.2-12.2h475.6  c6.8,0,12.2,5.5,12.2,12.2V200z"/>
</svg>
<svg version="1.1" id="Ebene_1" x="223" y="223" viewBox="0 0 700 700" style="enable-background:new 0 0 700 700;" xml:space="preserve" width="518" height="518" shape-rendering="auto">

<path fill="#000000" d="M500,400V300v-78.8c0-11.7-9.5-21.3-21.3-21.3H221.2c-11.7,0-21.3,9.5-21.3,21.3V300v100v78.8    c0,11.7,9.5,21.3,21.3,21.3h257.5c11.7,0,21.3-9.5,21.3-21.3V400z"/>
</svg>
<svg version="1.1" id="Ebene_1" x="1259" y="223" viewBox="0 0 700 700" style="enable-background:new 0 0 700 700;" xml:space="preserve" width="518" height="518" shape-rendering="auto">

<path fill="#000000" d="M21.2-0.1C9.5-0.1-0.1,9.5-0.1,21.2v78.8v100v100v100v100v100v78.8c0,11.7,9.5,21.3,21.3,21.3h657.6  c11.7,0,21.3-9.5,21.3-21.3V600V500V400V300V200v-100V21.2c0-11.7-9.5-21.3-21.3-21.3H21.2z M600,200v100v100v100v87.8  c0,6.8-5.5,12.2-12.2,12.2H112.2c-6.8,0-12.2-5.5-12.2-12.2V500V400V300V200v-87.8c0-6.8,5.5-12.2,12.2-12.2h475.6  c6.8,0,12.2,5.5,12.2,12.2V200z"/>
</svg>
<svg version="1.1" id="Ebene_1" x="1259" y="223" viewBox="0 0 700 700" style="enable-background:new 0 0 700 700;" xml:space="preserve" width="518" height="518" shape-rendering="auto">

<path fill="#000000" d="M500,400V300v-78.8c0-11.7-9.5-21.3-21.3-21.3H221.2c-11.7,0-21.3,9.5-21.3,21.3V300v100v78.8    c0,11.7,9.5,21.3,21.3,21.3h257.5c11.7,0,21.3-9.5,21.3-21.3V400z"/>
</svg>
<svg version="1.1" id="Ebene_1" x="223" y="1259" viewBox="0 0 700 700" style="enable-background:new 0 0 700 700;" xml:space="preserve" width="518" height="518" shape-rendering="auto">

<path fill="#000000" d="M21.2-0.1C9.5-0.1-0.1,9.5-0.1,21.2v78.8v100v100v100v100v100v78.8c0,11.7,9.5,21.3,21.3,21.3h657.6  c11.7,0,21.3-9.5,21.3-21.3V600V500V400V300V200v-100V21.2c0-11.7-9.5-21.3-21.3-21.3H21.2z M600,200v100v100v100v87.8  c0,6.8-5.5,12.2-12.2,12.2H112.2c-6.8,0-12.2-5.5-12.2-12.2V500V400V300V200v-87.8c0-6.8,5.5-12.2,12.2-12.2h475.6  c6.8,0,12.2,5.5,12.2,12.2V200z"/>
</svg>
<svg version="1.1" id="Ebene_1" x="223" y="1259" viewBox="0 0 700 700" style="enable-background:new 0 0 700 700;" xml:space="preserve" width="518" height="518" shape-rendering="auto">

<path fill="#000000" d="M500,400V300v-78.8c0-11.7-9.5-21.3-21.3-21.3H221.2c-11.7,0-21.3,9.5-21.3,21.3V300v100v78.8    c0,11.7,9.5,21.3,21.3,21.3h257.5c11.7,0,21.3-9.5,21.3-21.3V400z"/>
</svg>
</svg>

	<path id="FrameBody" class="frame-color" d="M319.6,290.1h-14.3V14.9c0-7.5-6.1-13.7-13.7-13.7H40c-7.5,0-13.7,6.1-13.7,13.7v275.2H12.1
	c-6.7,0-12.1,5.4-12.1,12.1v55.6c0,6.7,5.4,12.1,12.1,12.1h307.5c6.7,0,12.1-5.4,12.1-12.1v-55.6
	C331.7,295.5,326.3,290.1,319.6,290.1z M294.8,262.3c0,4.1-3.3,7.4-7.3,7.4H44.2c-4.1,0-7.4-3.3-7.4-7.4V19.1c0-4.1,3.3-7.4,7.4-7.4
	h243.2c4.1,0,7.4,3.3,7.4,7.4V262.3z"/>
	<rect id="ShadowDarker" x="26.3" y="280.2" class="shadow-35" width="279" height="9.9"/>
	
	<path id="CallToAction" class="text-color" d="M90.8,331.7c1.6,1.9,2.4,4.1,2.4,6.6c-0.2,6.8-4.3,10.3-12.5,10.4
	c-5.3,0-9.8-1.6-13.6-4.9l3.5-4.1c2.8,2.3,6.2,3.5,10.1,3.5c4.6-0.1,7-1.7,7-5c0-2.7-1.5-4.2-4.6-4.8c-1.4-0.2-3-0.4-4.7-0.7
	c-3.1-0.5-5.4-1.6-7-3.4s-2.5-4-2.5-6.6c0-3.1,1-5.6,3.1-7.5c2-1.9,4.8-2.8,8.5-2.9c4.4,0.1,8.3,1.3,11.5,3.7l-3,4.4
	c-2.7-1.8-5.6-2.7-8.8-2.7c-1.7,0-3,0.4-4.2,1.2c-1.2,0.9-1.8,2.1-1.8,3.9c0,1,0.4,2,1.2,2.8c0.8,0.8,2.1,1.4,3.8,1.8
	c1,0.2,2.3,0.4,4,0.6C86.7,328.6,89.2,329.8,90.8,331.7z M104.8,320.5c0.6-0.7,1.3-1.3,2.2-1.8c0.9-0.5,2-0.7,3.3-0.8
	c1.7,0,3.2,0.5,4.4,1.5s2,2.2,2.4,3.7h5.7c-0.6-3-1.9-5.5-4.1-7.5s-5-3-8.4-3.1c-2.8,0-5.1,0.7-7,2s-3.3,2.8-4.2,4.4
	c-0.5,0.9-0.9,2-1.2,3.4c-0.2,1.4-0.4,4.2-0.4,8.3c0,4.1,0.1,6.8,0.4,8.3c0.1,0.8,0.3,1.4,0.5,1.9s0.4,1,0.7,1.5
	c0.9,1.6,2.2,3.1,4.2,4.3c1.9,1.3,4.2,2,7,2.1c3.1,0,5.8-0.9,8-2.6c2.2-1.8,3.7-4.3,4.5-7.6h-5.7c-1.5,3.2-3.8,4.9-6.8,4.9
	c-1.3,0-2.4-0.3-3.3-0.8s-1.7-1-2.2-1.8c-0.7-0.8-1.2-1.8-1.4-3c-0.3-1.2-0.4-3.6-0.4-7.1s0.1-5.9,0.4-7.2
	C103.7,322.3,104.1,321.3,104.8,320.5z M140.4,312.8l12.9,35.6h-5.7l-2.8-8h-13.5l-2.7,8h-5.7l12.9-35.6H140.4z M143.4,335.7
	l-5.2-15.6h-0.1l-5.2,15.6H143.4z M178.4,338.1L178.4,338.1l-16.2-25.3h-5.1v35.6h5.4v-25.3h0.1l16.1,25.3h5.1v-35.6h-5.4
	L178.4,338.1L178.4,338.1z M218.6,336l-10.2-23.2h-5.1v35.6h5.4v-22.2h0.1l7.4,17.1h4.5l7.4-17.1h0.1v22.2h5.4v-35.6h-5.1L218.6,336
	z M264,317.9v-5.1h-22.7v35.6H264v-5.1h-17.3v-10.4h14.8v-4.8h-14.8v-10.2H264z"/>
</svg>