<?xml version="1.0" encoding="utf-8"?>
<!-- Generator: Adobe Illustrator 23.0.4, SVG Export Plug-In . SVG Version: 6.00 Build 0)  -->
<svg version="1.1" id="bottom-frame" xmlns="http://www.w3.org/2000/svg" xmlns:xlink="http://www.w3.org/1999/xlink" x="0px"
	 y="0px" viewBox="0 0 279.1 346.6" style="enable-background:new 0 0 279.1 346.6;" xml:space="preserve">
<style type="text/css">
	.frame-color{fill:#1eff00;}
	.background-color{fill:#ffffff;}
	.text-color{fill:#000000;}
</style>

<svg xmlns="http://www.w3.org/2000/svg" xmlns:xlink="http://www.w3.org/1999/xlink" version="1.1" width="259.9" height="259.9" viewBox="0 0 2000 2000" x="9.7" y="9.6" shape-rendering="crispEdges"><defs/><rect x="0" y="0" width="2000" height="2000" fill="#ffffff"/><svg viewBox="0 0 3.4 3.4" x="712" y="200" width="64" height="64" shape-rendering="auto"><circle fill="#ff0000" cx="1.7" cy="1.7" r="1.7"/></svg><svg viewBox="0 0 3.4 3.4" x="904" y="200" width="64" height="64" shape-rendering="auto"><circle fill="#ff0000" cx="1.7" cy="1.7" r="1.7"/></svg><svg viewBox="0 0 3.4 3.4" x="968" y="200" width="64" height="64" shape-rendering="auto"><circle fill="#ff0000" cx="1.7" cy="1.7" r="1.7"/></svg><svg viewBox="0 0 3.4 3.4" x="1096" y="200" width="64" height="64" shape-rendering="auto"><circle fill="#ff0000" cx="1.7" cy="1.7" r="1.7"/></svg><svg viewBox="0 0 3.4 3.4" x="1160" y="200" width="64" height="64" shape-rendering="auto"><circle fill="#ff0000" cx="1.7" cy="1.7" r="1.7"/></svg><svg viewBox="0 0 3.4 3.4" x="1224" y="200" width="64" height="64" shape-rendering="auto"><circle fill="#ff0000" cx="1.7" cy="1.7" r="1.7"/></svg><svg viewBox="0 0 3.4 3.4" x="712" y="264" width="64" height="64" shape-rendering="auto"><circle fill="#ff0000" cx="1.7" cy="1.7" r="1.7"/></svg><svg viewBox="0 0 3.4 3.4" x="904" y="264" width="64" height="64" shape-rendering="auto"><circle fill="#ff0000" cx="1.7" cy="1.7" r="1.7"/></svg><svg viewBox="0 0 3.4 3.4" x="1032" y="264" width="64" height="64" shape-rendering="auto"><circle fill="#ff0000" cx="1.7" cy="1.7" r="1.7"/></svg><svg viewBox="0 0 3.4 3.4" x="1160" y="264" width="64" height="64" shape-rendering="auto"><circle fill="#ff0000" cx="1.7" cy="1.7" r="1.7"/></svg><svg viewBox="0 0 3.4 3.4" x="712" y="328" width="64" height="64" shape-rendering="auto"><circle fill="#ff0000" cx="1.7" cy="1.7" r="1.7"/></svg><svg viewBox="0 0 3.4 3.4" x="776" y="328" width="64" height="64" shape-rendering="auto"><circle fill="#ff0000" cx="1.7" cy="1.7" r="1.7"/></svg><svg viewBox="0 0 3.4 3.4" x="840" y="328" width="64" height="64" shape-rendering="auto"><circle fill="#ff0000" cx="1.7" cy="1.7" r="1.7"/></svg><svg viewBox="0 0 3.4 3.4" x="904" y="328" width="64" height="64" shape-rendering="auto"><circle fill="#ff0000" cx="1.7" cy="1.7" r="1.7"/></svg><svg viewBox="0 0 3.4 3.4" x="1032" y="328" width="64" height="64" shape-rendering="auto"><circle fill="#ff0000" cx="1.7" cy="1.7" r="1.7"/></svg><svg viewBox="0 0 3.4 3.4" x="1224" y="328" width="64" height="64" shape-rendering="auto"><circle fill="#ff0000" cx="1.7" cy="1.7" r="1.7"/></svg><svg viewBox="0 0 3.4 3.4" x="776" y="392" width="64" height="64" shape-rendering="auto"><circle fill="#ff0000" cx="1.7" cy="1.7" r="1.7"/></svg><svg viewBox="0 0 3.4 3.4" x="904" y="392" width="64" height="64" shape-rendering="auto"><circle fill="#ff0000" cx="1.7" cy="1.7" r="1.7"/></svg><svg viewBox="0 0 3.4 3.4" x="1096" y="392" width="64" height="64" shape-rendering="auto"><circle fill="#ff0000" cx="1.7" cy="1.7" r="1.7"/></svg><svg viewBox="0 0 3.4 3.4" x="776" y="456" width="64" height="64" shape-rendering="auto"><circle fill="#ff0000" cx="1.7" cy="1.7" r="1.7"/></svg><svg viewBox="0 0 3.4 3.4" x="904" y="456" width="64" height="64" shape-rendering="auto"><circle fill="#ff0000" cx="1.7" cy="1.7" r="1.7"/></svg><svg viewBox="0 0 3.4 3.4" x="968" y="456" width="64" height="64" shape-rendering="auto"><circle fill="#ff0000" cx="1.7" cy="1.7" r="1.7"/></svg><svg viewBox="0 0 3.4 3.4" x="1032" y="456" width="64" height="64" shape-rendering="auto"><circle fill="#ff0000" cx="1.7" cy="1.7" r="1.7"/></svg><svg viewBox="0 0 3.4 3.4" x="1224" y="456" width="64" height="64" shape-rendering="auto"><circle fill="#ff0000" cx="1.7" cy="1.7" r="1.7"/></svg><svg viewBox="0 0 3.4 3.4" x="712" y="520" width="64" height="64" shape-rendering="auto"><circle fill="#ff0000" cx="1.7" cy="1.7" r="1.7"/></svg><svg viewBox="0 0 3.4 3.4" x="776" y="520" width="64" height="64" shape-rendering="auto"><circle fill="#ff0000" cx="1.7" cy="1.7" r="1.7"/></svg><svg viewBox="0 0 3.4 3.4" x="904" y="520" width="64" height="64" shape-rendering="auto"><circle fill="#ff0000" cx="1.7" cy="1.7" r="1.7"/></svg><svg viewBox="0 0 3.4 3.4" x="968" y="520" width="64" height="64" shape-rendering="auto"><circle fill="#ff0000" cx="1.7" cy="1.7" r="1.7"/></svg><svg viewBox="0 0 3.4 3.4" x="712" y="584" width="64" height="64" shape-rendering="auto"><circle fill="#ff0000" cx="1.7" cy="1.7" r="1.7"/></svg><svg viewBox="0 0 3.4 3.4" x="840" y="584" width="64" height="64" shape-rendering="auto"><circle fill="#ff0000" cx="1.7" cy="1.7" r="1.7"/></svg><svg viewBox="0 0 3.4 3.4" x="968" y="584" width="64" height="64" shape-rendering="auto"><circle fill="#ff0000" cx="1.7" cy="1.7" r="1.7"/></svg><svg viewBox="0 0 3.4 3.4" x="1096" y="584" width="64" height="64" shape-rendering="auto"><circle fill="#ff0000" cx="1.7" cy="1.7" r="1.7"/></svg><svg viewBox="0 0 3.4 3.4" x="1224" y="584" width="64" height="64" shape-rendering="auto"><circle fill="#ff0000" cx="1.7" cy="1.7" r="1.7"/></svg><svg viewBox="0 0 3.4 3.4" x="712" y="648" width="64" height="64" shape-rendering="auto"><circle fill="#ff0000" cx="1.7" cy="1.7" r="1.7"/></svg><svg viewBox="0 0 3.4 3.4" x="840" y="648" width="64" height="64" shape-rendering="auto"><circle fill="#ff0000" cx="1.7" cy="1.7" r="1.7"/></svg><svg viewBox="0 0 3.4 3.4" x="904" y="648" width="64" height="64" shape-rendering="auto"><circle fill="#ff0000" cx="1.7" cy="1.7" r="1.7"/></svg><svg viewBox="0 0 3.4 3.4" x="968" y="648" width="64" height="64" shape-rendering="auto"><circle fill="#ff0000" cx="1.7" cy="1.7" r="1.7"/></svg><svg viewBox="0 0 3.4 3.4" x="1224" y="648" width="64" height="64" shape-rendering="auto"><circle fill="#ff0000" cx="1.7" cy="1.7" r="1.7"/></svg><svg viewBox="0 0 3.4 3.4" x="328" y="712" width="64" height="64" shape-rendering="auto"><circle fill="#ff0000" cx="1.7" cy="1.7" r="1.7"/></svg><svg viewBox="0 0 3.4 3.4" x="392" y="712" width="64" height="64" shape-rendering="auto"><circle fill="#ff0000" cx="1.7" cy="1.7" r="1.7"/></svg><svg viewBox="0 0 3.4 3.4" x="456" y="712" width="64" height="64" shape-rendering="auto"><circle fill="#ff0000" cx="1.7" cy="1.7" r="1.7"/></svg><svg viewBox="0 0 3.4 3.4" x="584" y="712" width="64" height="64" shape-rendering="auto"><circle fill="#ff0000" cx="1.7" cy="1.7" r="1.7"/></svg><svg viewBox="0 0 3.4 3.4" x="1288" y="712" width="64" height="64" shape-rendering="auto"><circle fill="#ff0000" cx="1.7" cy="1.7" r="1.7"/></svg><svg viewBox="0 0 3.4 3.4" x="1352" y="712" width="64" height="64" shape-rendering="auto"><circle fill="#ff0000" cx="1.7" cy="1.7" r="1.7"/></svg><svg viewBox="0 0 3.4 3.4" x="1416" y="712" width="64" height="64" shape-rendering="auto"><circle fill="#ff0000" cx="1.7" cy="1.7" r="1.7"/></svg><svg viewBox="0 0 3.4 3.4" x="1608" y="712" width="64" height="64" shape-rendering="auto"><circle fill="#ff0000" cx="1.7" cy="1.7" r="1.7"/></svg><svg viewBox="0 0 3.4 3.4" x="1672" y="712" width="64" height="64" shape-rendering="auto"><circle fill="#ff0000" cx="1.7" cy="1.7" r="1.7"/></svg><svg viewBox="0 0 3.4 3.4" x="1736" y="712" width="64" height="64" shape-rendering="auto"><circle fill="#ff0000" cx="1.7" cy="1.7" r="1.7"/></svg><svg viewBox="0 0 3.4 3.4" x="264" y="776" width="64" height="64" shape-rendering="auto"><circle fill="#ff0000" cx="1.7" cy="1.7" r="1.7"/></svg><svg viewBox="0 0 3.4 3.4" x="456" y="776" width="64" height="64" shape-rendering="auto"><circle fill="#ff0000" cx="1.7" cy="1.7" r="1.7"/></svg><svg viewBox="0 0 3.4 3.4" x="520" y="776" width="64" height="64" shape-rendering="auto"><circle fill="#ff0000" cx="1.7" cy="1.7" r="1.7"/></svg><svg viewBox="0 0 3.4 3.4" x="648" y="776" width="64" height="64" shape-rendering="auto"><circle fill="#ff0000" cx="1.7" cy="1.7" r="1.7"/></svg><svg viewBox="0 0 3.4 3.4" x="1288" y="776" width="64" height="64" shape-rendering="auto"><circle fill="#ff0000" cx="1.7" cy="1.7" r="1.7"/></svg><svg viewBox="0 0 3.4 3.4" x="1416" y="776" width="64" height="64" shape-rendering="auto"><circle fill="#ff0000" cx="1.7" cy="1.7" r="1.7"/></svg><svg viewBox="0 0 3.4 3.4" x="1480" y="776" width="64" height="64" shape-rendering="auto"><circle fill="#ff0000" cx="1.7" cy="1.7" r="1.7"/></svg><svg viewBox="0 0 3.4 3.4" x="1736" y="776" width="64" height="64" shape-rendering="auto"><circle fill="#ff0000" cx="1.7" cy="1.7" r="1.7"/></svg><svg viewBox="0 0 3.4 3.4" x="264" y="840" width="64" height="64" shape-rendering="auto"><circle fill="#ff0000" cx="1.7" cy="1.7" r="1.7"/></svg><svg viewBox="0 0 3.4 3.4" x="328" y="840" width="64" height="64" shape-rendering="auto"><circle fill="#ff0000" cx="1.7" cy="1.7" r="1.7"/></svg><svg viewBox="0 0 3.4 3.4" x="584" y="840" width="64" height="64" shape-rendering="auto"><circle fill="#ff0000" cx="1.7" cy="1.7" r="1.7"/></svg><svg viewBox="0 0 3.4 3.4" x="648" y="840" width="64" height="64" shape-rendering="auto"><circle fill="#ff0000" cx="1.7" cy="1.7" r="1.7"/></svg><svg viewBox="0 0 3.4 3.4" x="1288" y="840" width="64" height="64" shape-rendering="auto"><circle fill="#ff0000" cx="1.7" cy="1.7" r="1.7"/></svg><svg viewBox="0 0 3.4 3.4" x="1352" y="840" width="64" height="64" shape-rendering="auto"><circle fill="#ff0000" cx="1.7" cy="1.7" r="1.7"/></svg><svg viewBox="0 0 3.4 3.4" x="1480" y="840" width="64" height="64" shape-rendering="auto"><circle fill="#ff0000" cx="1.7" cy="1.7" r="1.7"/></svg><svg viewBox="0 0 3.4 3.4" x="1544" y="840" width="64" height="64" shape-rendering="auto"><circle fill="#ff0000" cx="1.7" cy="1.7" r="1.7"/></svg><svg viewBox="0 0 3.4 3.4" x="1608" y="840" width="64" height="64" shape-rendering="auto"><circle fill="#ff0000" cx="1.7" cy="1.7" r="1.7"/></svg><svg viewBox="0 0 3.4 3.4" x="264" y="904" width="64" height="64" shape-rendering="auto"><circle fill="#ff0000" cx="1.7" cy="1.7" r="1.7"/></svg><svg viewBox="0 0 3.4 3.4" x="648" y="904" width="64" height="64" shape-rendering="auto"><circle fill="#ff0000" cx="1.7" cy="1.7" r="1.7"/></svg><svg viewBox="0 0 3.4 3.4" x="1288" y="904" width="64" height="64" shape-rendering="auto"><circle fill="#ff0000" cx="1.7" cy="1.7" r="1.7"/></svg><svg viewBox="0 0 3.4 3.4" x="1416" y="904" width="64" height="64" shape-rendering="auto"><circle fill="#ff0000" cx="1.7" cy="1.7" r="1.7"/></svg><svg viewBox="0 0 3.4 3.4" x="520" y="968" width="64" height="64" shape-rendering="auto"><circle fill="#ff0000" cx="1.7" cy="1.7" r="1.7"/></svg><svg viewBox="0 0 3.4 3.4" x="584" y="968" width="64" height="64" shape-rendering="auto"><circle fill="#ff0000" cx="1.7" cy="1.7" r="1.7"/></svg><svg viewBox="0 0 3.4 3.4" x="1352" y="968" width="64" height="64" shape-rendering="auto"><circle fill="#ff0000" cx="1.7" cy="1.7" r="1.7"/></svg><svg viewBox="0 0 3.4 3.4" x="1416" y="968" width="64" height="64" shape-rendering="auto"><circle fill="#ff0000" cx="1.7" cy="1.7" r="1.7"/></svg><svg viewBox="0 0 3.4 3.4" x="1480" y="968" width="64" height="64" shape-rendering="auto"><circle fill="#ff0000" cx="1.7" cy="1.7" r="1.7"/></svg><svg viewBox="0 0 3.4 3.4" x="1672" y="968" width="64" height="64" shape-rendering="auto"><circle fill="#ff0000" cx="1.7" cy="1.7" r="1.7"/></svg><svg viewBox="0 0 3.4 3.4" x="1736" y="968" width="64" height="64" shape-rendering="auto"><circle fill="#ff0000" cx="1.7" cy="1.7" r="1.7"/></svg><svg viewBox="0 0 3.4 3.4" x="200" y="1032" width="64" height="64" shape-rendering="auto"><circle fill="#ff0000" cx="1.7" cy="1.7" r="1.7"/></svg><svg viewBox="0 0 3.4 3.4" x="264" y="1032" width="64" height="64" shape-rendering="auto"><circle fill="#ff0000" cx="1.7" cy="1.7" r="1.7"/></svg><svg viewBox="0 0 3.4 3.4" x="648" y="1032" width="64" height="64" shape-rendering="auto"><circle fill="#ff0000" cx="1.7" cy="1.7" r="1.7"/></svg><svg viewBox="0 0 3.4 3.4" x="1416" y="1032" width="64" height="64" shape-rendering="auto"><circle fill="#ff0000" cx="1.7" cy="1.7" r="1.7"/></svg><svg viewBox="0 0 3.4 3.4" x="1672" y="1032" width="64" height="64" shape-rendering="auto"><circle fill="#ff0000" cx="1.7" cy="1.7" r="1.7"/></svg><svg viewBox="0 0 3.4 3.4" x="200" y="1096" width="64" height="64" shape-rendering="auto"><circle fill="#ff0000" cx="1.7" cy="1.7" r="1.7"/></svg><svg viewBox="0 0 3.4 3.4" x="456" y="1096" width="64" height="64" shape-rendering="auto"><circle fill="#ff0000" cx="1.7" cy="1.7" r="1.7"/></svg><svg viewBox="0 0 3.4 3.4" x="520" y="1096" width="64" height="64" shape-rendering="auto"><circle fill="#ff0000" cx="1.7" cy="1.7" r="1.7"/></svg><svg viewBox="0 0 3.4 3.4" x="584" y="1096" width="64" height="64" shape-rendering="auto"><circle fill="#ff0000" cx="1.7" cy="1.7" r="1.7"/></svg><svg viewBox="0 0 3.4 3.4" x="1288" y="1096" width="64" height="64" shape-rendering="auto"><circle fill="#ff0000" cx="1.7" cy="1.7" r="1.7"/></svg><svg viewBox="0 0 3.4 3.4" x="1352" y="1096" width="64" height="64" shape-rendering="auto"><circle fill="#ff0000" cx="1.7" cy="1.7" r="1.7"/></svg><svg viewBox="0 0 3.4 3.4" x="1416" y="1096" width="64" height="64" shape-rendering="auto"><circle fill="#ff0000" cx="1.7" cy="1.7" r="1.7"/></svg><svg viewBox="0 0 3.4 3.4" x="1480" y="1096" width="64" height="64" shape-rendering="auto"><circle fill="#ff0000" cx="1.7" cy="1.7" r="1.7"/></svg><svg viewBox="0 0 3.4 3.4" x="1544" y="1096" width="64" height="64" shape-rendering="auto"><circle fill="#ff0000" cx="1.7" cy="1.7" r="1.7"/></svg><svg viewBox="0 0 3.4 3.4" x="1608" y="1096" width="64" height="64" shape-rendering="auto"><circle fill="#ff0000" cx="1.7" cy="1.7" r="1.7"/></svg><svg viewBox="0 0 3.4 3.4" x="200" y="1160" width="64" height="64" shape-rendering="auto"><circle fill="#ff0000" cx="1.7" cy="1.7" r="1.7"/></svg><svg viewBox="0 0 3.4 3.4" x="328" y="1160" width="64" height="64" shape-rendering="auto"><circle fill="#ff0000" cx="1.7" cy="1.7" r="1.7"/></svg><svg viewBox="0 0 3.4 3.4" x="1416" y="1160" width="64" height="64" shape-rendering="auto"><circle fill="#ff0000" cx="1.7" cy="1.7" r="1.7"/></svg><svg viewBox="0 0 3.4 3.4" x="1608" y="1160" width="64" height="64" shape-rendering="auto"><circle fill="#ff0000" cx="1.7" cy="1.7" r="1.7"/></svg><svg viewBox="0 0 3.4 3.4" x="1736" y="1160" width="64" height="64" shape-rendering="auto"><circle fill="#ff0000" cx="1.7" cy="1.7" r="1.7"/></svg><svg viewBox="0 0 3.4 3.4" x="200" y="1224" width="64" height="64" shape-rendering="auto"><circle fill="#ff0000" cx="1.7" cy="1.7" r="1.7"/></svg><svg viewBox="0 0 3.4 3.4" x="328" y="1224" width="64" height="64" shape-rendering="auto"><circle fill="#ff0000" cx="1.7" cy="1.7" r="1.7"/></svg><svg viewBox="0 0 3.4 3.4" x="392" y="1224" width="64" height="64" shape-rendering="auto"><circle fill="#ff0000" cx="1.7" cy="1.7" r="1.7"/></svg><svg viewBox="0 0 3.4 3.4" x="456" y="1224" width="64" height="64" shape-rendering="auto"><circle fill="#ff0000" cx="1.7" cy="1.7" r="1.7"/></svg><svg viewBox="0 0 3.4 3.4" x="520" y="1224" width="64" height="64" shape-rendering="auto"><circle fill="#ff0000" cx="1.7" cy="1.7" r="1.7"/></svg><svg viewBox="0 0 3.4 3.4" x="584" y="1224" width="64" height="64" shape-rendering="auto"><circle fill="#ff0000" cx="1.7" cy="1.7" r="1.7"/></svg><svg viewBox="0 0 3.4 3.4" x="1288" y="1224" width="64" height="64" shape-rendering="auto"><circle fill="#ff0000" cx="1.7" cy="1.7" r="1.7"/></svg><svg viewBox="0 0 3.4 3.4" x="1352" y="1224" width="64" height="64" shape-rendering="auto"><circle fill="#ff0000" cx="1.7" cy="1.7" r="1.7"/></svg><svg viewBox="0 0 3.4 3.4" x="1416" y="1224" width="64" height="64" shape-rendering="auto"><circle fill="#ff0000" cx="1.7" cy="1.7" r="1.7"/></svg><svg viewBox="0 0 3.4 3.4" x="1480" y="1224" width="64" height="64" shape-rendering="auto"><circle fill="#ff0000" cx="1.7" cy="1.7" r="1.7"/></svg><svg viewBox="0 0 3.4 3.4" x="1544" y="1224" width="64" height="64" shape-rendering="auto"><circle fill="#ff0000" cx="1.7" cy="1.7" r="1.7"/></svg><svg viewBox="0 0 3.4 3.4" x="1736" y="1224" width="64" height="64" shape-rendering="auto"><circle fill="#ff0000" cx="1.7" cy="1.7" r="1.7"/></svg><svg viewBox="0 0 3.4 3.4" x="712" y="1288" width="64" height="64" shape-rendering="auto"><circle fill="#ff0000" cx="1.7" cy="1.7" r="1.7"/></svg><svg viewBox="0 0 3.4 3.4" x="776" y="1288" width="64" height="64" shape-rendering="auto"><circle fill="#ff0000" cx="1.7" cy="1.7" r="1.7"/></svg><svg viewBox="0 0 3.4 3.4" x="840" y="1288" width="64" height="64" shape-rendering="auto"><circle fill="#ff0000" cx="1.7" cy="1.7" r="1.7"/></svg><svg viewBox="0 0 3.4 3.4" x="904" y="1288" width="64" height="64" shape-rendering="auto"><circle fill="#ff0000" cx="1.7" cy="1.7" r="1.7"/></svg><svg viewBox="0 0 3.4 3.4" x="1096" y="1288" width="64" height="64" shape-rendering="auto"><circle fill="#ff0000" cx="1.7" cy="1.7" r="1.7"/></svg><svg viewBox="0 0 3.4 3.4" x="1160" y="1288" width="64" height="64" shape-rendering="auto"><circle fill="#ff0000" cx="1.7" cy="1.7" r="1.7"/></svg><svg viewBox="0 0 3.4 3.4" x="1224" y="1288" width="64" height="64" shape-rendering="auto"><circle fill="#ff0000" cx="1.7" cy="1.7" r="1.7"/></svg><svg viewBox="0 0 3.4 3.4" x="1480" y="1288" width="64" height="64" shape-rendering="auto"><circle fill="#ff0000" cx="1.7" cy="1.7" r="1.7"/></svg><svg viewBox="0 0 3.4 3.4" x="1736" y="1288" width="64" height="64" shape-rendering="auto"><circle fill="#ff0000" cx="1.7" cy="1.7" r="1.7"/></svg><svg viewBox="0 0 3.4 3.4" x="904" y="1352" width="64" height="64" shape-rendering="auto"><circle fill="#ff0000" cx="1.7" cy="1.7" r="1.7"/></svg><svg viewBox="0 0 3.4 3.4" x="968" y="1352" width="64" height="64" shape-rendering="auto"><circle fill="#ff0000" cx="1.7" cy="1.7" r="1.7"/></svg><svg viewBox="0 0 3.4 3.4" x="1096" y="1352" width="64" height="64" shape-rendering="auto"><circle fill="#ff0000" cx="1.7" cy="1.7" r="1.7"/></svg><svg viewBox="0 0 3.4 3.4" x="1160" y="1352" width="64" height="64" shape-rendering="auto"><circle fill="#ff0000" cx="1.7" cy="1.7" r="1.7"/></svg><svg viewBox="0 0 3.4 3.4" x="1224" y="1352" width="64" height="64" shape-rendering="auto"><circle fill="#ff0000" cx="1.7" cy="1.7" r="1.7"/></svg><svg viewBox="0 0 3.4 3.4" x="1352" y="1352" width="64" height="64" shape-rendering="auto"><circle fill="#ff0000" cx="1.7" cy="1.7" r="1.7"/></svg><svg viewBox="0 0 3.4 3.4" x="1480" y="1352" width="64" height="64" shape-rendering="auto"><circle fill="#ff0000" cx="1.7" cy="1.7" r="1.7"/></svg><svg viewBox="0 0 3.4 3.4" x="1544" y="1352" width="64" height="64" shape-rendering="auto"><circle fill="#ff0000" cx="1.7" cy="1.7" r="1.7"/></svg><svg viewBox="0 0 3.4 3.4" x="1608" y="1352" width="64" height="64" shape-rendering="auto"><circle fill="#ff0000" cx="1.7" cy="1.7" r="1.7"/></svg><svg viewBox="0 0 3.4 3.4" x="1672" y="1352" width="64" height="64" shape-rendering="auto"><circle fill="#ff0000" cx="1.7" cy="1.7" r="1.7"/></svg><svg viewBox="0 0 3.4 3.4" x="1736" y="1352" width="64" height="64" shape-rendering="auto"><circle fill="#ff0000" cx="1.7" cy="1.7" r="1.7"/></svg><svg viewBox="0 0 3.4 3.4" x="776" y="1416" width="64" height="64" shape-rendering="auto"><circle fill="#ff0000" cx="1.7" cy="1.7" r="1.7"/></svg><svg viewBox="0 0 3.4 3.4" x="904" y="1416" width="64" height="64" shape-rendering="auto"><circle fill="#ff0000" cx="1.7" cy="1.7" r="1.7"/></svg><svg viewBox="0 0 3.4 3.4" x="1160" y="1416" width="64" height="64" shape-rendering="auto"><circle fill="#ff0000" cx="1.7" cy="1.7" r="1.7"/></svg><svg viewBox="0 0 3.4 3.4" x="1224" y="1416" width="64" height="64" shape-rendering="auto"><circle fill="#ff0000" cx="1.7" cy="1.7" r="1.7"/></svg><svg viewBox="0 0 3.4 3.4" x="1480" y="1416" width="64" height="64" shape-rendering="auto"><circle fill="#ff0000" cx="1.7" cy="1.7" r="1.7"/></svg><svg viewBox="0 0 3.4 3.4" x="1608" y="1416" width="64" height="64" shape-rendering="auto"><circle fill="#ff0000" cx="1.7" cy="1.7" r="1.7"/></svg><svg viewBox="0 0 3.4 3.4" x="712" y="1480" width="64" height="64" shape-rendering="auto"><circle fill="#ff0000" cx="1.7" cy="1.7" r="1.7"/></svg><svg viewBox="0 0 3.4 3.4" x="776" y="1480" width="64" height="64" shape-rendering="auto"><circle fill="#ff0000" cx="1.7" cy="1.7" r="1.7"/></svg><svg viewBox="0 0 3.4 3.4" x="1032" y="1480" width="64" height="64" shape-rendering="auto"><circle fill="#ff0000" cx="1.7" cy="1.7" r="1.7"/></svg><svg viewBox="0 0 3.4 3.4" x="1096" y="1480" width="64" height="64" shape-rendering="auto"><circle fill="#ff0000" cx="1.7" cy="1.7" r="1.7"/></svg><svg viewBox="0 0 3.4 3.4" x="1160" y="1480" width="64" height="64" shape-rendering="auto"><circle fill="#ff0000" cx="1.7" cy="1.7" r="1.7"/></svg><svg viewBox="0 0 3.4 3.4" x="1224" y="1480" width="64" height="64" shape-rendering="auto"><circle fill="#ff0000" cx="1.7" cy="1.7" r="1.7"/></svg><svg viewBox="0 0 3.4 3.4" x="1288" y="1480" width="64" height="64" shape-rendering="auto"><circle fill="#ff0000" cx="1.7" cy="1.7" r="1.7"/></svg><svg viewBox="0 0 3.4 3.4" x="1352" y="1480" width="64" height="64" shape-rendering="auto"><circle fill="#ff0000" cx="1.7" cy="1.7" r="1.7"/></svg><svg viewBox="0 0 3.4 3.4" x="1416" y="1480" width="64" height="64" shape-rendering="auto"><circle fill="#ff0000" cx="1.7" cy="1.7" r="1.7"/></svg><svg viewBox="0 0 3.4 3.4" x="1480" y="1480" width="64" height="64" shape-rendering="auto"><circle fill="#ff0000" cx="1.7" cy="1.7" r="1.7"/></svg><svg viewBox="0 0 3.4 3.4" x="1544" y="1480" width="64" height="64" shape-rendering="auto"><circle fill="#ff0000" cx="1.7" cy="1.7" r="1.7"/></svg><svg viewBox="0 0 3.4 3.4" x="712" y="1544" width="64" height="64" shape-rendering="auto"><circle fill="#ff0000" cx="1.7" cy="1.7" r="1.7"/></svg><svg viewBox="0 0 3.4 3.4" x="776" y="1544" width="64" height="64" shape-rendering="auto"><circle fill="#ff0000" cx="1.7" cy="1.7" r="1.7"/></svg><svg viewBox="0 0 3.4 3.4" x="968" y="1544" width="64" height="64" shape-rendering="auto"><circle fill="#ff0000" cx="1.7" cy="1.7" r="1.7"/></svg><svg viewBox="0 0 3.4 3.4" x="1032" y="1544" width="64" height="64" shape-rendering="auto"><circle fill="#ff0000" cx="1.7" cy="1.7" r="1.7"/></svg><svg viewBox="0 0 3.4 3.4" x="1096" y="1544" width="64" height="64" shape-rendering="auto"><circle fill="#ff0000" cx="1.7" cy="1.7" r="1.7"/></svg><svg viewBox="0 0 3.4 3.4" x="1160" y="1544" width="64" height="64" shape-rendering="auto"><circle fill="#ff0000" cx="1.7" cy="1.7" r="1.7"/></svg><svg viewBox="0 0 3.4 3.4" x="1288" y="1544" width="64" height="64" shape-rendering="auto"><circle fill="#ff0000" cx="1.7" cy="1.7" r="1.7"/></svg><svg viewBox="0 0 3.4 3.4" x="1672" y="1544" width="64" height="64" shape-rendering="auto"><circle fill="#ff0000" cx="1.7" cy="1.7" r="1.7"/></svg><svg viewBox="0 0 3.4 3.4" x="1736" y="1544" width="64" height="64" shape-rendering="auto"><circle fill="#ff0000" cx="1.7" cy="1.7" r="1.7"/></svg><svg viewBox="0 0 3.4 3.4" x="712" y="1608" width="64" height="64" shape-rendering="auto"><circle fill="#ff0000" cx="1.7" cy="1.7" r="1.7"/></svg><svg viewBox="0 0 3.4 3.4" x="840" y="1608" width="64" height="64" shape-rendering="auto"><circle fill="#ff0000" cx="1.7" cy="1.7" r="1.7"/></svg><svg viewBox="0 0 3.4 3.4" x="1032" y="1608" width="64" height="64" shape-rendering="auto"><circle fill="#ff0000" cx="1.7" cy="1.7" r="1.7"/></svg><svg viewBox="0 0 3.4 3.4" x="1096" y="1608" width="64" height="64" shape-rendering="auto"><circle fill="#ff0000" cx="1.7" cy="1.7" r="1.7"/></svg><svg viewBox="0 0 3.4 3.4" x="1160" y="1608" width="64" height="64" shape-rendering="auto"><circle fill="#ff0000" cx="1.7" cy="1.7" r="1.7"/></svg><svg viewBox="0 0 3.4 3.4" x="1352" y="1608" width="64" height="64" shape-rendering="auto"><circle fill="#ff0000" cx="1.7" cy="1.7" r="1.7"/></svg><svg viewBox="0 0 3.4 3.4" x="1544" y="1608" width="64" height="64" shape-rendering="auto"><circle fill="#ff0000" cx="1.7" cy="1.7" r="1.7"/></svg><svg viewBox="0 0 3.4 3.4" x="1608" y="1608" width="64" height="64" shape-rendering="auto"><circle fill="#ff0000" cx="1.7" cy="1.7" r="1.7"/></svg><svg viewBox="0 0 3.4 3.4" x="1736" y="1608" width="64" height="64" shape-rendering="auto"><circle fill="#ff0000" cx="1.7" cy="1.7" r="1.7"/></svg><svg viewBox="0 0 3.4 3.4" x="840" y="1672" width="64" height="64" shape-rendering="auto"><circle fill="#ff0000" cx="1.7" cy="1.7" r="1.7"/></svg><svg viewBox="0 0 3.4 3.4" x="904" y="1672" width="64" height="64" shape-rendering="auto"><circle fill="#ff0000" cx="1.7" cy="1.7" r="1.7"/></svg><svg viewBox="0 0 3.4 3.4" x="1096" y="1672" width="64" height="64" shape-rendering="auto"><circle fill="#ff0000" cx="1.7" cy="1.7" r="1.7"/></svg><svg viewBox="0 0 3.4 3.4" x="1160" y="1672" width="64" height="64" shape-rendering="auto"><circle fill="#ff0000" cx="1.7" cy="1.7" r="1.7"/></svg><svg viewBox="0 0 3.4 3.4" x="1288" y="1672" width="64" height="64" shape-rendering="auto"><circle fill="#ff0000" cx="1.7" cy="1.7" r="1.7"/></svg><svg viewBox="0 0 3.4 3.4" x="1352" y="1672" width="64" height="64" shape-rendering="auto"><circle fill="#ff0000" cx="1.7" cy="1.7" r="1.7"/></svg><svg viewBox="0 0 3.4 3.4" x="1480" y="1672" width="64" height="64" shape-rendering="auto"><circle fill="#ff0000" cx="1.7" cy="1.7" r="1.7"/></svg><svg viewBox="0 0 3.4 3.4" x="1608" y="1672" width="64" height="64" shape-rendering="auto"><circle fill="#ff0000" cx="1.7" cy="1.7" r="1.7"/></svg><svg viewBox="0 0 3.4 3.4" x="1672" y="1672" width="64" height="64" shape-rendering="auto"><circle fill="#ff0000" cx="1.7" cy="1.7" r="1.7"/></svg><svg viewBox="0 0 3.4 3.4" x="776" y="1736" width="64" height="64" shape-rendering="auto"><circle fill="#ff0000" cx="1.7" cy="1.7" r="1.7"/></svg><svg viewBox="0 0 3.4 3.4" x="904" y="1736" width="64" height="64" shape-rendering="auto"><circle fill="#ff0000" cx="1.7" cy="1.7" r="1.7"/></svg><svg viewBox="0 0 3.4 3.4" x="1096" y="1736" width="64" height="64" shape-rendering="auto"><circle fill="#ff0000" cx="1.7" cy="1.7" r="1.7"/></svg><svg viewBox="0 0 3.4 3.4" x="1608" y="1736" width="64" height="64" shape-rendering="auto"><circle fill="#ff0000" cx="1.7" cy="1.7" r="1.7"/></svg><svg viewBox="0 0 3.4 3.4" x="1672" y="1736" width="64" height="64" shape-rendering="auto"><circle fill="#ff0000" cx="1.7" cy="1.7" r="1.7"/></svg><svg viewBox="0 0 3.4 3.4" x="1736" y="1736" width="64" height="64" shape-rendering="auto"><circle fill="#ff0000" cx="1.7" cy="1.7" r="1.7"/></svg><svg version="1.0" id="Ebene_1" x="200" y="200" width="448" height="448" viewBox="0 0 699.988 699.988" enable-background="new 0 0 699.988 699.988" xml:space="preserve" shape-rendering="auto">
<path fill="#0400ff" d="M699.98,71.652V28.348C699.98,12.756,687.224,0,671.633,0H628.33c-15.58,0-28.326,12.735-28.348,28.311  C599.963,12.736,587.215,0,571.636,0h-43.305c-15.592,0-28.348,12.756-28.348,28.348v0.001C499.984,12.756,487.228,0,471.64,0  h-43.305c-15.578,0-28.326,12.735-28.348,28.311C399.967,12.736,387.222,0,371.642,0h-43.304c-15.583,0-28.336,12.746-28.347,28.328  C299.981,12.745,287.23,0,271.646,0h-43.303c-15.593,0-28.349,12.756-28.349,28.348v0.001C199.995,12.756,187.24,0,171.649,0  h-43.304c-15.592,0-28.347,12.756-28.347,28.348l0,0C99.997,12.756,87.241,0,71.652,0H28.346C12.756,0,0,12.756,0,28.347v43.304  c0,15.578,12.735,28.325,28.31,28.347C12.736,100.019,0,112.765,0,128.344v43.305c0,15.591,12.756,28.347,28.347,28.347h0.001  C12.756,199.996,0,212.752,0,228.344v43.302c0,15.585,12.746,28.336,28.328,28.348C12.745,300.004,0,312.755,0,328.339v43.307  c0,15.592,12.756,28.348,28.347,28.348h0.001C12.756,399.994,0,412.75,0,428.342v43.303c0,15.592,12.756,28.348,28.347,28.348h0.001  C12.756,499.992,0,512.748,0,528.34v43.303c0,15.576,12.735,28.324,28.31,28.346C12.736,600.01,0,612.756,0,628.336v43.305  c0,15.59,12.756,28.346,28.347,28.348h43.306c15.584,0,28.336-12.746,28.346-28.328c0.012,15.582,12.762,28.328,28.348,28.328  h43.304c15.584,0,28.335-12.746,28.345-28.328c0.011,15.582,12.763,28.328,28.349,28.328h43.303  c15.584,0,28.335-12.746,28.346-28.328c0.012,15.582,12.763,28.328,28.347,28.328h43.304c15.58,0,28.326-12.734,28.346-28.311  c0.021,15.574,12.77,28.311,28.348,28.311h43.305c15.59,0,28.346-12.756,28.346-28.348c0,15.592,12.756,28.348,28.348,28.348h43.305  c15.578,0,28.326-12.734,28.346-28.311c0.021,15.574,12.77,28.311,28.348,28.311h43.305c15.592,0,28.348-12.756,28.348-28.348  v-43.305c0-15.58-12.734-28.326-28.311-28.348c15.574-0.021,28.311-12.768,28.311-28.348V528.34  c0-15.592-12.756-28.348-28.348-28.348c15.592,0,28.348-12.756,28.348-28.346v-43.305c0-15.594-12.756-28.35-28.348-28.35  c15.592,0,28.348-12.756,28.348-28.346v-43.307c0-15.584-12.746-28.335-28.328-28.346c15.582-0.011,28.328-12.762,28.328-28.347  v-43.304c0-15.592-12.756-28.348-28.348-28.348c15.592,0,28.348-12.756,28.348-28.347v-43.306c0-15.578-12.734-28.325-28.311-28.347  C687.246,99.976,699.98,87.23,699.98,71.652z M599.982,228.344v43.303c0,15.585,12.744,28.336,28.328,28.347  c-15.584,0.011-28.328,12.762-28.328,28.346v43.31c0,15.59,12.756,28.346,28.348,28.346c-15.592,0-28.348,12.756-28.348,28.348  v43.305c0,15.59,12.756,28.346,28.348,28.346c-15.592,0-28.348,12.756-28.348,28.35v43.301c0,15.58,12.734,28.326,28.311,28.348  c-15.563,0.021-28.289,12.746-28.311,28.309c-0.02-15.574-12.768-28.311-28.346-28.311h-43.305  c-15.592,0-28.348,12.756-28.348,28.35c0-15.592-12.756-28.35-28.346-28.35h-43.303c-15.578,0-28.326,12.736-28.348,28.311  c-0.02-15.574-12.766-28.311-28.346-28.311h-43.304c-15.583,0-28.335,12.746-28.347,28.328  c-0.011-15.582-12.762-28.328-28.346-28.328h-43.303c-15.587,0-28.338,12.746-28.349,28.328  c-0.01-15.582-12.761-28.328-28.345-28.328h-43.304c-15.587,0-28.337,12.746-28.348,28.328c-0.01-15.568-12.74-28.307-28.308-28.326  c15.576-0.023,28.312-12.771,28.312-28.352V528.34c0-15.592-12.756-28.348-28.347-28.348c15.591,0,28.347-12.756,28.347-28.346  v-43.305c0-15.594-12.756-28.35-28.347-28.35c15.591,0,28.347-12.756,28.347-28.346v-43.307c0-15.584-12.746-28.335-28.328-28.346  c15.582-0.011,28.328-12.762,28.328-28.347v-43.303c0-15.593-12.756-28.349-28.347-28.349c15.591,0,28.347-12.756,28.347-28.347  v-43.305c0-15.579-12.734-28.326-28.309-28.348c15.565-0.021,28.297-12.758,28.307-28.327c0.011,15.582,12.761,28.328,28.348,28.328  h43.304c15.591,0,28.346-12.756,28.346-28.347c0,15.591,12.756,28.347,28.349,28.347h43.303c15.584,0,28.335-12.746,28.346-28.328  c0.012,15.582,12.764,28.328,28.347,28.328h43.305c15.578,0,28.324-12.734,28.346-28.309c0.021,15.573,12.768,28.309,28.348,28.309  h43.305c15.588,0,28.344-12.756,28.344-28.347c0,15.591,12.756,28.347,28.35,28.347h43.303c15.58,0,28.326-12.734,28.348-28.309  c0.021,15.561,12.746,28.286,28.309,28.308c-15.574,0.021-28.311,12.769-28.311,28.348v43.305c0,15.591,12.756,28.347,28.35,28.347  C612.738,199.996,599.982,212.752,599.982,228.344z"/>
</svg>
<svg version="1.0" id="Ebene_1" x="200" y="200" width="448" height="448" viewBox="0 0 699.988 699.988" enable-background="new 0 0 699.988 699.988" xml:space="preserve" shape-rendering="auto">
<path fill="#ff00d0" d="M499.99,271.65v-43.304c0-15.591-12.756-28.347-28.347-28.347H428.34c-15.579,0-28.325,12.735-28.347,28.309  c-0.021-15.574-12.768-28.309-28.346-28.309h-43.305c-15.583,0-28.336,12.746-28.347,28.328  c-0.01-15.583-12.762-28.328-28.346-28.328h-43.304c-15.592,0-28.348,12.756-28.348,28.347v43.304  c0,15.584,12.746,28.336,28.329,28.346c-15.583,0.01-28.329,12.76-28.329,28.345v43.309c0,15.584,12.746,28.336,28.329,28.346  c-15.583,0.011-28.329,12.763-28.329,28.349v43.302c0,15.591,12.756,28.347,28.348,28.347h43.304  c15.584,0,28.336-12.745,28.346-28.327c0.011,15.582,12.763,28.327,28.347,28.327h43.305c15.578,0,28.325-12.734,28.346-28.309  c0.021,15.573,12.768,28.309,28.347,28.309h43.305c15.591,0,28.347-12.756,28.347-28.347v-43.302  c0-15.586-12.745-28.338-28.327-28.349c15.582-0.01,28.327-12.762,28.327-28.346v-43.309c0-15.584-12.745-28.334-28.327-28.345  C487.245,299.986,499.99,287.234,499.99,271.65z M399.993,271.688c0.021,15.566,12.757,28.298,28.326,28.308  c-15.569,0.01-28.306,12.74-28.326,28.308c-0.021-15.567-12.757-28.297-28.325-28.308  C387.236,299.986,399.972,287.254,399.993,271.688z M299.995,271.668c0.011,15.576,12.751,28.317,28.328,28.327  c-15.576,0.01-28.317,12.75-28.328,28.327c-0.01-15.576-12.751-28.316-28.327-28.327  C287.244,299.986,299.986,287.243,299.995,271.668z M299.995,428.322c-0.01-15.576-12.751-28.317-28.327-28.328  c15.576-0.01,28.317-12.751,28.327-28.326c0.011,15.575,12.751,28.316,28.328,28.326  C312.748,400.005,300.007,412.746,299.995,428.322z M399.993,428.303c-0.021-15.568-12.757-28.3-28.325-28.311  c15.568-0.01,28.306-12.74,28.325-28.308c0.021,15.566,12.757,28.298,28.326,28.308C412.75,400.005,400.013,412.735,399.993,428.303  z"/>
</svg>
<svg version="1.0" id="Ebene_1" x="1352" y="200" width="448" height="448" viewBox="0 0 699.988 699.988" enable-background="new 0 0 699.988 699.988" xml:space="preserve" shape-rendering="auto">
<path fill="#0400ff" d="M699.98,71.652V28.348C699.98,12.756,687.224,0,671.633,0H628.33c-15.58,0-28.326,12.735-28.348,28.311  C599.963,12.736,587.215,0,571.636,0h-43.305c-15.592,0-28.348,12.756-28.348,28.348v0.001C499.984,12.756,487.228,0,471.64,0  h-43.305c-15.578,0-28.326,12.735-28.348,28.311C399.967,12.736,387.222,0,371.642,0h-43.304c-15.583,0-28.336,12.746-28.347,28.328  C299.981,12.745,287.23,0,271.646,0h-43.303c-15.593,0-28.349,12.756-28.349,28.348v0.001C199.995,12.756,187.24,0,171.649,0  h-43.304c-15.592,0-28.347,12.756-28.347,28.348l0,0C99.997,12.756,87.241,0,71.652,0H28.346C12.756,0,0,12.756,0,28.347v43.304  c0,15.578,12.735,28.325,28.31,28.347C12.736,100.019,0,112.765,0,128.344v43.305c0,15.591,12.756,28.347,28.347,28.347h0.001  C12.756,199.996,0,212.752,0,228.344v43.302c0,15.585,12.746,28.336,28.328,28.348C12.745,300.004,0,312.755,0,328.339v43.307  c0,15.592,12.756,28.348,28.347,28.348h0.001C12.756,399.994,0,412.75,0,428.342v43.303c0,15.592,12.756,28.348,28.347,28.348h0.001  C12.756,499.992,0,512.748,0,528.34v43.303c0,15.576,12.735,28.324,28.31,28.346C12.736,600.01,0,612.756,0,628.336v43.305  c0,15.59,12.756,28.346,28.347,28.348h43.306c15.584,0,28.336-12.746,28.346-28.328c0.012,15.582,12.762,28.328,28.348,28.328  h43.304c15.584,0,28.335-12.746,28.345-28.328c0.011,15.582,12.763,28.328,28.349,28.328h43.303  c15.584,0,28.335-12.746,28.346-28.328c0.012,15.582,12.763,28.328,28.347,28.328h43.304c15.58,0,28.326-12.734,28.346-28.311  c0.021,15.574,12.77,28.311,28.348,28.311h43.305c15.59,0,28.346-12.756,28.346-28.348c0,15.592,12.756,28.348,28.348,28.348h43.305  c15.578,0,28.326-12.734,28.346-28.311c0.021,15.574,12.77,28.311,28.348,28.311h43.305c15.592,0,28.348-12.756,28.348-28.348  v-43.305c0-15.58-12.734-28.326-28.311-28.348c15.574-0.021,28.311-12.768,28.311-28.348V528.34  c0-15.592-12.756-28.348-28.348-28.348c15.592,0,28.348-12.756,28.348-28.346v-43.305c0-15.594-12.756-28.35-28.348-28.35  c15.592,0,28.348-12.756,28.348-28.346v-43.307c0-15.584-12.746-28.335-28.328-28.346c15.582-0.011,28.328-12.762,28.328-28.347  v-43.304c0-15.592-12.756-28.348-28.348-28.348c15.592,0,28.348-12.756,28.348-28.347v-43.306c0-15.578-12.734-28.325-28.311-28.347  C687.246,99.976,699.98,87.23,699.98,71.652z M599.982,228.344v43.303c0,15.585,12.744,28.336,28.328,28.347  c-15.584,0.011-28.328,12.762-28.328,28.346v43.31c0,15.59,12.756,28.346,28.348,28.346c-15.592,0-28.348,12.756-28.348,28.348  v43.305c0,15.59,12.756,28.346,28.348,28.346c-15.592,0-28.348,12.756-28.348,28.35v43.301c0,15.58,12.734,28.326,28.311,28.348  c-15.563,0.021-28.289,12.746-28.311,28.309c-0.02-15.574-12.768-28.311-28.346-28.311h-43.305  c-15.592,0-28.348,12.756-28.348,28.35c0-15.592-12.756-28.35-28.346-28.35h-43.303c-15.578,0-28.326,12.736-28.348,28.311  c-0.02-15.574-12.766-28.311-28.346-28.311h-43.304c-15.583,0-28.335,12.746-28.347,28.328  c-0.011-15.582-12.762-28.328-28.346-28.328h-43.303c-15.587,0-28.338,12.746-28.349,28.328  c-0.01-15.582-12.761-28.328-28.345-28.328h-43.304c-15.587,0-28.337,12.746-28.348,28.328c-0.01-15.568-12.74-28.307-28.308-28.326  c15.576-0.023,28.312-12.771,28.312-28.352V528.34c0-15.592-12.756-28.348-28.347-28.348c15.591,0,28.347-12.756,28.347-28.346  v-43.305c0-15.594-12.756-28.35-28.347-28.35c15.591,0,28.347-12.756,28.347-28.346v-43.307c0-15.584-12.746-28.335-28.328-28.346  c15.582-0.011,28.328-12.762,28.328-28.347v-43.303c0-15.593-12.756-28.349-28.347-28.349c15.591,0,28.347-12.756,28.347-28.347  v-43.305c0-15.579-12.734-28.326-28.309-28.348c15.565-0.021,28.297-12.758,28.307-28.327c0.011,15.582,12.761,28.328,28.348,28.328  h43.304c15.591,0,28.346-12.756,28.346-28.347c0,15.591,12.756,28.347,28.349,28.347h43.303c15.584,0,28.335-12.746,28.346-28.328  c0.012,15.582,12.764,28.328,28.347,28.328h43.305c15.578,0,28.324-12.734,28.346-28.309c0.021,15.573,12.768,28.309,28.348,28.309  h43.305c15.588,0,28.344-12.756,28.344-28.347c0,15.591,12.756,28.347,28.35,28.347h43.303c15.58,0,28.326-12.734,28.348-28.309  c0.021,15.561,12.746,28.286,28.309,28.308c-15.574,0.021-28.311,12.769-28.311,28.348v43.305c0,15.591,12.756,28.347,28.35,28.347  C612.738,199.996,599.982,212.752,599.982,228.344z"/>
</svg>
<svg version="1.0" id="Ebene_1" x="1352" y="200" width="448" height="448" viewBox="0 0 699.988 699.988" enable-background="new 0 0 699.988 699.988" xml:space="preserve" shape-rendering="auto">
<path fill="#ff00d0" d="M499.99,271.65v-43.304c0-15.591-12.756-28.347-28.347-28.347H428.34c-15.579,0-28.325,12.735-28.347,28.309  c-0.021-15.574-12.768-28.309-28.346-28.309h-43.305c-15.583,0-28.336,12.746-28.347,28.328  c-0.01-15.583-12.762-28.328-28.346-28.328h-43.304c-15.592,0-28.348,12.756-28.348,28.347v43.304  c0,15.584,12.746,28.336,28.329,28.346c-15.583,0.01-28.329,12.76-28.329,28.345v43.309c0,15.584,12.746,28.336,28.329,28.346  c-15.583,0.011-28.329,12.763-28.329,28.349v43.302c0,15.591,12.756,28.347,28.348,28.347h43.304  c15.584,0,28.336-12.745,28.346-28.327c0.011,15.582,12.763,28.327,28.347,28.327h43.305c15.578,0,28.325-12.734,28.346-28.309  c0.021,15.573,12.768,28.309,28.347,28.309h43.305c15.591,0,28.347-12.756,28.347-28.347v-43.302  c0-15.586-12.745-28.338-28.327-28.349c15.582-0.01,28.327-12.762,28.327-28.346v-43.309c0-15.584-12.745-28.334-28.327-28.345  C487.245,299.986,499.99,287.234,499.99,271.65z M399.993,271.688c0.021,15.566,12.757,28.298,28.326,28.308  c-15.569,0.01-28.306,12.74-28.326,28.308c-0.021-15.567-12.757-28.297-28.325-28.308  C387.236,299.986,399.972,287.254,399.993,271.688z M299.995,271.668c0.011,15.576,12.751,28.317,28.328,28.327  c-15.576,0.01-28.317,12.75-28.328,28.327c-0.01-15.576-12.751-28.316-28.327-28.327  C287.244,299.986,299.986,287.243,299.995,271.668z M299.995,428.322c-0.01-15.576-12.751-28.317-28.327-28.328  c15.576-0.01,28.317-12.751,28.327-28.326c0.011,15.575,12.751,28.316,28.328,28.326  C312.748,400.005,300.007,412.746,299.995,428.322z M399.993,428.303c-0.021-15.568-12.757-28.3-28.325-28.311  c15.568-0.01,28.306-12.74,28.325-28.308c0.021,15.566,12.757,28.298,28.326,28.308C412.75,400.005,400.013,412.735,399.993,428.303  z"/>
</svg>
<svg version="1.0" id="Ebene_1" x="200" y="1352" width="448" height="448" viewBox="0 0 699.988 699.988" enable-background="new 0 0 699.988 699.988" xml:space="preserve" shape-rendering="auto">
<path fill="#0400ff" d="M699.98,71.652V28.348C699.98,12.756,687.224,0,671.633,0H628.33c-15.58,0-28.326,12.735-28.348,28.311  C599.963,12.736,587.215,0,571.636,0h-43.305c-15.592,0-28.348,12.756-28.348,28.348v0.001C499.984,12.756,487.228,0,471.64,0  h-43.305c-15.578,0-28.326,12.735-28.348,28.311C399.967,12.736,387.222,0,371.642,0h-43.304c-15.583,0-28.336,12.746-28.347,28.328  C299.981,12.745,287.23,0,271.646,0h-43.303c-15.593,0-28.349,12.756-28.349,28.348v0.001C199.995,12.756,187.24,0,171.649,0  h-43.304c-15.592,0-28.347,12.756-28.347,28.348l0,0C99.997,12.756,87.241,0,71.652,0H28.346C12.756,0,0,12.756,0,28.347v43.304  c0,15.578,12.735,28.325,28.31,28.347C12.736,100.019,0,112.765,0,128.344v43.305c0,15.591,12.756,28.347,28.347,28.347h0.001  C12.756,199.996,0,212.752,0,228.344v43.302c0,15.585,12.746,28.336,28.328,28.348C12.745,300.004,0,312.755,0,328.339v43.307  c0,15.592,12.756,28.348,28.347,28.348h0.001C12.756,399.994,0,412.75,0,428.342v43.303c0,15.592,12.756,28.348,28.347,28.348h0.001  C12.756,499.992,0,512.748,0,528.34v43.303c0,15.576,12.735,28.324,28.31,28.346C12.736,600.01,0,612.756,0,628.336v43.305  c0,15.59,12.756,28.346,28.347,28.348h43.306c15.584,0,28.336-12.746,28.346-28.328c0.012,15.582,12.762,28.328,28.348,28.328  h43.304c15.584,0,28.335-12.746,28.345-28.328c0.011,15.582,12.763,28.328,28.349,28.328h43.303  c15.584,0,28.335-12.746,28.346-28.328c0.012,15.582,12.763,28.328,28.347,28.328h43.304c15.58,0,28.326-12.734,28.346-28.311  c0.021,15.574,12.77,28.311,28.348,28.311h43.305c15.59,0,28.346-12.756,28.346-28.348c0,15.592,12.756,28.348,28.348,28.348h43.305  c15.578,0,28.326-12.734,28.346-28.311c0.021,15.574,12.77,28.311,28.348,28.311h43.305c15.592,0,28.348-12.756,28.348-28.348  v-43.305c0-15.58-12.734-28.326-28.311-28.348c15.574-0.021,28.311-12.768,28.311-28.348V528.34  c0-15.592-12.756-28.348-28.348-28.348c15.592,0,28.348-12.756,28.348-28.346v-43.305c0-15.594-12.756-28.35-28.348-28.35  c15.592,0,28.348-12.756,28.348-28.346v-43.307c0-15.584-12.746-28.335-28.328-28.346c15.582-0.011,28.328-12.762,28.328-28.347  v-43.304c0-15.592-12.756-28.348-28.348-28.348c15.592,0,28.348-12.756,28.348-28.347v-43.306c0-15.578-12.734-28.325-28.311-28.347  C687.246,99.976,699.98,87.23,699.98,71.652z M599.982,228.344v43.303c0,15.585,12.744,28.336,28.328,28.347  c-15.584,0.011-28.328,12.762-28.328,28.346v43.31c0,15.59,12.756,28.346,28.348,28.346c-15.592,0-28.348,12.756-28.348,28.348  v43.305c0,15.59,12.756,28.346,28.348,28.346c-15.592,0-28.348,12.756-28.348,28.35v43.301c0,15.58,12.734,28.326,28.311,28.348  c-15.563,0.021-28.289,12.746-28.311,28.309c-0.02-15.574-12.768-28.311-28.346-28.311h-43.305  c-15.592,0-28.348,12.756-28.348,28.35c0-15.592-12.756-28.35-28.346-28.35h-43.303c-15.578,0-28.326,12.736-28.348,28.311  c-0.02-15.574-12.766-28.311-28.346-28.311h-43.304c-15.583,0-28.335,12.746-28.347,28.328  c-0.011-15.582-12.762-28.328-28.346-28.328h-43.303c-15.587,0-28.338,12.746-28.349,28.328  c-0.01-15.582-12.761-28.328-28.345-28.328h-43.304c-15.587,0-28.337,12.746-28.348,28.328c-0.01-15.568-12.74-28.307-28.308-28.326  c15.576-0.023,28.312-12.771,28.312-28.352V528.34c0-15.592-12.756-28.348-28.347-28.348c15.591,0,28.347-12.756,28.347-28.346  v-43.305c0-15.594-12.756-28.35-28.347-28.35c15.591,0,28.347-12.756,28.347-28.346v-43.307c0-15.584-12.746-28.335-28.328-28.346  c15.582-0.011,28.328-12.762,28.328-28.347v-43.303c0-15.593-12.756-28.349-28.347-28.349c15.591,0,28.347-12.756,28.347-28.347  v-43.305c0-15.579-12.734-28.326-28.309-28.348c15.565-0.021,28.297-12.758,28.307-28.327c0.011,15.582,12.761,28.328,28.348,28.328  h43.304c15.591,0,28.346-12.756,28.346-28.347c0,15.591,12.756,28.347,28.349,28.347h43.303c15.584,0,28.335-12.746,28.346-28.328  c0.012,15.582,12.764,28.328,28.347,28.328h43.305c15.578,0,28.324-12.734,28.346-28.309c0.021,15.573,12.768,28.309,28.348,28.309  h43.305c15.588,0,28.344-12.756,28.344-28.347c0,15.591,12.756,28.347,28.35,28.347h43.303c15.58,0,28.326-12.734,28.348-28.309  c0.021,15.561,12.746,28.286,28.309,28.308c-15.574,0.021-28.311,12.769-28.311,28.348v43.305c0,15.591,12.756,28.347,28.35,28.347  C612.738,199.996,599.982,212.752,599.982,228.344z"/>
</svg>
<svg version="1.0" id="Ebene_1" x="200" y="1352" width="448" height="448" viewBox="0 0 699.988 699.988" enable-background="new 0 0 699.988 699.988" xml:space="preserve" shape-rendering="auto">
<path fill="#ff00d0" d="M499.99,271.65v-43.304c0-15.591-12.756-28.347-28.347-28.347H428.34c-15.579,0-28.325,12.735-28.347,28.309  c-0.021-15.574-12.768-28.309-28.346-28.309h-43.305c-15.583,0-28.336,12.746-28.347,28.328  c-0.01-15.583-12.762-28.328-28.346-28.328h-43.304c-15.592,0-28.348,12.756-28.348,28.347v43.304  c0,15.584,12.746,28.336,28.329,28.346c-15.583,0.01-28.329,12.76-28.329,28.345v43.309c0,15.584,12.746,28.336,28.329,28.346  c-15.583,0.011-28.329,12.763-28.329,28.349v43.302c0,15.591,12.756,28.347,28.348,28.347h43.304  c15.584,0,28.336-12.745,28.346-28.327c0.011,15.582,12.763,28.327,28.347,28.327h43.305c15.578,0,28.325-12.734,28.346-28.309  c0.021,15.573,12.768,28.309,28.347,28.309h43.305c15.591,0,28.347-12.756,28.347-28.347v-43.302  c0-15.586-12.745-28.338-28.327-28.349c15.582-0.01,28.327-12.762,28.327-28.346v-43.309c0-15.584-12.745-28.334-28.327-28.345  C487.245,299.986,499.99,287.234,499.99,271.65z M399.993,271.688c0.021,15.566,12.757,28.298,28.326,28.308  c-15.569,0.01-28.306,12.74-28.326,28.308c-0.021-15.567-12.757-28.297-28.325-28.308  C387.236,299.986,399.972,287.254,399.993,271.688z M299.995,271.668c0.011,15.576,12.751,28.317,28.328,28.327  c-15.576,0.01-28.317,12.75-28.328,28.327c-0.01-15.576-12.751-28.316-28.327-28.327  C287.244,299.986,299.986,287.243,299.995,271.668z M299.995,428.322c-0.01-15.576-12.751-28.317-28.327-28.328  c15.576-0.01,28.317-12.751,28.327-28.326c0.011,15.575,12.751,28.316,28.328,28.326  C312.748,400.005,300.007,412.746,299.995,428.322z M399.993,428.303c-0.021-15.568-12.757-28.3-28.325-28.311  c15.568-0.01,28.306-12.74,28.325-28.308c0.021,15.566,12.757,28.298,28.326,28.308C412.75,400.005,400.013,412.735,399.993,428.303  z"/>
</svg>
<svg version="1.0" id="Layer_1" x="744" y="744" viewBox="0 0 700 700" enable-background="new 0 0 700 700" xml:space="preserve" width="512" height="512" shape-rendering="auto">
<g>
	<g>
		<g>
			<path fill="#ff0000" d="M172.3,220.5c0-5.7-2-10.3-6.1-13.8c-4-3.5-11.1-6.7-21.3-9.8c-17.7-5.1-31-11.1-40.1-18.1     s-13.6-16.6-13.6-28.7s5.2-22.1,15.6-29.8c10.4-7.7,23.6-11.6,39.7-11.6c16.3,0,29.6,4.3,39.9,13c10.3,8.7,15.2,19.3,14.9,32.1     l-0.2,0.6h-28.8c0-6.9-2.3-12.4-6.9-16.7c-4.6-4.2-11-6.4-19.3-6.4c-8,0-14.1,1.8-18.5,5.3c-4.3,3.5-6.5,8.1-6.5,13.6     c0,5,2.3,9.2,7,12.4c4.7,3.2,12.7,6.6,24.1,10.2c16.4,4.6,28.8,10.6,37.2,18s12.6,17.3,12.6,29.5c0,12.7-5,22.7-15,30.1     c-10,7.3-23.3,11-39.7,11c-16.2,0-30.3-4.2-42.3-12.5c-12-8.3-17.9-20-17.5-35l0.2-0.6h29c0,8.8,2.7,15.3,8.1,19.4     c5.4,4.1,12.9,6.2,22.6,6.2c8.1,0,14.3-1.7,18.6-5C170.2,230.6,172.3,226.1,172.3,220.5z"/>
			<path fill="#ff0000" d="M336.7,208.7l0.2,0.6c0.3,16-4.6,28.6-14.6,38c-10,9.4-23.9,14.1-41.7,14.1c-17.9,0-32.4-5.7-43.5-17.2     s-16.7-26.3-16.7-44.3v-29.5c0-18,5.4-32.8,16.3-44.3s25-17.3,42.4-17.3c18.3,0,32.7,4.7,43,14.1c10.3,9.4,15.4,22.2,15.1,38.5     l-0.2,0.6h-29c0-9.8-2.3-17.3-7-22.5c-4.7-5.2-12-7.8-21.9-7.8c-8.9,0-16,3.6-21.2,10.8c-5.2,7.2-7.8,16.4-7.8,27.7v29.6     c0,11.3,2.8,20.6,8.3,27.9c5.5,7.2,12.9,10.8,22.3,10.8c9.3,0,16.2-2.5,20.6-7.5c4.4-5,6.7-12.4,6.7-22.3H336.7z"/>
			<path fill="#ff0000" d="M437.7,227.3h-52.1l-10.1,32h-30.1l51.1-148.4H427l50.9,148.4h-30.1L437.7,227.3z M392.9,203.9h37.4     L412,145.6h-0.6L392.9,203.9z"/>
			<path fill="#ff0000" d="M611.7,259.3H582l-59.9-101.4l-0.6,0.1v101.3h-29.8V110.9h29.8l59.9,101.3l0.6-0.1V110.9h29.7V259.3z"/>
		</g>
		<g>
			<path fill="#ff0000" d="M135.3,314.8l88.1,224.6h1.1l88.1-224.6h47.8v276.5h-37.4V481.9l3.8-112.4l-0.9-0.2l-89.6,222h-24.9     l-89.2-221.4l-0.9,0.2l3.6,111.8v109.4H87.5V314.8H135.3z"/>
			<path fill="#ff0000" d="M593.1,463.1H466.5v98.7h146v29.4H429.1V314.8h181.3v29.4H466.5v89.4h126.6V463.1z"/>
		</g>
	</g>
</g>
</svg></svg>

<path id="FrameBody" class="frame-color" d="M13.7,346.6h251.7c7.6,0,13.7-6.2,13.7-13.7V13.7c0-7.6-6.2-13.7-13.7-13.7H13.8C6.2,0,0.1,6.2,0,13.7
	v319.2C0,340.5,6.2,346.6,13.7,346.6z M10.6,17.9c0-4.1,3.3-7.4,7.4-7.4h243.2c4.1,0,7.4,3.3,7.4,7.4v243.3c0,4.1-3.3,7.4-7.4,7.4
	H18c-4.1,0-7.4-3.3-7.4-7.4V17.9z"/>

<path id="CallToAction" class="text-color" d="M54.9,320.2c4.6-0.1,7-1.7,7-5c0-2.7-1.5-4.2-4.6-4.8c-1.4-0.2-3-0.4-4.7-0.7
	c-3.1-0.5-5.4-1.6-7-3.4s-2.5-4-2.5-6.6c0-3.1,1-5.6,3.1-7.5c2-1.9,4.8-2.8,8.5-2.9c4.4,0.1,8.3,1.3,11.5,3.7l-3,4.4
	c-2.7-1.8-5.6-2.7-8.8-2.7c-1.7,0-3,0.4-4.2,1.2c-1.2,0.9-1.8,2.1-1.8,3.9c0,1,0.4,2,1.2,2.8s2.1,1.4,3.8,1.8c1,0.2,2.3,0.4,4,0.6
	c3.3,0.5,5.8,1.7,7.4,3.6s2.4,4.1,2.4,6.6c-0.2,6.8-4.3,10.3-12.5,10.4c-5.3,0-9.8-1.6-13.6-4.9l3.5-4.1
	C47.6,319,51,320.2,54.9,320.2z M96.9,315.4c-0.8,3.3-2.3,5.8-4.5,7.6c-2.3,1.8-4.9,2.6-8,2.6c-2.8-0.1-5.1-0.7-7-2.1
	c-1.9-1.3-3.3-2.7-4.2-4.3c-0.3-0.5-0.5-1-0.7-1.5s-0.4-1.1-0.5-1.9c-0.2-1.4-0.4-4.2-0.4-8.3c0-4.1,0.1-6.9,0.4-8.3
	s0.7-2.5,1.2-3.4c0.9-1.6,2.2-3.1,4.2-4.4c1.9-1.3,4.2-2,7-2c3.4,0,6.2,1,8.4,3.1c2.2,2,3.5,4.5,4.1,7.5h-5.7
	c-0.4-1.4-1.2-2.7-2.4-3.7s-2.7-1.5-4.4-1.5c-1.3,0-2.4,0.3-3.3,0.8s-1.7,1.1-2.2,1.8c-0.7,0.8-1.2,1.8-1.4,3
	c-0.3,1.3-0.4,3.7-0.4,7.2s0.1,5.9,0.4,7.1c0.2,1.2,0.7,2.2,1.4,3c0.6,0.7,1.3,1.3,2.2,1.8s2,0.8,3.3,0.8c3,0,5.3-1.6,6.8-4.9
	L96.9,315.4L96.9,315.4z M119.1,317.4h-13.5l-2.7,8h-5.7l12.9-35.6h4.5l12.9,35.6h-5.7L119.1,317.4z M117.4,312.6l-5.2-15.6h-0.1
	l-5.2,15.6H117.4z M131.2,289.7h5.1l16.1,25.3h0.1v-25.3h5.4v35.6h-5.1l-16-25.3h-0.1v25.3h-5.4v-35.6H131.2z M177.4,289.7h5.1
	l10.2,23.2l10-23.2h5.1v35.6h-5.4v-22.2h-0.1l-7.4,17.1h-4.5l-7.4-17.1h0v22.2h-5.4v-35.6H177.4z M215.3,289.7H238v5.1h-17.3V305
	h14.8v4.8h-14.8v10.4H238v5.1h-22.7V289.7z"/>
</svg>
