<?xml version="1.0" encoding="utf-8"?>
<!-- Generator: Adobe Illustrator 23.0.4, SVG Export Plug-In . SVG Version: 6.00 Build 0)  -->
<svg version="1.1" id="script-frame" xmlns="http://www.w3.org/2000/svg" xmlns:xlink="http://www.w3.org/1999/xlink" x="0px"
	 y="0px" viewBox="0 0 344 422.3" style="enable-background:new 0 0 344 422.3;" xml:space="preserve">
<style type="text/css">
	.frame-color{fill:#000000;}
	.background-color{fill:#ffffff;}
	.text-color{fill:#FFFFFF;}
	.outline{fill:#E6E6E6;}
</style>
	
<path id="CallToAction" class="frame-color" d="M45.9,387.4c-0.8,1.5-1.5,2.6-2.1,3.3c-1.3,1.8-3.1,3.6-5.4,5.6c-2.2,1.9-4.8,3.5-7.6,4.9
	c-2.8,1.3-5.9,2.1-9.2,2.4s-6.8-0.4-10.3-2c-3.6-1.5-6.3-3.1-7.9-4.6s-2.6-3-3.1-4.3c-0.6-1.5-0.6-2.9-0.1-4.3
	c2.1,2,4.3,3.7,6.7,4.9c2.4,1.2,4.9,2,7.4,2.2s5.1-0.1,7.5-1c2.5-0.9,4.8-2.5,7.1-4.7c2.2-2.2,3.9-4.6,5.1-7.2
	c1.2-2.5,2.1-4.9,2.6-7.1s0.8-4.1,0.9-5.7c0.1-1.6,0.1-2.7,0.1-3.1c0-0.3-0.1-0.6-0.3-0.7c-1.1,0.6-2.5,1.2-4.2,1.9
	c-1.7,0.7-3.5,1.4-5.4,2.1s-3.8,1.2-5.7,1.6s-3.6,0.5-5,0.3c-1.2-0.1-2.7-0.3-4.3-0.7c-1.7-0.4-3.3-1.1-4.9-2.1s-2.9-2.4-4-4.1
	s-1.8-4-1.9-6.7c-0.1-2.8,0.3-6.1,1.5-10.1c1.1-3.9,3.3-8.6,6.3-14.1c2.7-4.7,5.2-8.8,7.6-12.3s4.7-6.6,6.8-9.2s4.1-4.8,6-6.5
	c1.9-1.7,3.6-3.2,5.1-4.3c3.7-2.6,6.9-4,9.7-4.3c1.6-0.1,2.9,0,3.9,0.4s1.9,0.9,2.6,1.5c0.6,0.4,1.5,1.1,2.8,2.1s2.5,2.4,3.6,4
	c1.1,1.7,2,3.6,2.7,5.9c0.7,2.2,0.7,4.8,0,7.6c-0.7,2.8-2.1,5.9-4.4,9.2c-2.3,3.3-5.8,6.9-10.5,10.8c-2,0.7-3.9,1.1-5.7,1.1
	c-1.6,0-3.3-0.2-5-0.8c-1.7-0.6-3.3-1.8-4.6-3.7c5.1-3.6,9.5-7.2,13-10.9c1.5-1.5,2.9-3.2,4.1-5c1.2-1.8,2.2-3.5,2.9-5.3
	s1-3.5,1-5.3s-0.6-3.5-1.8-5.1c-1.1-0.2-2.2,0.1-3.4,0.7s-2.7,2-4.4,3.9c-1.7,2-3.8,4.8-6.4,8.5c-2.5,3.7-5.6,8.4-9.2,14.3
	c-3,4.9-5.2,9.2-6.8,13c-1.6,3.8-2.7,7.2-3.3,10.1c-0.6,2.9-0.8,5.4-0.6,7.5s0.5,3.8,1,5.2c1.2-0.6,2.6-1.5,4.4-2.5s3.7-1.9,5.8-2.7
	c2.1-0.8,4.2-1.4,6.3-1.8s4.1-0.5,5.9-0.1c0.2,0,0.2,0,0.2,0.1c0.4,0.1,0.8,0.2,1,0.3c0.3,0.1,0.6,0.3,0.9,0.4
	c2.5,1.1,4.4,2.5,5.6,4.2c1.2,1.7,2,3.5,2.4,5.5s0.4,4,0.1,6.1c-0.3,2.1-0.8,4.1-1.5,6C47.4,384.3,46.7,385.9,45.9,387.4z
	 M60.5,343.8c1.3-2.9,2.7-5.4,4.4-7.7c1.6-2.3,3.2-4.3,4.9-6.1c3.9-4.1,8.3-7.6,13.2-10.3c3.4,0.2,6,0.6,7.9,1.2s3.3,1.3,4.2,2.1
	c1.1,0.8,1.8,1.8,2,2.9c-4.6,1.7-8.8,4.1-12.5,7.3c-3.7,3.2-6.8,6.7-9.5,10.6c-2.6,3.9-4.8,7.9-6.4,12s-2.8,7.9-3.3,11.4
	c-0.6,3.5-0.7,6.4-0.2,8.8c0.4,2.4,1.3,3.8,2.8,4.2c1.3,0.4,2.7,0.4,4.2-0.1s2.9-1.2,4.4-2.2s3-2.2,4.4-3.6s2.8-2.9,4.2-4.4
	c2.4-2.9,4.9-6.1,7.4-9.8c0.7-3.3,1.8-6.8,3.2-10.4c1.9-4.5,3.9-8.8,6.2-12.8c2.3-4,4.5-7.5,6.7-10.5s4-5.1,5.2-6.2
	c2-1.6,4-2.5,6.2-2.6c2.1-0.2,4.1,0,5.9,0.5s3.4,1.2,4.8,2c1.3,0.8,2.2,1.3,2.6,1.6c0.4-0.9,0.8-1.7,1.2-2.4
	c0.4-0.7,0.6-1.2,0.9-1.6c0.3-0.5,0.5-1,0.8-1.4c0.3,0,0.7,0,1.2,0c0.4,0.1,0.9,0.1,1.6,0.3c0.7,0.1,1.5,0.3,2.4,0.4
	c1.4,0.3,2.5,0.6,3.2,0.9s1.3,0.6,1.7,0.8c0.4,0.3,0.8,0.6,1,0.8c-0.7,1-1.6,2.4-2.5,4.2c-0.9,1.5-1.9,3.5-3.1,6.1
	c-1.2,2.5-2.6,5.7-4.2,9.5c-1.7,3.8-3.3,7.8-4.9,12c-1.6,4.2-2.9,8.1-3.8,11.5c-0.9,3.5-1.4,6.3-1.4,8.5s0.8,3.2,2.4,3
	c0.7,0,1.5-0.4,2.4-1.1s1.8-1.6,2.7-2.6s1.8-2.2,2.7-3.5s1.8-2.6,2.7-4c0.7-1.1,1.4-2.3,2.1-3.5c0.1-0.5,0.1-1,0.2-1.5
	c0.5-3.3,1.2-6.7,2.3-10.2c1.1-3.4,2.3-6.8,3.7-10c3.2-7.5,7.3-15.3,12.3-23.2c2.7-0.1,4.8-0.1,6.2,0.1c1.4,0.1,2.5,0.4,3.1,0.8
	c0.7,0.4,1.1,0.8,1.2,1.4c-4.6,7.1-8.2,13.7-10.9,19.6s-4.7,11.1-6.2,15.6c-1.7,5.1-2.9,9.8-3.5,14c1.8-4.9,3.8-9.7,6.3-14.1
	c2.4-4.5,5-8.6,7.7-12.5s5.3-7.4,8-10.6c2.6-3.2,5.1-5.9,7.2-8.2c2.2-2.3,4-4.1,5.4-5.4s2.3-2.1,2.6-2.3c0.1-0.1,0.1-0.2,0.1-0.2
	c0.2,0.1,0.6,0.1,1.1,0.2c0.4,0.1,0.9,0.1,1.6,0.2c0.6,0.1,1.5,0.2,2.4,0.4c1.4,0.3,2.5,0.6,3.2,0.9s1.3,0.6,1.7,0.8
	c0.4,0.3,0.8,0.6,1,0.8c-0.7,1-1.6,2.4-2.5,4.2c-0.9,1.5-1.9,3.5-3.1,6.1c-1.2,2.5-2.6,5.8-4.2,9.6c-1.1,2.6-2.2,5.2-3.3,8
	s-2.1,5.5-3,8.1s-1.7,5.1-2.4,7.5c-0.6,2.3-1.1,4.4-1.3,6.1s-0.1,3.1,0.2,4.1s1.1,1.4,2.2,1.2c0.7,0,1.5-0.4,2.3-1.1
	s1.7-1.6,2.7-2.6c0.9-1,1.9-2.2,2.8-3.5c0.9-1.3,1.8-2.6,2.7-4c2-3.1,4-6.6,6.2-10.6l1.7,4c-2.7,5.2-5.4,9.6-8.2,13.2
	c-1.2,1.5-2.4,3-3.7,4.4s-2.6,2.6-3.9,3.5c-1.3,0.9-2.6,1.5-3.9,1.8c-1.3,0.2-2.6,0-3.7-0.7c-2.4-1.4-4.1-3.1-5.1-5.3
	c-1-2.2-1.5-4.4-1.6-6.8c-0.1-2.3,0.1-4.5,0.6-6.7c0.5-2.1,0.9-3.8,1.3-5.2c2.2-6.7,4.3-12.7,6.4-17.9c2-5,3.9-9.2,5.5-12.6
	c-3,3.1-5.8,6.3-8.3,9.5c-2.5,3.3-4.8,6.5-6.9,9.8c-2.1,3.2-4,6.4-5.7,9.6c-1.7,3.1-3.2,6.1-4.5,8.8c-3.1,6.6-5.6,13-7.5,19.2
	c-0.8,0.2-1.5,0.2-2.2,0.1c-0.7-0.2-1.3-0.4-1.9-0.7c-0.7-0.3-1.3-0.7-1.9-1.2c-1.5-2.5-2.3-5.2-2.7-8.3c0-0.3,0-0.7-0.1-1
	c-0.7,1.1-1.4,2.1-2.1,3c-1.2,1.6-2.4,3.1-3.7,4.5s-2.6,2.5-3.9,3.5c-1.3,0.9-2.7,1.5-4,1.8c-1.3,0.2-2.6,0-3.7-0.7
	c-1.5-0.9-2.7-2-3.7-3.3c-0.9-1.2-1.6-2.5-2.1-4c-0.5-1.4-0.7-2.9-0.8-4.4c-0.1-1.5,0-3,0.1-4.4c-2.7,5.4-5.2,9.4-7.4,12
	c-2.3,2.6-4.3,4.4-6,5.3c-2,1.1-3.8,1.5-5.4,1.1c-3.6-1.5-5.9-3.9-6.9-7.3c-0.7-2.2-1.1-4.7-1-7.3c-1.4,2.1-2.8,4-4.3,5.7
	c-2.9,3.4-5.9,6-8.9,7.8c-3,1.9-5.9,2.9-8.7,3.2c-2.8,0.3-5.3-0.2-7.4-1.4c-2.1-1.3-3.8-3.3-5-6.2c-1.2-2.9-1.7-6.6-1.5-11.2
	c0.1-4,0.6-7.7,1.5-11.1C58.2,349.8,59.2,346.7,60.5,343.8z M101.6,378c0.7,0.2,1.5-0.2,2.5-1.1s2.1-2.2,3.3-3.7
	c1.2-1.6,2.5-3.3,3.9-5.3s2.6-4,3.9-6.1c1.2-2.1,2.4-4,3.5-5.8s2-3.4,2.7-4.6c1.9-5.9,3.8-11.1,5.8-15.7c1.9-4.5,3.6-8.3,5-11.4
	c-1-0.3-2.3-0.3-3.8,0c-1.6,0.2-3.7,1.2-6.5,3c-1.8,1.2-3.6,3.2-5.5,6c-1.9,2.9-3.7,6.1-5.4,9.8c-1.7,3.7-3.3,7.5-4.8,11.5
	s-2.6,7.7-3.5,11.1s-1.4,6.2-1.7,8.5C100.6,376.6,100.9,377.8,101.6,378z M343.7,315.6c-0.2,1.7-0.7,3.5-1.3,5.4
	c-0.6,1.9-1.4,3.9-2.4,6s-2.1,3.9-3.3,5.6c-1.2,1.7-2.6,3-4,4.1c-1.5,1.1-3,1.6-4.6,1.5c-2.5,0-4.6-0.6-6.3-1.9
	c-1.7-1.3-3.1-2.7-4.1-4.1c-2,3.6-3.6,7.2-4.8,10.8c-1.2,3.6-1.9,6.8-2.3,9.8s-0.3,5.4,0.2,7.3s1.4,3.1,2.7,3.4
	c1.4,0.4,2.9,0.3,4.4-0.2c1.6-0.5,3.1-1.4,4.7-2.4c1.5-1.1,3.1-2.4,4.6-3.9s3-3.1,4.3-4.7c3.2-3.8,6.4-8.2,9.6-13.2l1.1,2.1
	c-2.5,4.9-5.2,9.2-8.2,12.7s-6.1,6.4-9.1,8.6c-3.1,2.1-6.1,3.5-9,4.1s-5.5,0.3-7.7-0.8c-2.2-1.1-4-3.2-5.2-6.1
	c-0.3-0.6-0.5-1.2-0.7-1.9c-0.3,0.4-0.5,0.7-0.8,1.1c-1.2,1.5-2.4,3-3.7,4.4c-1.3,1.4-2.6,2.6-3.9,3.5s-2.7,1.5-4,1.8
	c-1.3,0.2-2.6,0-3.7-0.7c-2.4-1.4-4.1-3.1-5.1-5.3c-1-2.2-1.5-4.4-1.6-6.8c-0.1-2.3,0.1-4.5,0.6-6.7c0.5-2.1,0.9-3.8,1.3-5.2
	c2.2-6.7,4.4-12.7,6.5-17.9c2.1-5.2,4-9.5,5.6-12.9l-0.2,0.3c-3,3.1-5.8,6.3-8.3,9.5c-2.5,3.3-4.8,6.5-6.9,9.8
	c-2.1,3.2-3.9,6.4-5.6,9.6c-1.7,3.1-3.2,6.1-4.5,8.8c-3.1,6.6-5.6,13-7.5,19.2c-0.8,0.2-1.5,0.2-2.2,0.1c-0.7-0.2-1.3-0.4-1.9-0.7
	c-0.7-0.3-1.3-0.7-1.9-1.2c-2.1-3.5-3.1-7.5-2.9-12c0.1-4.6,0.9-9.2,2.2-14s3-9.4,5-13.9s4-8.5,5.8-11.8
	c-5.7,6.1-10.5,12.4-14.5,18.8c-4,6.5-7.2,12.4-9.8,17.9c-2.9,6.4-5.3,12.6-7.2,18.6c-0.8,0.2-1.5,0.2-2.2,0.1
	c-0.7-0.2-1.3-0.4-1.9-0.7c-0.7-0.3-1.3-0.7-1.9-1.2c-1.5-2.5-2.3-5.2-2.7-8.3c-0.3-3.1-0.3-6.3,0.2-9.6c0.5-3.3,1.2-6.7,2.3-10.2
	c1.1-3.4,2.3-6.8,3.7-10c3.2-7.5,7.3-15.3,12.3-23.2c2.7-0.1,4.8-0.1,6.2,0.1c1.4,0.1,2.5,0.4,3.1,0.8c0.7,0.4,1.1,0.8,1.2,1.4
	c-4.6,7.1-8.2,13.7-10.9,19.6s-4.7,11.1-6.2,15.6c-1.7,5.1-2.9,9.8-3.5,14c2.7-7.7,6.1-14.7,10.3-21.2s8.3-12.1,12.3-16.9
	c4.6-5.5,9.5-10.6,14.7-15.1c2.7-0.1,4.8-0.1,6.2,0.1c1.4,0.1,2.5,0.4,3.1,0.8c0.7,0.4,1.1,0.8,1.2,1.4c-4.6,7.1-8.2,13.7-10.9,19.6
	c-2.7,5.9-4.7,11.1-6.2,15.6c-1.7,5.1-2.9,9.8-3.5,14c1.8-4.9,3.8-9.7,6.3-14.1c2.4-4.5,5-8.6,7.7-12.5s5.3-7.4,8-10.6
	c2.6-3.2,5-5.9,7.2-8.2c2.2-2.3,4-4.1,5.4-5.4s2.3-2.1,2.6-2.3c0.1-0.1,0.1-0.2,0.1-0.2c0.3,0.1,0.7,0.1,1.2,0.2
	c0.4,0.1,0.9,0.1,1.6,0.2c0.6,0.1,1.5,0.2,2.4,0.4c1.3,0.3,2.4,0.6,3.1,0.9c0.8,0.3,1.4,0.6,1.8,0.8c0.5,0.3,0.8,0.5,1,0.8
	c-0.7,1-1.5,2.4-2.5,4.2c-0.9,1.5-1.9,3.5-3.2,6.1c-1.3,2.5-2.7,5.8-4.3,9.6c-1.1,2.6-2.2,5.2-3.3,8c-1.1,2.8-2.1,5.5-3,8.1
	s-1.7,5.1-2.4,7.5c-0.6,2.3-1.1,4.4-1.3,6.1c-0.2,1.7-0.1,3.1,0.2,4.1c0.3,1,1.1,1.4,2.2,1.2c0.7,0,1.5-0.4,2.3-1.1s1.7-1.6,2.7-2.6
	c0.9-1,1.9-2.2,2.8-3.5c0.8-1.2,1.6-2.4,2.4-3.6c-0.1-1.5-0.1-3,0-4.7c0.1-4,0.6-7.7,1.5-11.1s1.9-6.5,3.2-9.4
	c1.3-2.9,2.7-5.5,4.4-7.8c1.6-2.3,3.2-4.4,4.9-6.2c3.9-4.2,8.3-7.6,13.2-10.3c4.3,0.3,7.4,0.9,9.4,1.8c2,1,3.3,1.8,4,2.7
	c0.4,0.5,0.8,1,1.2,1.7c0.4,0.7,0.7,1.6,0.9,2.6C344,312.7,344,313.9,343.7,315.6z M333.1,314.3c-2.9,2-5.6,4.4-8,7.2
	c-2.4,2.7-4.5,5.6-6.3,8.5c0.4,0.5,1,1,1.8,1.4s1.9,0.7,3.3,0.9c0.8,0.1,1.7-0.5,2.5-1.7c0.9-1.2,1.7-2.8,2.5-4.6
	c0.8-1.8,1.6-3.8,2.3-5.9C331.9,318,332.5,316,333.1,314.3z M52.6,409.6c-6.3,6.3-8.3,12.7-8.3,12.7
	c114.7-29.4,277.6-28.4,277.6-28.4l1.6-3C187.3,385.5,57.3,404.9,52.6,409.6z"/>
<path id="WhiteBackground" class="background-color" d="M297.8,1H46.1c-7.6,0-13.7,6.2-13.7,13.7v251.7c0,7.6,6.2,13.7,13.7,13.7h251.6
	c7.6,0,13.7-6.2,13.8-13.7V14.7C311.5,7.1,305.3,1,297.8,1z"/>
<path id="Outline" class="outline" d="M297.7,281.1H46.1c-8.1,0-14.7-6.6-14.7-14.7V14.7C31.4,6.6,38,0,46.1,0h251.7
	c8.1,0,14.7,6.6,14.7,14.7v251.7C312.4,274.5,305.8,281.1,297.7,281.1z M46.1,2c-7,0-12.7,5.7-12.7,12.7v251.7
	c0,7,5.7,12.7,12.7,12.7h251.6c7,0,12.7-5.7,12.8-12.7V14.7c0-7-5.7-12.7-12.7-12.7H46.1z"/>

<svg xmlns="http://www.w3.org/2000/svg" xmlns:xlink="http://www.w3.org/1999/xlink" version="1.1" width="267.7" height="267.7" viewBox="0 0 2000 2000" x="38.2" y="6.7" shape-rendering="crispEdges"><defs/><rect x="0" y="0" width="2000" height="2000" fill="#ffffff"/><svg viewBox="0 0 4 4" x="889" y="223" width="74" height="74" shape-rendering="auto"><path fill="#000000" d="M3.15,4A0.85,0.85,0,0,0,4,3.15V4Z"/></svg><svg viewBox="0 0 4 4" x="963" y="223" width="74" height="74" shape-rendering="auto"><path fill="#000000" d="M0.85,0A0.85,0.85,0,0,0,0,0.85V4H4V0H0.85Z"/></svg><svg viewBox="0 0 4 4" x="1037" y="223" width="74" height="74" shape-rendering="auto"><rect fill="#000000" width="4" height="4"/></svg><svg viewBox="0 0 4 4" x="1111" y="223" width="74" height="74" shape-rendering="auto"><path fill="#000000" d="M3.15,0A0.85,0.85,0,0,1,4,0.85V4H0V0H3.15Z"/></svg><svg viewBox="0 0 4 4" x="815" y="297" width="74" height="74" shape-rendering="auto"><path fill="#000000" d="M3.15,0H0.85A0.85,0.85,0,0,0,0,0.85v2.3A0.85,0.85,0,0,0,0.85,4H4V0Z"/></svg><svg viewBox="0 0 4 4" x="889" y="297" width="74" height="74" shape-rendering="auto"><rect fill="#000000" width="4" height="4"/></svg><svg viewBox="0 0 4 4" x="963" y="297" width="74" height="74" shape-rendering="auto"><rect fill="#000000" width="4" height="4"/></svg><svg viewBox="0 0 4 4" x="1037" y="297" width="74" height="74" shape-rendering="auto"><path fill="#000000" d="M0.85,0H0V0.85A0.85,0.85,0,0,1,0.85,0Z"/></svg><svg viewBox="0 0 4 4" x="1037" y="297" width="74" height="74" shape-rendering="auto"><path fill="#000000" d="M4,0.85V0H3.15A0.85,0.85,0,0,1,4,0.85Z"/></svg><svg viewBox="0 0 4 4" x="1037" y="297" width="74" height="74" shape-rendering="auto"><path fill="#000000" d="M3.15,4A0.85,0.85,0,0,0,4,3.15V4Z"/></svg><svg viewBox="0 0 4 4" x="1037" y="297" width="74" height="74" shape-rendering="auto"><path fill="#000000" d="M0.85,4A0.85,0.85,0,0,1,0,3.15V4Z"/></svg><svg viewBox="0 0 4 4" x="1111" y="297" width="74" height="74" shape-rendering="auto"><rect fill="#000000" width="4" height="4"/></svg><svg viewBox="0 0 4 4" x="889" y="371" width="74" height="74" shape-rendering="auto"><path fill="#000000" d="M4,0.85V0H3.15A0.85,0.85,0,0,1,4,0.85Z"/></svg><svg viewBox="0 0 4 4" x="963" y="371" width="74" height="74" shape-rendering="auto"><path fill="#000000" d="M0,3.15A0.85,0.85,0,0,0,0.85,4H4V0H0V3.15Z"/></svg><svg viewBox="0 0 4 4" x="1037" y="371" width="74" height="74" shape-rendering="auto"><rect fill="#000000" width="4" height="4"/></svg><svg viewBox="0 0 4 4" x="1111" y="371" width="74" height="74" shape-rendering="auto"><rect fill="#000000" width="4" height="4"/></svg><svg viewBox="0 0 4 4" x="815" y="445" width="74" height="74" shape-rendering="auto"><path fill="#000000" d="M3.15,0H0.85A0.85,0.85,0,0,0,0,0.85v2.3A0.85,0.85,0,0,0,0.85,4H4V0Z"/></svg><svg viewBox="0 0 4 4" x="889" y="445" width="74" height="74" shape-rendering="auto"><path fill="#000000" d="M3.15,0A0.85,0.85,0,0,1,4,0.85V4H0V0H3.15Z"/></svg><svg viewBox="0 0 4 4" x="1037" y="445" width="74" height="74" shape-rendering="auto"><path fill="#000000" d="M4,0.85V0H3.15A0.85,0.85,0,0,1,4,0.85Z"/></svg><svg viewBox="0 0 4 4" x="1111" y="445" width="74" height="74" shape-rendering="auto"><rect fill="#000000" width="4" height="4"/></svg><svg viewBox="0 0 4 4" x="815" y="519" width="74" height="74" shape-rendering="auto"><path fill="#000000" d="M4,0.85V0H3.15A0.85,0.85,0,0,1,4,0.85Z"/></svg><svg viewBox="0 0 4 4" x="889" y="519" width="74" height="74" shape-rendering="auto"><path fill="#000000" d="M0,3.15A0.85,0.85,0,0,0,0.85,4h2.3A0.85,0.85,0,0,0,4,3.15V0H0V3.15Z"/></svg><svg viewBox="0 0 4 4" x="1111" y="519" width="74" height="74" shape-rendering="auto"><path fill="#000000" d="M0,3.15A0.85,0.85,0,0,0,0.85,4h2.3A0.85,0.85,0,0,0,4,3.15V0H0V3.15Z"/></svg><svg viewBox="0 0 4 4" x="815" y="593" width="74" height="74" shape-rendering="auto"><path fill="#000000" d="M4,3.15V0.85A0.85,0.85,0,0,0,3.15,0H0.85A0.85,0.85,0,0,0,0,0.85V4H4Z"/></svg><svg viewBox="0 0 4 4" x="1037" y="593" width="74" height="74" shape-rendering="auto"><rect fill="#000000" width="4" height="4" rx="0.85"/></svg><svg viewBox="0 0 4 4" x="815" y="667" width="74" height="74" shape-rendering="auto"><path fill="#000000" d="M0,3.15A0.85,0.85,0,0,0,0.85,4h2.3A0.85,0.85,0,0,0,4,3.15V0H0V3.15Z"/></svg><svg viewBox="0 0 4 4" x="963" y="667" width="74" height="74" shape-rendering="auto"><rect fill="#000000" width="4" height="4" rx="0.85"/></svg><svg viewBox="0 0 4 4" x="1111" y="667" width="74" height="74" shape-rendering="auto"><rect fill="#000000" width="4" height="4" rx="0.85"/></svg><svg viewBox="0 0 4 4" x="889" y="741" width="74" height="74" shape-rendering="auto"><rect fill="#000000" width="4" height="4" rx="0.85"/></svg><svg viewBox="0 0 4 4" x="223" y="815" width="74" height="74" shape-rendering="auto"><path fill="#000000" d="M3.15,0H0.85A0.85,0.85,0,0,0,0,0.85v2.3A0.85,0.85,0,0,0,0.85,4H4V0Z"/></svg><svg viewBox="0 0 4 4" x="297" y="815" width="74" height="74" shape-rendering="auto"><rect fill="#000000" width="4" height="4"/></svg><svg viewBox="0 0 4 4" x="371" y="815" width="74" height="74" shape-rendering="auto"><rect fill="#000000" width="4" height="4"/></svg><svg viewBox="0 0 4 4" x="445" y="815" width="74" height="74" shape-rendering="auto"><rect fill="#000000" width="4" height="4"/></svg><svg viewBox="0 0 4 4" x="519" y="815" width="74" height="74" shape-rendering="auto"><path fill="#000000" d="M0.85,4h2.3A0.85,0.85,0,0,0,4,3.15V0.85A0.85,0.85,0,0,0,3.15,0H0V4Z"/></svg><svg viewBox="0 0 4 4" x="667" y="815" width="74" height="74" shape-rendering="auto"><path fill="#000000" d="M3.15,0H0.85A0.85,0.85,0,0,0,0,0.85v2.3A0.85,0.85,0,0,0,0.85,4H4V0Z"/></svg><svg viewBox="0 0 4 4" x="741" y="815" width="74" height="74" shape-rendering="auto"><rect fill="#000000" width="4" height="4"/></svg><svg viewBox="0 0 4 4" x="815" y="815" width="74" height="74" shape-rendering="auto"><path fill="#000000" d="M3.15,0A0.85,0.85,0,0,1,4,0.85V4H0V0H3.15Z"/></svg><svg viewBox="0 0 4 4" x="1037" y="815" width="74" height="74" shape-rendering="auto"><rect fill="#000000" width="4" height="4" rx="0.85"/></svg><svg viewBox="0 0 4 4" x="1111" y="815" width="74" height="74" shape-rendering="auto"><path fill="#000000" d="M3.15,4A0.85,0.85,0,0,0,4,3.15V4Z"/></svg><svg viewBox="0 0 4 4" x="1185" y="815" width="74" height="74" shape-rendering="auto"><path fill="#000000" d="M4,3.15V0.85A0.85,0.85,0,0,0,3.15,0H0.85A0.85,0.85,0,0,0,0,0.85V4H4Z"/></svg><svg viewBox="0 0 4 4" x="1333" y="815" width="74" height="74" shape-rendering="auto"><path fill="#000000" d="M4,3.15V0.85A0.85,0.85,0,0,0,3.15,0H0.85A0.85,0.85,0,0,0,0,0.85V4H4Z"/></svg><svg viewBox="0 0 4 4" x="1481" y="815" width="74" height="74" shape-rendering="auto"><path fill="#000000" d="M4,3.15V0.85A0.85,0.85,0,0,0,3.15,0H0.85A0.85,0.85,0,0,0,0,0.85V4H4Z"/></svg><svg viewBox="0 0 4 4" x="1555" y="815" width="74" height="74" shape-rendering="auto"><path fill="#000000" d="M3.15,4A0.85,0.85,0,0,0,4,3.15V4Z"/></svg><svg viewBox="0 0 4 4" x="1555" y="815" width="74" height="74" shape-rendering="auto"><path fill="#000000" d="M0.85,4A0.85,0.85,0,0,1,0,3.15V4Z"/></svg><svg viewBox="0 0 4 4" x="1629" y="815" width="74" height="74" shape-rendering="auto"><path fill="#000000" d="M4,3.15V0.85A0.85,0.85,0,0,0,3.15,0H0.85A0.85,0.85,0,0,0,0,0.85V4H4Z"/></svg><svg viewBox="0 0 4 4" x="1703" y="815" width="74" height="74" shape-rendering="auto"><path fill="#000000" d="M0.85,4A0.85,0.85,0,0,1,0,3.15V4Z"/></svg><svg viewBox="0 0 4 4" x="223" y="889" width="74" height="74" shape-rendering="auto"><path fill="#000000" d="M4,0.85V0H3.15A0.85,0.85,0,0,1,4,0.85Z"/></svg><svg viewBox="0 0 4 4" x="223" y="889" width="74" height="74" shape-rendering="auto"><path fill="#000000" d="M3.15,4A0.85,0.85,0,0,0,4,3.15V4Z"/></svg><svg viewBox="0 0 4 4" x="297" y="889" width="74" height="74" shape-rendering="auto"><rect fill="#000000" width="4" height="4"/></svg><svg viewBox="0 0 4 4" x="371" y="889" width="74" height="74" shape-rendering="auto"><rect fill="#000000" width="4" height="4"/></svg><svg viewBox="0 0 4 4" x="445" y="889" width="74" height="74" shape-rendering="auto"><path fill="#000000" d="M0.85,0H0V0.85A0.85,0.85,0,0,1,0.85,0Z"/></svg><svg viewBox="0 0 4 4" x="445" y="889" width="74" height="74" shape-rendering="auto"><path fill="#000000" d="M0.85,4A0.85,0.85,0,0,1,0,3.15V4Z"/></svg><svg viewBox="0 0 4 4" x="667" y="889" width="74" height="74" shape-rendering="auto"><path fill="#000000" d="M4,0.85V0H3.15A0.85,0.85,0,0,1,4,0.85Z"/></svg><svg viewBox="0 0 4 4" x="667" y="889" width="74" height="74" shape-rendering="auto"><path fill="#000000" d="M3.15,4A0.85,0.85,0,0,0,4,3.15V4Z"/></svg><svg viewBox="0 0 4 4" x="741" y="889" width="74" height="74" shape-rendering="auto"><rect fill="#000000" width="4" height="4"/></svg><svg viewBox="0 0 4 4" x="815" y="889" width="74" height="74" shape-rendering="auto"><path fill="#000000" d="M4,3.15A0.85,0.85,0,0,1,3.15,4H0V0H4V3.15Z"/></svg><svg viewBox="0 0 4 4" x="1111" y="889" width="74" height="74" shape-rendering="auto"><path fill="#000000" d="M0.85,0A0.85,0.85,0,0,0,0,0.85V4H4V0H0.85Z"/></svg><svg viewBox="0 0 4 4" x="1185" y="889" width="74" height="74" shape-rendering="auto"><rect fill="#000000" width="4" height="4"/></svg><svg viewBox="0 0 4 4" x="1259" y="889" width="74" height="74" shape-rendering="auto"><path fill="#000000" d="M3.15,4A0.85,0.85,0,0,0,4,3.15V4Z"/></svg><svg viewBox="0 0 4 4" x="1259" y="889" width="74" height="74" shape-rendering="auto"><path fill="#000000" d="M0.85,4A0.85,0.85,0,0,1,0,3.15V4Z"/></svg><svg viewBox="0 0 4 4" x="1333" y="889" width="74" height="74" shape-rendering="auto"><rect fill="#000000" width="4" height="4"/></svg><svg viewBox="0 0 4 4" x="1481" y="889" width="74" height="74" shape-rendering="auto"><path fill="#000000" d="M0,3.15A0.85,0.85,0,0,0,0.85,4H4V0H0V3.15Z"/></svg><svg viewBox="0 0 4 4" x="1555" y="889" width="74" height="74" shape-rendering="auto"><rect fill="#000000" width="4" height="4"/></svg><svg viewBox="0 0 4 4" x="1629" y="889" width="74" height="74" shape-rendering="auto"><rect fill="#000000" width="4" height="4"/></svg><svg viewBox="0 0 4 4" x="1703" y="889" width="74" height="74" shape-rendering="auto"><path fill="#000000" d="M3.15,0A0.85,0.85,0,0,1,4,0.85V4H0V0H3.15Z"/></svg><svg viewBox="0 0 4 4" x="223" y="963" width="74" height="74" shape-rendering="auto"><path fill="#000000" d="M0.85,0A0.85,0.85,0,0,0,0,0.85V4H4V0H0.85Z"/></svg><svg viewBox="0 0 4 4" x="297" y="963" width="74" height="74" shape-rendering="auto"><rect fill="#000000" width="4" height="4"/></svg><svg viewBox="0 0 4 4" x="371" y="963" width="74" height="74" shape-rendering="auto"><rect fill="#000000" width="4" height="4"/></svg><svg viewBox="0 0 4 4" x="445" y="963" width="74" height="74" shape-rendering="auto"><rect fill="#000000" width="4" height="4"/></svg><svg viewBox="0 0 4 4" x="519" y="963" width="74" height="74" shape-rendering="auto"><rect fill="#000000" width="4" height="4"/></svg><svg viewBox="0 0 4 4" x="593" y="963" width="74" height="74" shape-rendering="auto"><rect fill="#000000" width="4" height="4"/></svg><svg viewBox="0 0 4 4" x="667" y="963" width="74" height="74" shape-rendering="auto"><rect fill="#000000" width="4" height="4"/></svg><svg viewBox="0 0 4 4" x="741" y="963" width="74" height="74" shape-rendering="auto"><rect fill="#000000" width="4" height="4"/></svg><svg viewBox="0 0 4 4" x="815" y="963" width="74" height="74" shape-rendering="auto"><path fill="#000000" d="M0.85,0H0V0.85A0.85,0.85,0,0,1,0.85,0Z"/></svg><svg viewBox="0 0 4 4" x="1111" y="963" width="74" height="74" shape-rendering="auto"><rect fill="#000000" width="4" height="4"/></svg><svg viewBox="0 0 4 4" x="1185" y="963" width="74" height="74" shape-rendering="auto"><rect fill="#000000" width="4" height="4"/></svg><svg viewBox="0 0 4 4" x="1259" y="963" width="74" height="74" shape-rendering="auto"><rect fill="#000000" width="4" height="4"/></svg><svg viewBox="0 0 4 4" x="1333" y="963" width="74" height="74" shape-rendering="auto"><rect fill="#000000" width="4" height="4"/></svg><svg viewBox="0 0 4 4" x="1407" y="963" width="74" height="74" shape-rendering="auto"><path fill="#000000" d="M0.85,4A0.85,0.85,0,0,1,0,3.15V4Z"/></svg><svg viewBox="0 0 4 4" x="1629" y="963" width="74" height="74" shape-rendering="auto"><path fill="#000000" d="M4,0.85V0H3.15A0.85,0.85,0,0,1,4,0.85Z"/></svg><svg viewBox="0 0 4 4" x="1703" y="963" width="74" height="74" shape-rendering="auto"><path fill="#000000" d="M0,3.15A0.85,0.85,0,0,0,0.85,4h2.3A0.85,0.85,0,0,0,4,3.15V0H0V3.15Z"/></svg><svg viewBox="0 0 4 4" x="223" y="1037" width="74" height="74" shape-rendering="auto"><rect fill="#000000" width="4" height="4"/></svg><svg viewBox="0 0 4 4" x="297" y="1037" width="74" height="74" shape-rendering="auto"><path fill="#000000" d="M0.85,0H0V0.85A0.85,0.85,0,0,1,0.85,0Z"/></svg><svg viewBox="0 0 4 4" x="297" y="1037" width="74" height="74" shape-rendering="auto"><path fill="#000000" d="M4,0.85V0H3.15A0.85,0.85,0,0,1,4,0.85Z"/></svg><svg viewBox="0 0 4 4" x="371" y="1037" width="74" height="74" shape-rendering="auto"><rect fill="#000000" width="4" height="4"/></svg><svg viewBox="0 0 4 4" x="445" y="1037" width="74" height="74" shape-rendering="auto"><path fill="#000000" d="M0.85,0H0V0.85A0.85,0.85,0,0,1,0.85,0Z"/></svg><svg viewBox="0 0 4 4" x="445" y="1037" width="74" height="74" shape-rendering="auto"><path fill="#000000" d="M0.85,4A0.85,0.85,0,0,1,0,3.15V4Z"/></svg><svg viewBox="0 0 4 4" x="667" y="1037" width="74" height="74" shape-rendering="auto"><path fill="#000000" d="M4,0.85V0H3.15A0.85,0.85,0,0,1,4,0.85Z"/></svg><svg viewBox="0 0 4 4" x="667" y="1037" width="74" height="74" shape-rendering="auto"><path fill="#000000" d="M3.15,4A0.85,0.85,0,0,0,4,3.15V4Z"/></svg><svg viewBox="0 0 4 4" x="741" y="1037" width="74" height="74" shape-rendering="auto"><rect fill="#000000" width="4" height="4"/></svg><svg viewBox="0 0 4 4" x="889" y="1037" width="74" height="74" shape-rendering="auto"><path fill="#000000" d="M3.15,0H0.85A0.85,0.85,0,0,0,0,0.85v2.3A0.85,0.85,0,0,0,0.85,4H4V0Z"/></svg><svg viewBox="0 0 4 4" x="963" y="1037" width="74" height="74" shape-rendering="auto"><path fill="#000000" d="M3.15,0A0.85,0.85,0,0,1,4,0.85V4H0V0H3.15Z"/></svg><svg viewBox="0 0 4 4" x="1111" y="1037" width="74" height="74" shape-rendering="auto"><rect fill="#000000" width="4" height="4"/></svg><svg viewBox="0 0 4 4" x="1185" y="1037" width="74" height="74" shape-rendering="auto"><rect fill="#000000" width="4" height="4"/></svg><svg viewBox="0 0 4 4" x="1259" y="1037" width="74" height="74" shape-rendering="auto"><path fill="#000000" d="M0.85,0H0V0.85A0.85,0.85,0,0,1,0.85,0Z"/></svg><svg viewBox="0 0 4 4" x="1259" y="1037" width="74" height="74" shape-rendering="auto"><path fill="#000000" d="M4,0.85V0H3.15A0.85,0.85,0,0,1,4,0.85Z"/></svg><svg viewBox="0 0 4 4" x="1259" y="1037" width="74" height="74" shape-rendering="auto"><path fill="#000000" d="M3.15,4A0.85,0.85,0,0,0,4,3.15V4Z"/></svg><svg viewBox="0 0 4 4" x="1259" y="1037" width="74" height="74" shape-rendering="auto"><path fill="#000000" d="M0.85,4A0.85,0.85,0,0,1,0,3.15V4Z"/></svg><svg viewBox="0 0 4 4" x="1333" y="1037" width="74" height="74" shape-rendering="auto"><rect fill="#000000" width="4" height="4"/></svg><svg viewBox="0 0 4 4" x="1407" y="1037" width="74" height="74" shape-rendering="auto"><path fill="#000000" d="M0.85,4h2.3A0.85,0.85,0,0,0,4,3.15V0.85A0.85,0.85,0,0,0,3.15,0H0V4Z"/></svg><svg viewBox="0 0 4 4" x="223" y="1111" width="74" height="74" shape-rendering="auto"><path fill="#000000" d="M0,3.15A0.85,0.85,0,0,0,0.85,4h2.3A0.85,0.85,0,0,0,4,3.15V0H0V3.15Z"/></svg><svg viewBox="0 0 4 4" x="371" y="1111" width="74" height="74" shape-rendering="auto"><path fill="#000000" d="M0,3.15A0.85,0.85,0,0,0,0.85,4H4V0H0V3.15Z"/></svg><svg viewBox="0 0 4 4" x="445" y="1111" width="74" height="74" shape-rendering="auto"><path fill="#000000" d="M0.85,4h2.3A0.85,0.85,0,0,0,4,3.15V0.85A0.85,0.85,0,0,0,3.15,0H0V4Z"/></svg><svg viewBox="0 0 4 4" x="667" y="1111" width="74" height="74" shape-rendering="auto"><path fill="#000000" d="M3.15,0H0.85A0.85,0.85,0,0,0,0,0.85v2.3A0.85,0.85,0,0,0,0.85,4H4V0Z"/></svg><svg viewBox="0 0 4 4" x="741" y="1111" width="74" height="74" shape-rendering="auto"><path fill="#000000" d="M4,3.15A0.85,0.85,0,0,1,3.15,4H0V0H4V3.15Z"/></svg><svg viewBox="0 0 4 4" x="889" y="1111" width="74" height="74" shape-rendering="auto"><path fill="#000000" d="M4,0.85V0H3.15A0.85,0.85,0,0,1,4,0.85Z"/></svg><svg viewBox="0 0 4 4" x="889" y="1111" width="74" height="74" shape-rendering="auto"><path fill="#000000" d="M3.15,4A0.85,0.85,0,0,0,4,3.15V4Z"/></svg><svg viewBox="0 0 4 4" x="963" y="1111" width="74" height="74" shape-rendering="auto"><rect fill="#000000" width="4" height="4"/></svg><svg viewBox="0 0 4 4" x="1111" y="1111" width="74" height="74" shape-rendering="auto"><rect fill="#000000" width="4" height="4"/></svg><svg viewBox="0 0 4 4" x="1185" y="1111" width="74" height="74" shape-rendering="auto"><rect fill="#000000" width="4" height="4"/></svg><svg viewBox="0 0 4 4" x="1259" y="1111" width="74" height="74" shape-rendering="auto"><rect fill="#000000" width="4" height="4"/></svg><svg viewBox="0 0 4 4" x="1333" y="1111" width="74" height="74" shape-rendering="auto"><path fill="#000000" d="M4,3.15A0.85,0.85,0,0,1,3.15,4H0V0H4V3.15Z"/></svg><svg viewBox="0 0 4 4" x="1407" y="1111" width="74" height="74" shape-rendering="auto"><path fill="#000000" d="M0.85,0H0V0.85A0.85,0.85,0,0,1,0.85,0Z"/></svg><svg viewBox="0 0 4 4" x="1481" y="1111" width="74" height="74" shape-rendering="auto"><path fill="#000000" d="M3.15,4A0.85,0.85,0,0,0,4,3.15V4Z"/></svg><svg viewBox="0 0 4 4" x="1555" y="1111" width="74" height="74" shape-rendering="auto"><path fill="#000000" d="M4,3.15V0.85A0.85,0.85,0,0,0,3.15,0H0.85A0.85,0.85,0,0,0,0,0.85V4H4Z"/></svg><svg viewBox="0 0 4 4" x="815" y="1185" width="74" height="74" shape-rendering="auto"><path fill="#000000" d="M0.85,0A0.85,0.85,0,0,0,0,0.85V4H4V0H0.85Z"/></svg><svg viewBox="0 0 4 4" x="889" y="1185" width="74" height="74" shape-rendering="auto"><rect fill="#000000" width="4" height="4"/></svg><svg viewBox="0 0 4 4" x="963" y="1185" width="74" height="74" shape-rendering="auto"><rect fill="#000000" width="4" height="4"/></svg><svg viewBox="0 0 4 4" x="1037" y="1185" width="74" height="74" shape-rendering="auto"><path fill="#000000" d="M3.15,4A0.85,0.85,0,0,0,4,3.15V4Z"/></svg><svg viewBox="0 0 4 4" x="1037" y="1185" width="74" height="74" shape-rendering="auto"><path fill="#000000" d="M0.85,4A0.85,0.85,0,0,1,0,3.15V4Z"/></svg><svg viewBox="0 0 4 4" x="1111" y="1185" width="74" height="74" shape-rendering="auto"><rect fill="#000000" width="4" height="4"/></svg><svg viewBox="0 0 4 4" x="1185" y="1185" width="74" height="74" shape-rendering="auto"><path fill="#000000" d="M4,3.15A0.85,0.85,0,0,1,3.15,4H0V0H4V3.15Z"/></svg><svg viewBox="0 0 4 4" x="1259" y="1185" width="74" height="74" shape-rendering="auto"><path fill="#000000" d="M0.85,0H0V0.85A0.85,0.85,0,0,1,0.85,0Z"/></svg><svg viewBox="0 0 4 4" x="1407" y="1185" width="74" height="74" shape-rendering="auto"><path fill="#000000" d="M0.85,0A0.85,0.85,0,0,0,0,0.85V4H4V0H0.85Z"/></svg><svg viewBox="0 0 4 4" x="1481" y="1185" width="74" height="74" shape-rendering="auto"><rect fill="#000000" width="4" height="4"/></svg><svg viewBox="0 0 4 4" x="1555" y="1185" width="74" height="74" shape-rendering="auto"><path fill="#000000" d="M4,3.15A0.85,0.85,0,0,1,3.15,4H0V0H4V3.15Z"/></svg><svg viewBox="0 0 4 4" x="815" y="1259" width="74" height="74" shape-rendering="auto"><path fill="#000000" d="M0,3.15A0.85,0.85,0,0,0,0.85,4h2.3A0.85,0.85,0,0,0,4,3.15V0H0V3.15Z"/></svg><svg viewBox="0 0 4 4" x="889" y="1259" width="74" height="74" shape-rendering="auto"><path fill="#000000" d="M0.85,0H0V0.85A0.85,0.85,0,0,1,0.85,0Z"/></svg><svg viewBox="0 0 4 4" x="889" y="1259" width="74" height="74" shape-rendering="auto"><path fill="#000000" d="M4,0.85V0H3.15A0.85,0.85,0,0,1,4,0.85Z"/></svg><svg viewBox="0 0 4 4" x="963" y="1259" width="74" height="74" shape-rendering="auto"><path fill="#000000" d="M0,3.15A0.85,0.85,0,0,0,0.85,4H4V0H0V3.15Z"/></svg><svg viewBox="0 0 4 4" x="1037" y="1259" width="74" height="74" shape-rendering="auto"><rect fill="#000000" width="4" height="4"/></svg><svg viewBox="0 0 4 4" x="1111" y="1259" width="74" height="74" shape-rendering="auto"><path fill="#000000" d="M4,3.15A0.85,0.85,0,0,1,3.15,4H0V0H4V3.15Z"/></svg><svg viewBox="0 0 4 4" x="1185" y="1259" width="74" height="74" shape-rendering="auto"><path fill="#000000" d="M0.85,0H0V0.85A0.85,0.85,0,0,1,0.85,0Z"/></svg><svg viewBox="0 0 4 4" x="1185" y="1259" width="74" height="74" shape-rendering="auto"><path fill="#000000" d="M3.15,4A0.85,0.85,0,0,0,4,3.15V4Z"/></svg><svg viewBox="0 0 4 4" x="1259" y="1259" width="74" height="74" shape-rendering="auto"><path fill="#000000" d="M4,3.15V0.85A0.85,0.85,0,0,0,3.15,0H0.85A0.85,0.85,0,0,0,0,0.85V4H4Z"/></svg><svg viewBox="0 0 4 4" x="1333" y="1259" width="74" height="74" shape-rendering="auto"><path fill="#000000" d="M3.15,4A0.85,0.85,0,0,0,4,3.15V4Z"/></svg><svg viewBox="0 0 4 4" x="1333" y="1259" width="74" height="74" shape-rendering="auto"><path fill="#000000" d="M0.85,4A0.85,0.85,0,0,1,0,3.15V4Z"/></svg><svg viewBox="0 0 4 4" x="1407" y="1259" width="74" height="74" shape-rendering="auto"><rect fill="#000000" width="4" height="4"/></svg><svg viewBox="0 0 4 4" x="1481" y="1259" width="74" height="74" shape-rendering="auto"><path fill="#000000" d="M0.85,0H0V0.85A0.85,0.85,0,0,1,0.85,0Z"/></svg><svg viewBox="0 0 4 4" x="1481" y="1259" width="74" height="74" shape-rendering="auto"><path fill="#000000" d="M0.85,4A0.85,0.85,0,0,1,0,3.15V4Z"/></svg><svg viewBox="0 0 4 4" x="1629" y="1259" width="74" height="74" shape-rendering="auto"><rect fill="#000000" width="4" height="4" rx="0.85"/></svg><svg viewBox="0 0 4 4" x="815" y="1333" width="74" height="74" shape-rendering="auto"><path fill="#000000" d="M3.15,4A0.85,0.85,0,0,0,4,3.15V4Z"/></svg><svg viewBox="0 0 4 4" x="889" y="1333" width="74" height="74" shape-rendering="auto"><path fill="#000000" d="M4,3.15V0.85A0.85,0.85,0,0,0,3.15,0H0.85A0.85,0.85,0,0,0,0,0.85V4H4Z"/></svg><svg viewBox="0 0 4 4" x="1111" y="1333" width="74" height="74" shape-rendering="auto"><path fill="#000000" d="M3.15,4A0.85,0.85,0,0,0,4,3.15V4Z"/></svg><svg viewBox="0 0 4 4" x="1185" y="1333" width="74" height="74" shape-rendering="auto"><path fill="#000000" d="M0.85,0A0.85,0.85,0,0,0,0,0.85V4H4V0H0.85Z"/></svg><svg viewBox="0 0 4 4" x="1259" y="1333" width="74" height="74" shape-rendering="auto"><rect fill="#000000" width="4" height="4"/></svg><svg viewBox="0 0 4 4" x="1333" y="1333" width="74" height="74" shape-rendering="auto"><rect fill="#000000" width="4" height="4"/></svg><svg viewBox="0 0 4 4" x="1407" y="1333" width="74" height="74" shape-rendering="auto"><rect fill="#000000" width="4" height="4"/></svg><svg viewBox="0 0 4 4" x="1481" y="1333" width="74" height="74" shape-rendering="auto"><rect fill="#000000" width="4" height="4"/></svg><svg viewBox="0 0 4 4" x="1555" y="1333" width="74" height="74" shape-rendering="auto"><path fill="#000000" d="M3.15,0A0.85,0.85,0,0,1,4,0.85V4H0V0H3.15Z"/></svg><svg viewBox="0 0 4 4" x="1703" y="1333" width="74" height="74" shape-rendering="auto"><path fill="#000000" d="M4,3.15V0.85A0.85,0.85,0,0,0,3.15,0H0.85A0.85,0.85,0,0,0,0,0.85V4H4Z"/></svg><svg viewBox="0 0 4 4" x="815" y="1407" width="74" height="74" shape-rendering="auto"><path fill="#000000" d="M0.85,0A0.85,0.85,0,0,0,0,0.85V4H4V0H0.85Z"/></svg><svg viewBox="0 0 4 4" x="889" y="1407" width="74" height="74" shape-rendering="auto"><path fill="#000000" d="M4,3.15A0.85,0.85,0,0,1,3.15,4H0V0H4V3.15Z"/></svg><svg viewBox="0 0 4 4" x="1037" y="1407" width="74" height="74" shape-rendering="auto"><path fill="#000000" d="M3.15,0H0.85A0.85,0.85,0,0,0,0,0.85v2.3A0.85,0.85,0,0,0,0.85,4H4V0Z"/></svg><svg viewBox="0 0 4 4" x="1111" y="1407" width="74" height="74" shape-rendering="auto"><rect fill="#000000" width="4" height="4"/></svg><svg viewBox="0 0 4 4" x="1185" y="1407" width="74" height="74" shape-rendering="auto"><rect fill="#000000" width="4" height="4"/></svg><svg viewBox="0 0 4 4" x="1259" y="1407" width="74" height="74" shape-rendering="auto"><path fill="#000000" d="M4,3.15A0.85,0.85,0,0,1,3.15,4H0V0H4V3.15Z"/></svg><svg viewBox="0 0 4 4" x="1333" y="1407" width="74" height="74" shape-rendering="auto"><path fill="#000000" d="M0.85,0H0V0.85A0.85,0.85,0,0,1,0.85,0Z"/></svg><svg viewBox="0 0 4 4" x="1407" y="1407" width="74" height="74" shape-rendering="auto"><path fill="#000000" d="M4,0.85V0H3.15A0.85,0.85,0,0,1,4,0.85Z"/></svg><svg viewBox="0 0 4 4" x="1481" y="1407" width="74" height="74" shape-rendering="auto"><rect fill="#000000" width="4" height="4"/></svg><svg viewBox="0 0 4 4" x="1555" y="1407" width="74" height="74" shape-rendering="auto"><rect fill="#000000" width="4" height="4"/></svg><svg viewBox="0 0 4 4" x="1629" y="1407" width="74" height="74" shape-rendering="auto"><path fill="#000000" d="M0.85,4A0.85,0.85,0,0,1,0,3.15V4Z"/></svg><svg viewBox="0 0 4 4" x="1703" y="1407" width="74" height="74" shape-rendering="auto"><path fill="#000000" d="M0,3.15A0.85,0.85,0,0,0,0.85,4h2.3A0.85,0.85,0,0,0,4,3.15V0H0V3.15Z"/></svg><svg viewBox="0 0 4 4" x="815" y="1481" width="74" height="74" shape-rendering="auto"><rect fill="#000000" width="4" height="4"/></svg><svg viewBox="0 0 4 4" x="889" y="1481" width="74" height="74" shape-rendering="auto"><path fill="#000000" d="M0.85,0H0V0.85A0.85,0.85,0,0,1,0.85,0Z"/></svg><svg viewBox="0 0 4 4" x="889" y="1481" width="74" height="74" shape-rendering="auto"><path fill="#000000" d="M3.15,4A0.85,0.85,0,0,0,4,3.15V4Z"/></svg><svg viewBox="0 0 4 4" x="889" y="1481" width="74" height="74" shape-rendering="auto"><path fill="#000000" d="M0.85,4A0.85,0.85,0,0,1,0,3.15V4Z"/></svg><svg viewBox="0 0 4 4" x="963" y="1481" width="74" height="74" shape-rendering="auto"><path fill="#000000" d="M4,3.15V0.85A0.85,0.85,0,0,0,3.15,0H0.85A0.85,0.85,0,0,0,0,0.85V4H4Z"/></svg><svg viewBox="0 0 4 4" x="1037" y="1481" width="74" height="74" shape-rendering="auto"><path fill="#000000" d="M4,0.85V0H3.15A0.85,0.85,0,0,1,4,0.85Z"/></svg><svg viewBox="0 0 4 4" x="1037" y="1481" width="74" height="74" shape-rendering="auto"><path fill="#000000" d="M0.85,4A0.85,0.85,0,0,1,0,3.15V4Z"/></svg><svg viewBox="0 0 4 4" x="1111" y="1481" width="74" height="74" shape-rendering="auto"><path fill="#000000" d="M0,3.15A0.85,0.85,0,0,0,0.85,4H4V0H0V3.15Z"/></svg><svg viewBox="0 0 4 4" x="1185" y="1481" width="74" height="74" shape-rendering="auto"><rect fill="#000000" width="4" height="4"/></svg><svg viewBox="0 0 4 4" x="1259" y="1481" width="74" height="74" shape-rendering="auto"><path fill="#000000" d="M0.85,0H0V0.85A0.85,0.85,0,0,1,0.85,0Z"/></svg><svg viewBox="0 0 4 4" x="1259" y="1481" width="74" height="74" shape-rendering="auto"><path fill="#000000" d="M0.85,4A0.85,0.85,0,0,1,0,3.15V4Z"/></svg><svg viewBox="0 0 4 4" x="1333" y="1481" width="74" height="74" shape-rendering="auto"><rect fill="#000000" width="4" height="4" rx="0.85"/></svg><svg viewBox="0 0 4 4" x="1481" y="1481" width="74" height="74" shape-rendering="auto"><path fill="#000000" d="M0,3.15A0.85,0.85,0,0,0,0.85,4H4V0H0V3.15Z"/></svg><svg viewBox="0 0 4 4" x="1555" y="1481" width="74" height="74" shape-rendering="auto"><rect fill="#000000" width="4" height="4"/></svg><svg viewBox="0 0 4 4" x="1629" y="1481" width="74" height="74" shape-rendering="auto"><path fill="#000000" d="M0.85,4h2.3A0.85,0.85,0,0,0,4,3.15V0.85A0.85,0.85,0,0,0,3.15,0H0V4Z"/></svg><svg viewBox="0 0 4 4" x="815" y="1555" width="74" height="74" shape-rendering="auto"><rect fill="#000000" width="4" height="4"/></svg><svg viewBox="0 0 4 4" x="889" y="1555" width="74" height="74" shape-rendering="auto"><rect fill="#000000" width="4" height="4"/></svg><svg viewBox="0 0 4 4" x="963" y="1555" width="74" height="74" shape-rendering="auto"><rect fill="#000000" width="4" height="4"/></svg><svg viewBox="0 0 4 4" x="1037" y="1555" width="74" height="74" shape-rendering="auto"><path fill="#000000" d="M0.85,4h2.3A0.85,0.85,0,0,0,4,3.15V0.85A0.85,0.85,0,0,0,3.15,0H0V4Z"/></svg><svg viewBox="0 0 4 4" x="1111" y="1555" width="74" height="74" shape-rendering="auto"><path fill="#000000" d="M4,0.85V0H3.15A0.85,0.85,0,0,1,4,0.85Z"/></svg><svg viewBox="0 0 4 4" x="1185" y="1555" width="74" height="74" shape-rendering="auto"><path fill="#000000" d="M0,3.15A0.85,0.85,0,0,0,0.85,4H4V0H0V3.15Z"/></svg><svg viewBox="0 0 4 4" x="1259" y="1555" width="74" height="74" shape-rendering="auto"><path fill="#000000" d="M0.85,4h2.3A0.85,0.85,0,0,0,4,3.15V0.85A0.85,0.85,0,0,0,3.15,0H0V4Z"/></svg><svg viewBox="0 0 4 4" x="1333" y="1555" width="74" height="74" shape-rendering="auto"><path fill="#000000" d="M3.15,4A0.85,0.85,0,0,0,4,3.15V4Z"/></svg><svg viewBox="0 0 4 4" x="1407" y="1555" width="74" height="74" shape-rendering="auto"><path fill="#000000" d="M4,3.15V0.85A0.85,0.85,0,0,0,3.15,0H0.85A0.85,0.85,0,0,0,0,0.85V4H4Z"/></svg><svg viewBox="0 0 4 4" x="1481" y="1555" width="74" height="74" shape-rendering="auto"><path fill="#000000" d="M0.85,4A0.85,0.85,0,0,1,0,3.15V4Z"/></svg><svg viewBox="0 0 4 4" x="815" y="1629" width="74" height="74" shape-rendering="auto"><rect fill="#000000" width="4" height="4"/></svg><svg viewBox="0 0 4 4" x="889" y="1629" width="74" height="74" shape-rendering="auto"><path fill="#000000" d="M0.85,0H0V0.85A0.85,0.85,0,0,1,0.85,0Z"/></svg><svg viewBox="0 0 4 4" x="1333" y="1629" width="74" height="74" shape-rendering="auto"><path fill="#000000" d="M3.15,0H0.85A0.85,0.85,0,0,0,0,0.85v2.3A0.85,0.85,0,0,0,0.85,4H4V0Z"/></svg><svg viewBox="0 0 4 4" x="1407" y="1629" width="74" height="74" shape-rendering="auto"><rect fill="#000000" width="4" height="4"/></svg><svg viewBox="0 0 4 4" x="1481" y="1629" width="74" height="74" shape-rendering="auto"><path fill="#000000" d="M0.85,4h2.3A0.85,0.85,0,0,0,4,3.15V0.85A0.85,0.85,0,0,0,3.15,0H0V4Z"/></svg><svg viewBox="0 0 4 4" x="1555" y="1629" width="74" height="74" shape-rendering="auto"><path fill="#000000" d="M3.15,4A0.85,0.85,0,0,0,4,3.15V4Z"/></svg><svg viewBox="0 0 4 4" x="1629" y="1629" width="74" height="74" shape-rendering="auto"><path fill="#000000" d="M0.85,0A0.85,0.85,0,0,0,0,0.85V4H4V0H0.85Z"/></svg><svg viewBox="0 0 4 4" x="1703" y="1629" width="74" height="74" shape-rendering="auto"><path fill="#000000" d="M0.85,4h2.3A0.85,0.85,0,0,0,4,3.15V0.85A0.85,0.85,0,0,0,3.15,0H0V4Z"/></svg><svg viewBox="0 0 4 4" x="815" y="1703" width="74" height="74" shape-rendering="auto"><path fill="#000000" d="M0,3.15A0.85,0.85,0,0,0,0.85,4h2.3A0.85,0.85,0,0,0,4,3.15V0H0V3.15Z"/></svg><svg viewBox="0 0 4 4" x="1037" y="1703" width="74" height="74" shape-rendering="auto"><path fill="#000000" d="M3.15,0H0.85A0.85,0.85,0,0,0,0,0.85v2.3A0.85,0.85,0,0,0,0.85,4H4V0Z"/></svg><svg viewBox="0 0 4 4" x="1111" y="1703" width="74" height="74" shape-rendering="auto"><path fill="#000000" d="M0.85,4h2.3A0.85,0.85,0,0,0,4,3.15V0.85A0.85,0.85,0,0,0,3.15,0H0V4Z"/></svg><svg viewBox="0 0 4 4" x="1259" y="1703" width="74" height="74" shape-rendering="auto"><rect fill="#000000" width="4" height="4" rx="0.85"/></svg><svg viewBox="0 0 4 4" x="1555" y="1703" width="74" height="74" shape-rendering="auto"><path fill="#000000" d="M3.15,0H0.85A0.85,0.85,0,0,0,0,0.85v2.3A0.85,0.85,0,0,0,0.85,4H4V0Z"/></svg><svg viewBox="0 0 4 4" x="1629" y="1703" width="74" height="74" shape-rendering="auto"><path fill="#000000" d="M4,3.15A0.85,0.85,0,0,1,3.15,4H0V0H4V3.15Z"/></svg><svg viewBox="0 0 4 4" x="1703" y="1703" width="74" height="74" shape-rendering="auto"><path fill="#000000" d="M0.85,0H0V0.85A0.85,0.85,0,0,1,0.85,0Z"/></svg><svg version="1.1" id="Ebene_1" x="223" y="223" viewBox="0 0 700 700" style="enable-background:new 0 0 700 700;" xml:space="preserve" width="518" height="518" shape-rendering="auto">

<path fill="#000000" d="M21.2-0.1C9.5-0.1-0.1,9.5-0.1,21.2v78.8v100v100v100v100v100v78.8c0,11.7,9.5,21.3,21.3,21.3h657.6  c11.7,0,21.3-9.5,21.3-21.3V600V500V400V300V200v-100V21.2c0-11.7-9.5-21.3-21.3-21.3H21.2z M600,200v100v100v100v87.8  c0,6.8-5.5,12.2-12.2,12.2H112.2c-6.8,0-12.2-5.5-12.2-12.2V500V400V300V200v-87.8c0-6.8,5.5-12.2,12.2-12.2h475.6  c6.8,0,12.2,5.5,12.2,12.2V200z"/>
</svg>
<svg version="1.1" id="Ebene_1" x="223" y="223" viewBox="0 0 700 700" style="enable-background:new 0 0 700 700;" xml:space="preserve" width="518" height="518" shape-rendering="auto">

<path fill="#000000" d="M500,400V300v-78.8c0-11.7-9.5-21.3-21.3-21.3H221.2c-11.7,0-21.3,9.5-21.3,21.3V300v100v78.8    c0,11.7,9.5,21.3,21.3,21.3h257.5c11.7,0,21.3-9.5,21.3-21.3V400z"/>
</svg>
<svg version="1.1" id="Ebene_1" x="1259" y="223" viewBox="0 0 700 700" style="enable-background:new 0 0 700 700;" xml:space="preserve" width="518" height="518" shape-rendering="auto">

<path fill="#000000" d="M21.2-0.1C9.5-0.1-0.1,9.5-0.1,21.2v78.8v100v100v100v100v100v78.8c0,11.7,9.5,21.3,21.3,21.3h657.6  c11.7,0,21.3-9.5,21.3-21.3V600V500V400V300V200v-100V21.2c0-11.7-9.5-21.3-21.3-21.3H21.2z M600,200v100v100v100v87.8  c0,6.8-5.5,12.2-12.2,12.2H112.2c-6.8,0-12.2-5.5-12.2-12.2V500V400V300V200v-87.8c0-6.8,5.5-12.2,12.2-12.2h475.6  c6.8,0,12.2,5.5,12.2,12.2V200z"/>
</svg>
<svg version="1.1" id="Ebene_1" x="1259" y="223" viewBox="0 0 700 700" style="enable-background:new 0 0 700 700;" xml:space="preserve" width="518" height="518" shape-rendering="auto">

<path fill="#000000" d="M500,400V300v-78.8c0-11.7-9.5-21.3-21.3-21.3H221.2c-11.7,0-21.3,9.5-21.3,21.3V300v100v78.8    c0,11.7,9.5,21.3,21.3,21.3h257.5c11.7,0,21.3-9.5,21.3-21.3V400z"/>
</svg>
<svg version="1.1" id="Ebene_1" x="223" y="1259" viewBox="0 0 700 700" style="enable-background:new 0 0 700 700;" xml:space="preserve" width="518" height="518" shape-rendering="auto">

<path fill="#000000" d="M21.2-0.1C9.5-0.1-0.1,9.5-0.1,21.2v78.8v100v100v100v100v100v78.8c0,11.7,9.5,21.3,21.3,21.3h657.6  c11.7,0,21.3-9.5,21.3-21.3V600V500V400V300V200v-100V21.2c0-11.7-9.5-21.3-21.3-21.3H21.2z M600,200v100v100v100v87.8  c0,6.8-5.5,12.2-12.2,12.2H112.2c-6.8,0-12.2-5.5-12.2-12.2V500V400V300V200v-87.8c0-6.8,5.5-12.2,12.2-12.2h475.6  c6.8,0,12.2,5.5,12.2,12.2V200z"/>
</svg>
<svg version="1.1" id="Ebene_1" x="223" y="1259" viewBox="0 0 700 700" style="enable-background:new 0 0 700 700;" xml:space="preserve" width="518" height="518" shape-rendering="auto">

<path fill="#000000" d="M500,400V300v-78.8c0-11.7-9.5-21.3-21.3-21.3H221.2c-11.7,0-21.3,9.5-21.3,21.3V300v100v78.8    c0,11.7,9.5,21.3,21.3,21.3h257.5c11.7,0,21.3-9.5,21.3-21.3V400z"/>
</svg>
</svg>

</svg>
