<?xml version="1.0" encoding="utf-8"?>
<!-- Generator: Adobe Illustrator 23.0.4, SVG Export Plug-In . SVG Version: 6.00 Build 0)  -->
<svg version="1.1" id="bottom-frame" xmlns="http://www.w3.org/2000/svg" xmlns:xlink="http://www.w3.org/1999/xlink" x="0px"
	 y="0px" viewBox="0 0 279.1 346.6" style="enable-background:new 0 0 279.1 346.6;" xml:space="preserve">
<style type="text/css">
	.frame-color{fill:#1eff00;}
	.background-color{fill:#ffffff;}
	.text-color{fill:#000000;}
</style>

<svg xmlns="http://www.w3.org/2000/svg" xmlns:xlink="http://www.w3.org/1999/xlink" version="1.1" width="259.9" height="259.9" viewBox="0 0 2000 2000" x="9.7" y="9.6" shape-rendering="crispEdges"><defs/><rect x="0" y="0" width="2000" height="2000" fill="#ffffff"/><svg viewBox="0 0 3.4 3.4" x="712" y="200" width="64" height="64" shape-rendering="auto"><circle fill="#ff0000" cx="1.7" cy="1.7" r="1.7"/></svg><svg viewBox="0 0 3.4 3.4" x="904" y="200" width="64" height="64" shape-rendering="auto"><circle fill="#ff0000" cx="1.7" cy="1.7" r="1.7"/></svg><svg viewBox="0 0 3.4 3.4" x="968" y="200" width="64" height="64" shape-rendering="auto"><circle fill="#ff0000" cx="1.7" cy="1.7" r="1.7"/></svg><svg viewBox="0 0 3.4 3.4" x="1096" y="200" width="64" height="64" shape-rendering="auto"><circle fill="#ff0000" cx="1.7" cy="1.7" r="1.7"/></svg><svg viewBox="0 0 3.4 3.4" x="1160" y="200" width="64" height="64" shape-rendering="auto"><circle fill="#ff0000" cx="1.7" cy="1.7" r="1.7"/></svg><svg viewBox="0 0 3.4 3.4" x="1224" y="200" width="64" height="64" shape-rendering="auto"><circle fill="#ff0000" cx="1.7" cy="1.7" r="1.7"/></svg><svg viewBox="0 0 3.4 3.4" x="712" y="264" width="64" height="64" shape-rendering="auto"><circle fill="#ff0000" cx="1.7" cy="1.7" r="1.7"/></svg><svg viewBox="0 0 3.4 3.4" x="904" y="264" width="64" height="64" shape-rendering="auto"><circle fill="#ff0000" cx="1.7" cy="1.7" r="1.7"/></svg><svg viewBox="0 0 3.4 3.4" x="1032" y="264" width="64" height="64" shape-rendering="auto"><circle fill="#ff0000" cx="1.7" cy="1.7" r="1.7"/></svg><svg viewBox="0 0 3.4 3.4" x="1160" y="264" width="64" height="64" shape-rendering="auto"><circle fill="#ff0000" cx="1.7" cy="1.7" r="1.7"/></svg><svg viewBox="0 0 3.4 3.4" x="712" y="328" width="64" height="64" shape-rendering="auto"><circle fill="#ff0000" cx="1.7" cy="1.7" r="1.7"/></svg><svg viewBox="0 0 3.4 3.4" x="776" y="328" width="64" height="64" shape-rendering="auto"><circle fill="#ff0000" cx="1.7" cy="1.7" r="1.7"/></svg><svg viewBox="0 0 3.4 3.4" x="840" y="328" width="64" height="64" shape-rendering="auto"><circle fill="#ff0000" cx="1.7" cy="1.7" r="1.7"/></svg><svg viewBox="0 0 3.4 3.4" x="904" y="328" width="64" height="64" shape-rendering="auto"><circle fill="#ff0000" cx="1.7" cy="1.7" r="1.7"/></svg><svg viewBox="0 0 3.4 3.4" x="1032" y="328" width="64" height="64" shape-rendering="auto"><circle fill="#ff0000" cx="1.7" cy="1.7" r="1.7"/></svg><svg viewBox="0 0 3.4 3.4" x="1224" y="328" width="64" height="64" shape-rendering="auto"><circle fill="#ff0000" cx="1.7" cy="1.7" r="1.7"/></svg><svg viewBox="0 0 3.4 3.4" x="776" y="392" width="64" height="64" shape-rendering="auto"><circle fill="#ff0000" cx="1.7" cy="1.7" r="1.7"/></svg><svg viewBox="0 0 3.4 3.4" x="904" y="392" width="64" height="64" shape-rendering="auto"><circle fill="#ff0000" cx="1.7" cy="1.7" r="1.7"/></svg><svg viewBox="0 0 3.4 3.4" x="1096" y="392" width="64" height="64" shape-rendering="auto"><circle fill="#ff0000" cx="1.7" cy="1.7" r="1.7"/></svg><svg viewBox="0 0 3.4 3.4" x="776" y="456" width="64" height="64" shape-rendering="auto"><circle fill="#ff0000" cx="1.7" cy="1.7" r="1.7"/></svg><svg viewBox="0 0 3.4 3.4" x="904" y="456" width="64" height="64" shape-rendering="auto"><circle fill="#ff0000" cx="1.7" cy="1.7" r="1.7"/></svg><svg viewBox="0 0 3.4 3.4" x="968" y="456" width="64" height="64" shape-rendering="auto"><circle fill="#ff0000" cx="1.7" cy="1.7" r="1.7"/></svg><svg viewBox="0 0 3.4 3.4" x="1032" y="456" width="64" height="64" shape-rendering="auto"><circle fill="#ff0000" cx="1.7" cy="1.7" r="1.7"/></svg><svg viewBox="0 0 3.4 3.4" x="1224" y="456" width="64" height="64" shape-rendering="auto"><circle fill="#ff0000" cx="1.7" cy="1.7" r="1.7"/></svg><svg viewBox="0 0 3.4 3.4" x="712" y="520" width="64" height="64" shape-rendering="auto"><circle fill="#ff0000" cx="1.7" cy="1.7" r="1.7"/></svg><svg viewBox="0 0 3.4 3.4" x="776" y="520" width="64" height="64" shape-rendering="auto"><circle fill="#ff0000" cx="1.7" cy="1.7" r="1.7"/></svg><svg viewBox="0 0 3.4 3.4" x="904" y="520" width="64" height="64" shape-rendering="auto"><circle fill="#ff0000" cx="1.7" cy="1.7" r="1.7"/></svg><svg viewBox="0 0 3.4 3.4" x="968" y="520" width="64" height="64" shape-rendering="auto"><circle fill="#ff0000" cx="1.7" cy="1.7" r="1.7"/></svg><svg viewBox="0 0 3.4 3.4" x="712" y="584" width="64" height="64" shape-rendering="auto"><circle fill="#ff0000" cx="1.7" cy="1.7" r="1.7"/></svg><svg viewBox="0 0 3.4 3.4" x="840" y="584" width="64" height="64" shape-rendering="auto"><circle fill="#ff0000" cx="1.7" cy="1.7" r="1.7"/></svg><svg viewBox="0 0 3.4 3.4" x="968" y="584" width="64" height="64" shape-rendering="auto"><circle fill="#ff0000" cx="1.7" cy="1.7" r="1.7"/></svg><svg viewBox="0 0 3.4 3.4" x="1096" y="584" width="64" height="64" shape-rendering="auto"><circle fill="#ff0000" cx="1.7" cy="1.7" r="1.7"/></svg><svg viewBox="0 0 3.4 3.4" x="1224" y="584" width="64" height="64" shape-rendering="auto"><circle fill="#ff0000" cx="1.7" cy="1.7" r="1.7"/></svg><svg viewBox="0 0 3.4 3.4" x="712" y="648" width="64" height="64" shape-rendering="auto"><circle fill="#ff0000" cx="1.7" cy="1.7" r="1.7"/></svg><svg viewBox="0 0 3.4 3.4" x="840" y="648" width="64" height="64" shape-rendering="auto"><circle fill="#ff0000" cx="1.7" cy="1.7" r="1.7"/></svg><svg viewBox="0 0 3.4 3.4" x="904" y="648" width="64" height="64" shape-rendering="auto"><circle fill="#ff0000" cx="1.7" cy="1.7" r="1.7"/></svg><svg viewBox="0 0 3.4 3.4" x="968" y="648" width="64" height="64" shape-rendering="auto"><circle fill="#ff0000" cx="1.7" cy="1.7" r="1.7"/></svg><svg viewBox="0 0 3.4 3.4" x="1224" y="648" width="64" height="64" shape-rendering="auto"><circle fill="#ff0000" cx="1.7" cy="1.7" r="1.7"/></svg><svg viewBox="0 0 3.4 3.4" x="328" y="712" width="64" height="64" shape-rendering="auto"><circle fill="#ff0000" cx="1.7" cy="1.7" r="1.7"/></svg><svg viewBox="0 0 3.4 3.4" x="392" y="712" width="64" height="64" shape-rendering="auto"><circle fill="#ff0000" cx="1.7" cy="1.7" r="1.7"/></svg><svg viewBox="0 0 3.4 3.4" x="456" y="712" width="64" height="64" shape-rendering="auto"><circle fill="#ff0000" cx="1.7" cy="1.7" r="1.7"/></svg><svg viewBox="0 0 3.4 3.4" x="584" y="712" width="64" height="64" shape-rendering="auto"><circle fill="#ff0000" cx="1.7" cy="1.7" r="1.7"/></svg><svg viewBox="0 0 3.4 3.4" x="1288" y="712" width="64" height="64" shape-rendering="auto"><circle fill="#ff0000" cx="1.7" cy="1.7" r="1.7"/></svg><svg viewBox="0 0 3.4 3.4" x="1352" y="712" width="64" height="64" shape-rendering="auto"><circle fill="#ff0000" cx="1.7" cy="1.7" r="1.7"/></svg><svg viewBox="0 0 3.4 3.4" x="1416" y="712" width="64" height="64" shape-rendering="auto"><circle fill="#ff0000" cx="1.7" cy="1.7" r="1.7"/></svg><svg viewBox="0 0 3.4 3.4" x="1608" y="712" width="64" height="64" shape-rendering="auto"><circle fill="#ff0000" cx="1.7" cy="1.7" r="1.7"/></svg><svg viewBox="0 0 3.4 3.4" x="1672" y="712" width="64" height="64" shape-rendering="auto"><circle fill="#ff0000" cx="1.7" cy="1.7" r="1.7"/></svg><svg viewBox="0 0 3.4 3.4" x="1736" y="712" width="64" height="64" shape-rendering="auto"><circle fill="#ff0000" cx="1.7" cy="1.7" r="1.7"/></svg><svg viewBox="0 0 3.4 3.4" x="264" y="776" width="64" height="64" shape-rendering="auto"><circle fill="#ff0000" cx="1.7" cy="1.7" r="1.7"/></svg><svg viewBox="0 0 3.4 3.4" x="456" y="776" width="64" height="64" shape-rendering="auto"><circle fill="#ff0000" cx="1.7" cy="1.7" r="1.7"/></svg><svg viewBox="0 0 3.4 3.4" x="520" y="776" width="64" height="64" shape-rendering="auto"><circle fill="#ff0000" cx="1.7" cy="1.7" r="1.7"/></svg><svg viewBox="0 0 3.4 3.4" x="648" y="776" width="64" height="64" shape-rendering="auto"><circle fill="#ff0000" cx="1.7" cy="1.7" r="1.7"/></svg><svg viewBox="0 0 3.4 3.4" x="1288" y="776" width="64" height="64" shape-rendering="auto"><circle fill="#ff0000" cx="1.7" cy="1.7" r="1.7"/></svg><svg viewBox="0 0 3.4 3.4" x="1416" y="776" width="64" height="64" shape-rendering="auto"><circle fill="#ff0000" cx="1.7" cy="1.7" r="1.7"/></svg><svg viewBox="0 0 3.4 3.4" x="1480" y="776" width="64" height="64" shape-rendering="auto"><circle fill="#ff0000" cx="1.7" cy="1.7" r="1.7"/></svg><svg viewBox="0 0 3.4 3.4" x="1736" y="776" width="64" height="64" shape-rendering="auto"><circle fill="#ff0000" cx="1.7" cy="1.7" r="1.7"/></svg><svg viewBox="0 0 3.4 3.4" x="264" y="840" width="64" height="64" shape-rendering="auto"><circle fill="#ff0000" cx="1.7" cy="1.7" r="1.7"/></svg><svg viewBox="0 0 3.4 3.4" x="328" y="840" width="64" height="64" shape-rendering="auto"><circle fill="#ff0000" cx="1.7" cy="1.7" r="1.7"/></svg><svg viewBox="0 0 3.4 3.4" x="584" y="840" width="64" height="64" shape-rendering="auto"><circle fill="#ff0000" cx="1.7" cy="1.7" r="1.7"/></svg><svg viewBox="0 0 3.4 3.4" x="648" y="840" width="64" height="64" shape-rendering="auto"><circle fill="#ff0000" cx="1.7" cy="1.7" r="1.7"/></svg><svg viewBox="0 0 3.4 3.4" x="1288" y="840" width="64" height="64" shape-rendering="auto"><circle fill="#ff0000" cx="1.7" cy="1.7" r="1.7"/></svg><svg viewBox="0 0 3.4 3.4" x="1352" y="840" width="64" height="64" shape-rendering="auto"><circle fill="#ff0000" cx="1.7" cy="1.7" r="1.7"/></svg><svg viewBox="0 0 3.4 3.4" x="1480" y="840" width="64" height="64" shape-rendering="auto"><circle fill="#ff0000" cx="1.7" cy="1.7" r="1.7"/></svg><svg viewBox="0 0 3.4 3.4" x="1544" y="840" width="64" height="64" shape-rendering="auto"><circle fill="#ff0000" cx="1.7" cy="1.7" r="1.7"/></svg><svg viewBox="0 0 3.4 3.4" x="1608" y="840" width="64" height="64" shape-rendering="auto"><circle fill="#ff0000" cx="1.7" cy="1.7" r="1.7"/></svg><svg viewBox="0 0 3.4 3.4" x="264" y="904" width="64" height="64" shape-rendering="auto"><circle fill="#ff0000" cx="1.7" cy="1.7" r="1.7"/></svg><svg viewBox="0 0 3.4 3.4" x="648" y="904" width="64" height="64" shape-rendering="auto"><circle fill="#ff0000" cx="1.7" cy="1.7" r="1.7"/></svg><svg viewBox="0 0 3.4 3.4" x="1288" y="904" width="64" height="64" shape-rendering="auto"><circle fill="#ff0000" cx="1.7" cy="1.7" r="1.7"/></svg><svg viewBox="0 0 3.4 3.4" x="1416" y="904" width="64" height="64" shape-rendering="auto"><circle fill="#ff0000" cx="1.7" cy="1.7" r="1.7"/></svg><svg viewBox="0 0 3.4 3.4" x="520" y="968" width="64" height="64" shape-rendering="auto"><circle fill="#ff0000" cx="1.7" cy="1.7" r="1.7"/></svg><svg viewBox="0 0 3.4 3.4" x="584" y="968" width="64" height="64" shape-rendering="auto"><circle fill="#ff0000" cx="1.7" cy="1.7" r="1.7"/></svg><svg viewBox="0 0 3.4 3.4" x="1352" y="968" width="64" height="64" shape-rendering="auto"><circle fill="#ff0000" cx="1.7" cy="1.7" r="1.7"/></svg><svg viewBox="0 0 3.4 3.4" x="1416" y="968" width="64" height="64" shape-rendering="auto"><circle fill="#ff0000" cx="1.7" cy="1.7" r="1.7"/></svg><svg viewBox="0 0 3.4 3.4" x="1480" y="968" width="64" height="64" shape-rendering="auto"><circle fill="#ff0000" cx="1.7" cy="1.7" r="1.7"/></svg><svg viewBox="0 0 3.4 3.4" x="1672" y="968" width="64" height="64" shape-rendering="auto"><circle fill="#ff0000" cx="1.7" cy="1.7" r="1.7"/></svg><svg viewBox="0 0 3.4 3.4" x="1736" y="968" width="64" height="64" shape-rendering="auto"><circle fill="#ff0000" cx="1.7" cy="1.7" r="1.7"/></svg><svg viewBox="0 0 3.4 3.4" x="200" y="1032" width="64" height="64" shape-rendering="auto"><circle fill="#ff0000" cx="1.7" cy="1.7" r="1.7"/></svg><svg viewBox="0 0 3.4 3.4" x="264" y="1032" width="64" height="64" shape-rendering="auto"><circle fill="#ff0000" cx="1.7" cy="1.7" r="1.7"/></svg><svg viewBox="0 0 3.4 3.4" x="648" y="1032" width="64" height="64" shape-rendering="auto"><circle fill="#ff0000" cx="1.7" cy="1.7" r="1.7"/></svg><svg viewBox="0 0 3.4 3.4" x="1416" y="1032" width="64" height="64" shape-rendering="auto"><circle fill="#ff0000" cx="1.7" cy="1.7" r="1.7"/></svg><svg viewBox="0 0 3.4 3.4" x="1672" y="1032" width="64" height="64" shape-rendering="auto"><circle fill="#ff0000" cx="1.7" cy="1.7" r="1.7"/></svg><svg viewBox="0 0 3.4 3.4" x="200" y="1096" width="64" height="64" shape-rendering="auto"><circle fill="#ff0000" cx="1.7" cy="1.7" r="1.7"/></svg><svg viewBox="0 0 3.4 3.4" x="456" y="1096" width="64" height="64" shape-rendering="auto"><circle fill="#ff0000" cx="1.7" cy="1.7" r="1.7"/></svg><svg viewBox="0 0 3.4 3.4" x="520" y="1096" width="64" height="64" shape-rendering="auto"><circle fill="#ff0000" cx="1.7" cy="1.7" r="1.7"/></svg><svg viewBox="0 0 3.4 3.4" x="584" y="1096" width="64" height="64" shape-rendering="auto"><circle fill="#ff0000" cx="1.7" cy="1.7" r="1.7"/></svg><svg viewBox="0 0 3.4 3.4" x="1288" y="1096" width="64" height="64" shape-rendering="auto"><circle fill="#ff0000" cx="1.7" cy="1.7" r="1.7"/></svg><svg viewBox="0 0 3.4 3.4" x="1352" y="1096" width="64" height="64" shape-rendering="auto"><circle fill="#ff0000" cx="1.7" cy="1.7" r="1.7"/></svg><svg viewBox="0 0 3.4 3.4" x="1416" y="1096" width="64" height="64" shape-rendering="auto"><circle fill="#ff0000" cx="1.7" cy="1.7" r="1.7"/></svg><svg viewBox="0 0 3.4 3.4" x="1480" y="1096" width="64" height="64" shape-rendering="auto"><circle fill="#ff0000" cx="1.7" cy="1.7" r="1.7"/></svg><svg viewBox="0 0 3.4 3.4" x="1544" y="1096" width="64" height="64" shape-rendering="auto"><circle fill="#ff0000" cx="1.7" cy="1.7" r="1.7"/></svg><svg viewBox="0 0 3.4 3.4" x="1608" y="1096" width="64" height="64" shape-rendering="auto"><circle fill="#ff0000" cx="1.7" cy="1.7" r="1.7"/></svg><svg viewBox="0 0 3.4 3.4" x="200" y="1160" width="64" height="64" shape-rendering="auto"><circle fill="#ff0000" cx="1.7" cy="1.7" r="1.7"/></svg><svg viewBox="0 0 3.4 3.4" x="328" y="1160" width="64" height="64" shape-rendering="auto"><circle fill="#ff0000" cx="1.7" cy="1.7" r="1.7"/></svg><svg viewBox="0 0 3.4 3.4" x="1416" y="1160" width="64" height="64" shape-rendering="auto"><circle fill="#ff0000" cx="1.7" cy="1.7" r="1.7"/></svg><svg viewBox="0 0 3.4 3.4" x="1608" y="1160" width="64" height="64" shape-rendering="auto"><circle fill="#ff0000" cx="1.7" cy="1.7" r="1.7"/></svg><svg viewBox="0 0 3.4 3.4" x="1736" y="1160" width="64" height="64" shape-rendering="auto"><circle fill="#ff0000" cx="1.7" cy="1.7" r="1.7"/></svg><svg viewBox="0 0 3.4 3.4" x="200" y="1224" width="64" height="64" shape-rendering="auto"><circle fill="#ff0000" cx="1.7" cy="1.7" r="1.7"/></svg><svg viewBox="0 0 3.4 3.4" x="328" y="1224" width="64" height="64" shape-rendering="auto"><circle fill="#ff0000" cx="1.7" cy="1.7" r="1.7"/></svg><svg viewBox="0 0 3.4 3.4" x="392" y="1224" width="64" height="64" shape-rendering="auto"><circle fill="#ff0000" cx="1.7" cy="1.7" r="1.7"/></svg><svg viewBox="0 0 3.4 3.4" x="456" y="1224" width="64" height="64" shape-rendering="auto"><circle fill="#ff0000" cx="1.7" cy="1.7" r="1.7"/></svg><svg viewBox="0 0 3.4 3.4" x="520" y="1224" width="64" height="64" shape-rendering="auto"><circle fill="#ff0000" cx="1.7" cy="1.7" r="1.7"/></svg><svg viewBox="0 0 3.4 3.4" x="584" y="1224" width="64" height="64" shape-rendering="auto"><circle fill="#ff0000" cx="1.7" cy="1.7" r="1.7"/></svg><svg viewBox="0 0 3.4 3.4" x="1288" y="1224" width="64" height="64" shape-rendering="auto"><circle fill="#ff0000" cx="1.7" cy="1.7" r="1.7"/></svg><svg viewBox="0 0 3.4 3.4" x="1352" y="1224" width="64" height="64" shape-rendering="auto"><circle fill="#ff0000" cx="1.7" cy="1.7" r="1.7"/></svg><svg viewBox="0 0 3.4 3.4" x="1416" y="1224" width="64" height="64" shape-rendering="auto"><circle fill="#ff0000" cx="1.7" cy="1.7" r="1.7"/></svg><svg viewBox="0 0 3.4 3.4" x="1480" y="1224" width="64" height="64" shape-rendering="auto"><circle fill="#ff0000" cx="1.7" cy="1.7" r="1.7"/></svg><svg viewBox="0 0 3.4 3.4" x="1544" y="1224" width="64" height="64" shape-rendering="auto"><circle fill="#ff0000" cx="1.7" cy="1.7" r="1.7"/></svg><svg viewBox="0 0 3.4 3.4" x="1736" y="1224" width="64" height="64" shape-rendering="auto"><circle fill="#ff0000" cx="1.7" cy="1.7" r="1.7"/></svg><svg viewBox="0 0 3.4 3.4" x="712" y="1288" width="64" height="64" shape-rendering="auto"><circle fill="#ff0000" cx="1.7" cy="1.7" r="1.7"/></svg><svg viewBox="0 0 3.4 3.4" x="776" y="1288" width="64" height="64" shape-rendering="auto"><circle fill="#ff0000" cx="1.7" cy="1.7" r="1.7"/></svg><svg viewBox="0 0 3.4 3.4" x="840" y="1288" width="64" height="64" shape-rendering="auto"><circle fill="#ff0000" cx="1.7" cy="1.7" r="1.7"/></svg><svg viewBox="0 0 3.4 3.4" x="904" y="1288" width="64" height="64" shape-rendering="auto"><circle fill="#ff0000" cx="1.7" cy="1.7" r="1.7"/></svg><svg viewBox="0 0 3.4 3.4" x="1096" y="1288" width="64" height="64" shape-rendering="auto"><circle fill="#ff0000" cx="1.7" cy="1.7" r="1.7"/></svg><svg viewBox="0 0 3.4 3.4" x="1160" y="1288" width="64" height="64" shape-rendering="auto"><circle fill="#ff0000" cx="1.7" cy="1.7" r="1.7"/></svg><svg viewBox="0 0 3.4 3.4" x="1224" y="1288" width="64" height="64" shape-rendering="auto"><circle fill="#ff0000" cx="1.7" cy="1.7" r="1.7"/></svg><svg viewBox="0 0 3.4 3.4" x="1480" y="1288" width="64" height="64" shape-rendering="auto"><circle fill="#ff0000" cx="1.7" cy="1.7" r="1.7"/></svg><svg viewBox="0 0 3.4 3.4" x="1736" y="1288" width="64" height="64" shape-rendering="auto"><circle fill="#ff0000" cx="1.7" cy="1.7" r="1.7"/></svg><svg viewBox="0 0 3.4 3.4" x="904" y="1352" width="64" height="64" shape-rendering="auto"><circle fill="#ff0000" cx="1.7" cy="1.7" r="1.7"/></svg><svg viewBox="0 0 3.4 3.4" x="968" y="1352" width="64" height="64" shape-rendering="auto"><circle fill="#ff0000" cx="1.7" cy="1.7" r="1.7"/></svg><svg viewBox="0 0 3.4 3.4" x="1096" y="1352" width="64" height="64" shape-rendering="auto"><circle fill="#ff0000" cx="1.7" cy="1.7" r="1.7"/></svg><svg viewBox="0 0 3.4 3.4" x="1160" y="1352" width="64" height="64" shape-rendering="auto"><circle fill="#ff0000" cx="1.7" cy="1.7" r="1.7"/></svg><svg viewBox="0 0 3.4 3.4" x="1224" y="1352" width="64" height="64" shape-rendering="auto"><circle fill="#ff0000" cx="1.7" cy="1.7" r="1.7"/></svg><svg viewBox="0 0 3.4 3.4" x="1352" y="1352" width="64" height="64" shape-rendering="auto"><circle fill="#ff0000" cx="1.7" cy="1.7" r="1.7"/></svg><svg viewBox="0 0 3.4 3.4" x="1480" y="1352" width="64" height="64" shape-rendering="auto"><circle fill="#ff0000" cx="1.7" cy="1.7" r="1.7"/></svg><svg viewBox="0 0 3.4 3.4" x="1544" y="1352" width="64" height="64" shape-rendering="auto"><circle fill="#ff0000" cx="1.7" cy="1.7" r="1.7"/></svg><svg viewBox="0 0 3.4 3.4" x="1608" y="1352" width="64" height="64" shape-rendering="auto"><circle fill="#ff0000" cx="1.7" cy="1.7" r="1.7"/></svg><svg viewBox="0 0 3.4 3.4" x="1672" y="1352" width="64" height="64" shape-rendering="auto"><circle fill="#ff0000" cx="1.7" cy="1.7" r="1.7"/></svg><svg viewBox="0 0 3.4 3.4" x="1736" y="1352" width="64" height="64" shape-rendering="auto"><circle fill="#ff0000" cx="1.7" cy="1.7" r="1.7"/></svg><svg viewBox="0 0 3.4 3.4" x="776" y="1416" width="64" height="64" shape-rendering="auto"><circle fill="#ff0000" cx="1.7" cy="1.7" r="1.7"/></svg><svg viewBox="0 0 3.4 3.4" x="904" y="1416" width="64" height="64" shape-rendering="auto"><circle fill="#ff0000" cx="1.7" cy="1.7" r="1.7"/></svg><svg viewBox="0 0 3.4 3.4" x="1160" y="1416" width="64" height="64" shape-rendering="auto"><circle fill="#ff0000" cx="1.7" cy="1.7" r="1.7"/></svg><svg viewBox="0 0 3.4 3.4" x="1224" y="1416" width="64" height="64" shape-rendering="auto"><circle fill="#ff0000" cx="1.7" cy="1.7" r="1.7"/></svg><svg viewBox="0 0 3.4 3.4" x="1480" y="1416" width="64" height="64" shape-rendering="auto"><circle fill="#ff0000" cx="1.7" cy="1.7" r="1.7"/></svg><svg viewBox="0 0 3.4 3.4" x="1608" y="1416" width="64" height="64" shape-rendering="auto"><circle fill="#ff0000" cx="1.7" cy="1.7" r="1.7"/></svg><svg viewBox="0 0 3.4 3.4" x="712" y="1480" width="64" height="64" shape-rendering="auto"><circle fill="#ff0000" cx="1.7" cy="1.7" r="1.7"/></svg><svg viewBox="0 0 3.4 3.4" x="776" y="1480" width="64" height="64" shape-rendering="auto"><circle fill="#ff0000" cx="1.7" cy="1.7" r="1.7"/></svg><svg viewBox="0 0 3.4 3.4" x="1032" y="1480" width="64" height="64" shape-rendering="auto"><circle fill="#ff0000" cx="1.7" cy="1.7" r="1.7"/></svg><svg viewBox="0 0 3.4 3.4" x="1096" y="1480" width="64" height="64" shape-rendering="auto"><circle fill="#ff0000" cx="1.7" cy="1.7" r="1.7"/></svg><svg viewBox="0 0 3.4 3.4" x="1160" y="1480" width="64" height="64" shape-rendering="auto"><circle fill="#ff0000" cx="1.7" cy="1.7" r="1.7"/></svg><svg viewBox="0 0 3.4 3.4" x="1224" y="1480" width="64" height="64" shape-rendering="auto"><circle fill="#ff0000" cx="1.7" cy="1.7" r="1.7"/></svg><svg viewBox="0 0 3.4 3.4" x="1288" y="1480" width="64" height="64" shape-rendering="auto"><circle fill="#ff0000" cx="1.7" cy="1.7" r="1.7"/></svg><svg viewBox="0 0 3.4 3.4" x="1352" y="1480" width="64" height="64" shape-rendering="auto"><circle fill="#ff0000" cx="1.7" cy="1.7" r="1.7"/></svg><svg viewBox="0 0 3.4 3.4" x="1416" y="1480" width="64" height="64" shape-rendering="auto"><circle fill="#ff0000" cx="1.7" cy="1.7" r="1.7"/></svg><svg viewBox="0 0 3.4 3.4" x="1480" y="1480" width="64" height="64" shape-rendering="auto"><circle fill="#ff0000" cx="1.7" cy="1.7" r="1.7"/></svg><svg viewBox="0 0 3.4 3.4" x="1544" y="1480" width="64" height="64" shape-rendering="auto"><circle fill="#ff0000" cx="1.7" cy="1.7" r="1.7"/></svg><svg viewBox="0 0 3.4 3.4" x="712" y="1544" width="64" height="64" shape-rendering="auto"><circle fill="#ff0000" cx="1.7" cy="1.7" r="1.7"/></svg><svg viewBox="0 0 3.4 3.4" x="776" y="1544" width="64" height="64" shape-rendering="auto"><circle fill="#ff0000" cx="1.7" cy="1.7" r="1.7"/></svg><svg viewBox="0 0 3.4 3.4" x="968" y="1544" width="64" height="64" shape-rendering="auto"><circle fill="#ff0000" cx="1.7" cy="1.7" r="1.7"/></svg><svg viewBox="0 0 3.4 3.4" x="1032" y="1544" width="64" height="64" shape-rendering="auto"><circle fill="#ff0000" cx="1.7" cy="1.7" r="1.7"/></svg><svg viewBox="0 0 3.4 3.4" x="1096" y="1544" width="64" height="64" shape-rendering="auto"><circle fill="#ff0000" cx="1.7" cy="1.7" r="1.7"/></svg><svg viewBox="0 0 3.4 3.4" x="1160" y="1544" width="64" height="64" shape-rendering="auto"><circle fill="#ff0000" cx="1.7" cy="1.7" r="1.7"/></svg><svg viewBox="0 0 3.4 3.4" x="1288" y="1544" width="64" height="64" shape-rendering="auto"><circle fill="#ff0000" cx="1.7" cy="1.7" r="1.7"/></svg><svg viewBox="0 0 3.4 3.4" x="1672" y="1544" width="64" height="64" shape-rendering="auto"><circle fill="#ff0000" cx="1.7" cy="1.7" r="1.7"/></svg><svg viewBox="0 0 3.4 3.4" x="1736" y="1544" width="64" height="64" shape-rendering="auto"><circle fill="#ff0000" cx="1.7" cy="1.7" r="1.7"/></svg><svg viewBox="0 0 3.4 3.4" x="712" y="1608" width="64" height="64" shape-rendering="auto"><circle fill="#ff0000" cx="1.7" cy="1.7" r="1.7"/></svg><svg viewBox="0 0 3.4 3.4" x="840" y="1608" width="64" height="64" shape-rendering="auto"><circle fill="#ff0000" cx="1.7" cy="1.7" r="1.7"/></svg><svg viewBox="0 0 3.4 3.4" x="1032" y="1608" width="64" height="64" shape-rendering="auto"><circle fill="#ff0000" cx="1.7" cy="1.7" r="1.7"/></svg><svg viewBox="0 0 3.4 3.4" x="1096" y="1608" width="64" height="64" shape-rendering="auto"><circle fill="#ff0000" cx="1.7" cy="1.7" r="1.7"/></svg><svg viewBox="0 0 3.4 3.4" x="1160" y="1608" width="64" height="64" shape-rendering="auto"><circle fill="#ff0000" cx="1.7" cy="1.7" r="1.7"/></svg><svg viewBox="0 0 3.4 3.4" x="1352" y="1608" width="64" height="64" shape-rendering="auto"><circle fill="#ff0000" cx="1.7" cy="1.7" r="1.7"/></svg><svg viewBox="0 0 3.4 3.4" x="1544" y="1608" width="64" height="64" shape-rendering="auto"><circle fill="#ff0000" cx="1.7" cy="1.7" r="1.7"/></svg><svg viewBox="0 0 3.4 3.4" x="1608" y="1608" width="64" height="64" shape-rendering="auto"><circle fill="#ff0000" cx="1.7" cy="1.7" r="1.7"/></svg><svg viewBox="0 0 3.4 3.4" x="1736" y="1608" width="64" height="64" shape-rendering="auto"><circle fill="#ff0000" cx="1.7" cy="1.7" r="1.7"/></svg><svg viewBox="0 0 3.4 3.4" x="840" y="1672" width="64" height="64" shape-rendering="auto"><circle fill="#ff0000" cx="1.7" cy="1.7" r="1.7"/></svg><svg viewBox="0 0 3.4 3.4" x="904" y="1672" width="64" height="64" shape-rendering="auto"><circle fill="#ff0000" cx="1.7" cy="1.7" r="1.7"/></svg><svg viewBox="0 0 3.4 3.4" x="1096" y="1672" width="64" height="64" shape-rendering="auto"><circle fill="#ff0000" cx="1.7" cy="1.7" r="1.7"/></svg><svg viewBox="0 0 3.4 3.4" x="1160" y="1672" width="64" height="64" shape-rendering="auto"><circle fill="#ff0000" cx="1.7" cy="1.7" r="1.7"/></svg><svg viewBox="0 0 3.4 3.4" x="1288" y="1672" width="64" height="64" shape-rendering="auto"><circle fill="#ff0000" cx="1.7" cy="1.7" r="1.7"/></svg><svg viewBox="0 0 3.4 3.4" x="1352" y="1672" width="64" height="64" shape-rendering="auto"><circle fill="#ff0000" cx="1.7" cy="1.7" r="1.7"/></svg><svg viewBox="0 0 3.4 3.4" x="1480" y="1672" width="64" height="64" shape-rendering="auto"><circle fill="#ff0000" cx="1.7" cy="1.7" r="1.7"/></svg><svg viewBox="0 0 3.4 3.4" x="1608" y="1672" width="64" height="64" shape-rendering="auto"><circle fill="#ff0000" cx="1.7" cy="1.7" r="1.7"/></svg><svg viewBox="0 0 3.4 3.4" x="1672" y="1672" width="64" height="64" shape-rendering="auto"><circle fill="#ff0000" cx="1.7" cy="1.7" r="1.7"/></svg><svg viewBox="0 0 3.4 3.4" x="776" y="1736" width="64" height="64" shape-rendering="auto"><circle fill="#ff0000" cx="1.7" cy="1.7" r="1.7"/></svg><svg viewBox="0 0 3.4 3.4" x="904" y="1736" width="64" height="64" shape-rendering="auto"><circle fill="#ff0000" cx="1.7" cy="1.7" r="1.7"/></svg><svg viewBox="0 0 3.4 3.4" x="1096" y="1736" width="64" height="64" shape-rendering="auto"><circle fill="#ff0000" cx="1.7" cy="1.7" r="1.7"/></svg><svg viewBox="0 0 3.4 3.4" x="1608" y="1736" width="64" height="64" shape-rendering="auto"><circle fill="#ff0000" cx="1.7" cy="1.7" r="1.7"/></svg><svg viewBox="0 0 3.4 3.4" x="1672" y="1736" width="64" height="64" shape-rendering="auto"><circle fill="#ff0000" cx="1.7" cy="1.7" r="1.7"/></svg><svg viewBox="0 0 3.4 3.4" x="1736" y="1736" width="64" height="64" shape-rendering="auto"><circle fill="#ff0000" cx="1.7" cy="1.7" r="1.7"/></svg><svg version="1.1" id="Ebene_1" x="200" y="200" viewBox="0 0 700 700" style="enable-background:new 0 0 700 700;" xml:space="preserve" width="448" height="448" shape-rendering="auto">

<path fill="#000000" d="M21.2-0.1C9.5-0.1-0.1,9.5-0.1,21.2v78.8v100v100v100v100v100v78.8c0,11.7,9.5,21.3,21.3,21.3h657.6  c11.7,0,21.3-9.5,21.3-21.3V600V500V400V300V200v-100V21.2c0-11.7-9.5-21.3-21.3-21.3H21.2z M600,200v100v100v100v87.8  c0,6.8-5.5,12.2-12.2,12.2H112.2c-6.8,0-12.2-5.5-12.2-12.2V500V400V300V200v-87.8c0-6.8,5.5-12.2,12.2-12.2h475.6  c6.8,0,12.2,5.5,12.2,12.2V200z"/>
</svg>
<svg version="1.1" id="Ebene_1" x="200" y="200" viewBox="0 0 700 700" style="enable-background:new 0 0 700 700;" xml:space="preserve" width="448" height="448" shape-rendering="auto">

<path fill="#000000" d="M500,400V300v-78.8c0-11.7-9.5-21.3-21.3-21.3H221.2c-11.7,0-21.3,9.5-21.3,21.3V300v100v78.8    c0,11.7,9.5,21.3,21.3,21.3h257.5c11.7,0,21.3-9.5,21.3-21.3V400z"/>
</svg>
<svg version="1.1" id="Ebene_1" x="1352" y="200" viewBox="0 0 700 700" style="enable-background:new 0 0 700 700;" xml:space="preserve" width="448" height="448" shape-rendering="auto">

<path fill="#000000" d="M21.2-0.1C9.5-0.1-0.1,9.5-0.1,21.2v78.8v100v100v100v100v100v78.8c0,11.7,9.5,21.3,21.3,21.3h657.6  c11.7,0,21.3-9.5,21.3-21.3V600V500V400V300V200v-100V21.2c0-11.7-9.5-21.3-21.3-21.3H21.2z M600,200v100v100v100v87.8  c0,6.8-5.5,12.2-12.2,12.2H112.2c-6.8,0-12.2-5.5-12.2-12.2V500V400V300V200v-87.8c0-6.8,5.5-12.2,12.2-12.2h475.6  c6.8,0,12.2,5.5,12.2,12.2V200z"/>
</svg>
<svg version="1.1" id="Ebene_1" x="1352" y="200" viewBox="0 0 700 700" style="enable-background:new 0 0 700 700;" xml:space="preserve" width="448" height="448" shape-rendering="auto">

<path fill="#000000" d="M500,400V300v-78.8c0-11.7-9.5-21.3-21.3-21.3H221.2c-11.7,0-21.3,9.5-21.3,21.3V300v100v78.8    c0,11.7,9.5,21.3,21.3,21.3h257.5c11.7,0,21.3-9.5,21.3-21.3V400z"/>
</svg>
<svg version="1.1" id="Ebene_1" x="200" y="1352" viewBox="0 0 700 700" style="enable-background:new 0 0 700 700;" xml:space="preserve" width="448" height="448" shape-rendering="auto">

<path fill="#000000" d="M21.2-0.1C9.5-0.1-0.1,9.5-0.1,21.2v78.8v100v100v100v100v100v78.8c0,11.7,9.5,21.3,21.3,21.3h657.6  c11.7,0,21.3-9.5,21.3-21.3V600V500V400V300V200v-100V21.2c0-11.7-9.5-21.3-21.3-21.3H21.2z M600,200v100v100v100v87.8  c0,6.8-5.5,12.2-12.2,12.2H112.2c-6.8,0-12.2-5.5-12.2-12.2V500V400V300V200v-87.8c0-6.8,5.5-12.2,12.2-12.2h475.6  c6.8,0,12.2,5.5,12.2,12.2V200z"/>
</svg>
<svg version="1.1" id="Ebene_1" x="200" y="1352" viewBox="0 0 700 700" style="enable-background:new 0 0 700 700;" xml:space="preserve" width="448" height="448" shape-rendering="auto">

<path fill="#000000" d="M500,400V300v-78.8c0-11.7-9.5-21.3-21.3-21.3H221.2c-11.7,0-21.3,9.5-21.3,21.3V300v100v78.8    c0,11.7,9.5,21.3,21.3,21.3h257.5c11.7,0,21.3-9.5,21.3-21.3V400z"/>
</svg>
<svg version="1.0" id="Layer_1" x="744" y="744" viewBox="0 0 700 700" enable-background="new 0 0 700 700" xml:space="preserve" width="512" height="512" shape-rendering="auto">
<g>
	<g>
		<g>
			<path fill="#ff0000" d="M172.3,220.5c0-5.7-2-10.3-6.1-13.8c-4-3.5-11.1-6.7-21.3-9.8c-17.7-5.1-31-11.1-40.1-18.1     s-13.6-16.6-13.6-28.7s5.2-22.1,15.6-29.8c10.4-7.7,23.6-11.6,39.7-11.6c16.3,0,29.6,4.3,39.9,13c10.3,8.7,15.2,19.3,14.9,32.1     l-0.2,0.6h-28.8c0-6.9-2.3-12.4-6.9-16.7c-4.6-4.2-11-6.4-19.3-6.4c-8,0-14.1,1.8-18.5,5.3c-4.3,3.5-6.5,8.1-6.5,13.6     c0,5,2.3,9.2,7,12.4c4.7,3.2,12.7,6.6,24.1,10.2c16.4,4.6,28.8,10.6,37.2,18s12.6,17.3,12.6,29.5c0,12.7-5,22.7-15,30.1     c-10,7.3-23.3,11-39.7,11c-16.2,0-30.3-4.2-42.3-12.5c-12-8.3-17.9-20-17.5-35l0.2-0.6h29c0,8.8,2.7,15.3,8.1,19.4     c5.4,4.1,12.9,6.2,22.6,6.2c8.1,0,14.3-1.7,18.6-5C170.2,230.6,172.3,226.1,172.3,220.5z"/>
			<path fill="#ff0000" d="M336.7,208.7l0.2,0.6c0.3,16-4.6,28.6-14.6,38c-10,9.4-23.9,14.1-41.7,14.1c-17.9,0-32.4-5.7-43.5-17.2     s-16.7-26.3-16.7-44.3v-29.5c0-18,5.4-32.8,16.3-44.3s25-17.3,42.4-17.3c18.3,0,32.7,4.7,43,14.1c10.3,9.4,15.4,22.2,15.1,38.5     l-0.2,0.6h-29c0-9.8-2.3-17.3-7-22.5c-4.7-5.2-12-7.8-21.9-7.8c-8.9,0-16,3.6-21.2,10.8c-5.2,7.2-7.8,16.4-7.8,27.7v29.6     c0,11.3,2.8,20.6,8.3,27.9c5.5,7.2,12.9,10.8,22.3,10.8c9.3,0,16.2-2.5,20.6-7.5c4.4-5,6.7-12.4,6.7-22.3H336.7z"/>
			<path fill="#ff0000" d="M437.7,227.3h-52.1l-10.1,32h-30.1l51.1-148.4H427l50.9,148.4h-30.1L437.7,227.3z M392.9,203.9h37.4     L412,145.6h-0.6L392.9,203.9z"/>
			<path fill="#ff0000" d="M611.7,259.3H582l-59.9-101.4l-0.6,0.1v101.3h-29.8V110.9h29.8l59.9,101.3l0.6-0.1V110.9h29.7V259.3z"/>
		</g>
		<g>
			<path fill="#ff0000" d="M135.3,314.8l88.1,224.6h1.1l88.1-224.6h47.8v276.5h-37.4V481.9l3.8-112.4l-0.9-0.2l-89.6,222h-24.9     l-89.2-221.4l-0.9,0.2l3.6,111.8v109.4H87.5V314.8H135.3z"/>
			<path fill="#ff0000" d="M593.1,463.1H466.5v98.7h146v29.4H429.1V314.8h181.3v29.4H466.5v89.4h126.6V463.1z"/>
		</g>
	</g>
</g>
</svg></svg>

<path id="FrameBody" class="frame-color" d="M13.7,346.6h251.7c7.6,0,13.7-6.2,13.7-13.7V13.7c0-7.6-6.2-13.7-13.7-13.7H13.8C6.2,0,0.1,6.2,0,13.7
	v319.2C0,340.5,6.2,346.6,13.7,346.6z M10.6,17.9c0-4.1,3.3-7.4,7.4-7.4h243.2c4.1,0,7.4,3.3,7.4,7.4v243.3c0,4.1-3.3,7.4-7.4,7.4
	H18c-4.1,0-7.4-3.3-7.4-7.4V17.9z"/>

<path id="CallToAction" class="text-color" d="M54.9,320.2c4.6-0.1,7-1.7,7-5c0-2.7-1.5-4.2-4.6-4.8c-1.4-0.2-3-0.4-4.7-0.7
	c-3.1-0.5-5.4-1.6-7-3.4s-2.5-4-2.5-6.6c0-3.1,1-5.6,3.1-7.5c2-1.9,4.8-2.8,8.5-2.9c4.4,0.1,8.3,1.3,11.5,3.7l-3,4.4
	c-2.7-1.8-5.6-2.7-8.8-2.7c-1.7,0-3,0.4-4.2,1.2c-1.2,0.9-1.8,2.1-1.8,3.9c0,1,0.4,2,1.2,2.8s2.1,1.4,3.8,1.8c1,0.2,2.3,0.4,4,0.6
	c3.3,0.5,5.8,1.7,7.4,3.6s2.4,4.1,2.4,6.6c-0.2,6.8-4.3,10.3-12.5,10.4c-5.3,0-9.8-1.6-13.6-4.9l3.5-4.1
	C47.6,319,51,320.2,54.9,320.2z M96.9,315.4c-0.8,3.3-2.3,5.8-4.5,7.6c-2.3,1.8-4.9,2.6-8,2.6c-2.8-0.1-5.1-0.7-7-2.1
	c-1.9-1.3-3.3-2.7-4.2-4.3c-0.3-0.5-0.5-1-0.7-1.5s-0.4-1.1-0.5-1.9c-0.2-1.4-0.4-4.2-0.4-8.3c0-4.1,0.1-6.9,0.4-8.3
	s0.7-2.5,1.2-3.4c0.9-1.6,2.2-3.1,4.2-4.4c1.9-1.3,4.2-2,7-2c3.4,0,6.2,1,8.4,3.1c2.2,2,3.5,4.5,4.1,7.5h-5.7
	c-0.4-1.4-1.2-2.7-2.4-3.7s-2.7-1.5-4.4-1.5c-1.3,0-2.4,0.3-3.3,0.8s-1.7,1.1-2.2,1.8c-0.7,0.8-1.2,1.8-1.4,3
	c-0.3,1.3-0.4,3.7-0.4,7.2s0.1,5.9,0.4,7.1c0.2,1.2,0.7,2.2,1.4,3c0.6,0.7,1.3,1.3,2.2,1.8s2,0.8,3.3,0.8c3,0,5.3-1.6,6.8-4.9
	L96.9,315.4L96.9,315.4z M119.1,317.4h-13.5l-2.7,8h-5.7l12.9-35.6h4.5l12.9,35.6h-5.7L119.1,317.4z M117.4,312.6l-5.2-15.6h-0.1
	l-5.2,15.6H117.4z M131.2,289.7h5.1l16.1,25.3h0.1v-25.3h5.4v35.6h-5.1l-16-25.3h-0.1v25.3h-5.4v-35.6H131.2z M177.4,289.7h5.1
	l10.2,23.2l10-23.2h5.1v35.6h-5.4v-22.2h-0.1l-7.4,17.1h-4.5l-7.4-17.1h0v22.2h-5.4v-35.6H177.4z M215.3,289.7H238v5.1h-17.3V305
	h14.8v4.8h-14.8v10.4H238v5.1h-22.7V289.7z"/>
</svg>
